<?xml version="1.0" standalone="no"?>
<!DOCTYPE svg PUBLIC "-//W3C//DTD SVG 1.1//EN" "http://www.w3.org/Graphics/SVG/1.1/DTD/svg11.dtd" >
<!--
2013-9-13: Created.
-->
<svg xmlns="http://www.w3.org/2000/svg" xmlns:xlink="http://www.w3.org/1999/xlink" version="1.1">
<metadata>
Created by FontForge 20190526 at Sat Nov 16 19:56:48 2019
 By Jany
Created by Jany Belluz with FontForge 2.0 (http://fontforge.sf.net)
</metadata>
<defs>
<font id="FantasqueSansMono-Regular" horiz-adv-x="1060" >
  <font-face 
    font-family="Fantasque Sans Mono"
    font-weight="400"
    font-stretch="normal"
    units-per-em="2048"
    panose-1="2 11 6 9 2 2 4 3 2 4"
    ascent="1650"
    descent="-398"
    x-height="1021"
    cap-height="1292"
    bbox="-3049 -797 1138 2143"
    underline-thickness="156"
    underline-position="-77"
    unicode-range="U+0020-FF63"
  />
    <missing-glyph />
    <glyph glyph-name="a" unicode="a" 
d="M234 311c0 -105 56 -165 149 -165c210 0 315 158 341 199v95c-57 35 -131 64 -235 64c-136 -1 -255 -75 -255 -193zM881 318c0 -35 0 -128 13 -145c13 -18 50 -41 79 -64l-83 -119c-52 40 -112 65 -130 166c-78 -75 -180 -162 -377 -162c-171 0 -305 141 -305 307
c0 76 30 165 89 226c95 97 196 121 314 121c126 0 189 -18 243 -51c0 189 -69 280 -239 280c-138 0 -201 -30 -281 -173l-130 82c96 182 230 242 409 242c242 0 398 -155 398 -380v-330z" />
    <glyph glyph-name="b" unicode="b" 
d="M749 478c0 283 -112 387 -275 387c-91 0 -153 -70 -205 -121v-437c71 -114 118 -160 255 -160c170 0 225 127 225 331zM906 459c0 -268 -107 -466 -382 -466c-112 0 -192 35 -255 91c-1 -42 -6 -64 -11 -96l-165 19c10 66 19 153 19 236v24c0 249 -1 610 -1 890
c0 94 -8 178 -15 246l159 9c9 -73 14 -169 14 -260v-203c48 36 91 71 191 71c323 0 446 -225 446 -561z" />
    <glyph glyph-name="c" unicode="c" 
d="M230 527c0 -370 207 -377 317 -377h13c156 0 231 65 283 152l126 -91c-33 -42 -126 -218 -405 -218c-104 0 -227 8 -323 80c-130 101 -170 255 -170 454c0 367 178 491 493 491c95 0 169 -24 229 -70c61 -47 92 -107 114 -159l-154 -60c-11 41 -40 136 -200 136
c-221 0 -323 -99 -323 -338z" />
    <glyph glyph-name="d" unicode="d" 
d="M231 478c0 -204 53 -331 223 -331c137 0 185 46 256 160v437c-52 51 -161 124 -252 124c-163 0 -227 -107 -227 -390zM867 267v-26c0 -83 8 -169 18 -234l-164 -19c-5 32 -10 54 -11 96c-63 -56 -144 -91 -256 -91c-275 0 -381 198 -381 466c0 336 76 564 399 564
c100 0 189 -43 237 -74v207c0 94 -8 179 -15 247l160 8c9 -73 14 -168 14 -259z" />
    <glyph glyph-name="e" unicode="e" 
d="M236 580c129 1 386 10 528 26c-16 161 -118 263 -254 263c-170 0 -273 -135 -274 -289zM509 1021c377 0 414 -380 414 -518c0 -20 0 -35 -1 -43c-280 -19 -508 -31 -686 -33c0 -153 86 -284 290 -284c143 0 227 79 266 133l123 -109c-41 -45 -155 -177 -393 -177
c-298 0 -444 213 -444 526c0 286 148 505 431 505z" />
    <glyph glyph-name="f" unicode="f" 
d="M568 1266c-147 0 -156 -98 -156 -206v-39c68 0 198 -1 271 -1c104 -3 131 -11 161 -20l-29 -146c-21 7 -42 13 -98 13h-305c1 -154 3 -863 3 -867h-157c0 25 -1 720 -3 867h-143v153h144c0 16 -1 25 -1 44c0 143 28 354 305 354c219 0 367 -26 451 -193l-126 -77
c-50 98 -112 118 -317 118z" />
    <glyph glyph-name="g" unicode="g" 
d="M237 -76c0 -126 75 -156 207 -156h105c115 0 254 41 254 207c0 85 -149 96 -270 96c-9 0 -66 0 -212 -2c-56 -22 -84 -82 -84 -145zM476 557c129 0 228 52 228 149c0 129 -85 168 -212 168c-136 0 -239 -73 -239 -165c0 -116 93 -152 223 -152zM95 699
c0 210 151 327 397 327c115 0 189 -20 254 -60c56 52 109 62 219 62v-164c-12 2 -34 5 -44 5c-35 0 -74 -5 -91 -22c26 -47 30 -89 30 -137c0 -189 -154 -303 -379 -303c-71 0 -134 7 -199 32c-19 -22 -43 -57 -43 -98c0 -76 54 -118 180 -118c26 0 154 2 181 2
c188 0 361 -59 361 -249c0 -259 -174 -364 -418 -364h-103c-211 0 -360 97 -360 306c0 100 32 171 87 219c-57 42 -85 113 -85 191c0 91 32 151 74 199c-34 38 -61 100 -61 172z" />
    <glyph glyph-name="p" unicode="p" 
d="M763 527c0 204 -54 331 -224 331c-137 0 -185 -46 -256 -160v-436c52 -51 109 -114 200 -114c163 0 280 96 280 379zM127 739v24c0 83 -9 169 -19 235l164 20c5 -32 10 -54 11 -96c63 56 143 91 255 91c275 0 382 -199 382 -467c0 -336 -128 -553 -451 -553
c-100 0 -138 32 -186 63v-207c0 -94 9 -178 16 -246l-159 -9c-9 73 -14 169 -14 260z" />
    <glyph glyph-name="h" unicode="h" 
d="M739 576c0 227 -36 291 -237 291c-101 0 -202 -74 -233 -136v-533c0 -79 -5 -152 -10 -198l-158 8c8 72 11 119 11 196c0 504 -1 1198 -1 1198h159v-462c65 41 137 80 239 80c121 0 231 -9 310 -105c72 -85 77 -163 77 -273v-66c0 -164 -1 -241 -1 -353
c0 -55 26 -84 86 -123l-88 -117c-80 45 -154 98 -154 225v368z" />
    <glyph glyph-name="i" unicode="i" 
d="M313 1406h235v-225h-235v225zM417 1013h116c0 -273 1 -803 1 -803c5 -82 49 -86 141 -86c93 0 217 21 286 73l68 -114c-86 -71 -229 -101 -353 -101c-85 0 -161 14 -205 38c-85 47 -93 127 -93 186v651c-49 0 -163 -6 -258 -28l-29 142c112 26 222 42 326 42z" />
    <glyph glyph-name="j" unicode="j" 
d="M560 1404l234 -3v-225l-234 3v225zM627 -114l-1 978h-16c-98 0 -150 -8 -240 -29l-28 142c112 26 220 42 324 42h117v-1137c0 -145 -61 -269 -299 -269c-123 0 -267 22 -393 227l126 98c99 -162 183 -169 246 -169h17c112 0 145 82 147 117z" />
    <glyph glyph-name="k" unicode="k" 
d="M586 566c101 0 156 91 156 179c0 18 -2 35 -7 50c-10 33 -42 77 -105 77c-24 0 -52 -6 -85 -22c-99 -47 -178 -92 -252 -142v-90c84 -13 149 -28 198 -39c37 -8 68 -13 95 -13zM293 880c72 49 222 136 328 136c136 0 259 -83 273 -202c3 -23 5 -53 5 -82
c0 -33 -3 -67 -8 -93c-6 -34 -58 -136 -161 -185c98 -73 96 -193 149 -281c24 -39 50 -60 83 -84l-84 -108c-123 60 -158 178 -185 257c-50 145 -275 217 -399 231c0 0 -2 -190 -2 -340c0 -50 1 -96 1 -129h-157v1228c0 61 -10 114 -23 155l153 44c9 -23 27 -68 27 -134
v-413z" />
    <glyph glyph-name="l" unicode="l" 
d="M415 1423h116c0 -273 3 -1211 3 -1211c5 -82 49 -86 141 -86c93 0 217 21 286 73l68 -114c-86 -71 -229 -101 -353 -101c-85 0 -161 14 -205 38c-85 47 -93 127 -93 186l-3 1060c-17 0 -44 1 -74 1c-57 0 -129 -3 -190 -17l-28 143c112 26 228 28 332 28z" />
    <glyph glyph-name="m" unicode="m" 
d="M765 1026c145 0 170 -192 170 -287v-523c0 -51 51 -88 92 -104l-61 -133c-71 14 -171 71 -171 212v2v567v13c0 35 -4 100 -64 100c-48 0 -100 -46 -162 -181v-692h-141v806c0 28 -2 67 -48 67c-48 0 -117 -46 -179 -182v-691h-141l-3 815c0 93 -13 143 -30 192l150 40
c15 -32 29 -124 31 -170c46 80 133 149 206 149c97 0 154 -79 154 -149c43 79 105 149 197 149z" />
    <glyph glyph-name="o" unicode="o" 
d="M654 215c65 61 89 167 89 315v18c-2 184 -66 330 -243 330c-208 0 -270 -165 -270 -409c0 -195 87 -313 254 -313c76 1 120 17 170 59zM482 1c-272 1 -410 183 -410 463c0 292 102 568 394 568c197 0 307 -69 377 -201c41 -79 59 -192 59 -288c0 -285 -96 -542 -418 -542
h-2z" />
    <glyph glyph-name="n" unicode="n" 
d="M270 927c126 66 218 95 328 95c120 0 299 -77 299 -226v-585c0 -66 50 -88 106 -118l-84 -112c-88 43 -180 94 -180 223v561c0 74 -97 107 -163 107c-64 0 -160 -42 -306 -112v-760l-158 -1v706c0 178 -8 204 -32 298l160 37c10 -24 22 -64 30 -113z" />
    <glyph glyph-name="q" unicode="q" 
d="M270 527c0 -283 117 -379 280 -379c91 0 149 63 201 114v436c-71 114 -119 160 -256 160c-170 0 -225 -127 -225 -331zM908 763v-914c0 -94 8 -178 15 -246l-159 -9c-9 73 -13 169 -13 260v202c-48 -31 -87 -63 -187 -63c-323 0 -450 217 -450 553c0 268 106 467 381 467
c112 0 193 -35 256 -91c1 42 6 64 11 96l164 -20c-10 -66 -18 -152 -18 -235z" />
    <glyph glyph-name="r" unicode="r" 
d="M370 875c93 114 197 150 352 150c167 0 212 -114 212 -296v-6h-156c-4 81 8 142 -84 142c-101 0 -228 -36 -328 -259v-606l-156 1v763c0 57 -40 86 -102 141l104 141c61 -49 121 -87 158 -171z" />
    <glyph glyph-name="s" unicode="s" 
d="M268 569c-65 35 -116 103 -116 214c1 173 163 246 338 246c122 0 298 -40 380 -141l-113 -111c-53 62 -167 104 -253 104c-106 0 -195 -29 -195 -94c0 -48 20 -71 60 -89c271 -113 527 -133 527 -417c0 -162 -114 -253 -221 -281c-56 -13 -116 -20 -173 -20
c-256 0 -384 135 -384 350l157 -1c0 -134 69 -206 224 -206c123 0 242 53 242 163c0 63 -31 93 -86 134c-77 55 -282 94 -387 149z" />
    <glyph glyph-name="t" unicode="t" 
d="M359 437v-40c0 -133 36 -234 147 -245c18 -2 95 -3 108 -3c65 0 129 10 154 24c57 30 75 85 82 104l126 -56c-10 -28 -33 -119 -145 -184c-58 -34 -130 -43 -215 -43c-184 0 -306 19 -377 167c-35 72 -39 147 -39 233v43c4 104 6 235 12 428h-14c-28 0 -56 -4 -82 -11
l-20 146c24 9 69 12 102 12h15c0 70 1 164 1 234l158 -1c0 -66 -1 -160 -2 -228h122c145 1 299 2 299 2h18v-147h-317c-46 0 -73 -3 -119 -3c-9 -204 -10 -332 -14 -432z" />
    <glyph glyph-name="u" unicode="u" 
d="M906 -10c-57 41 -111 82 -133 168c-84 -86 -181 -153 -331 -156h-9c-62 0 -147 1 -207 42c-45 31 -112 88 -112 170c-3 268 4 697 -23 780l160 27c22 -92 17 -405 19 -771c6 -34 28 -60 50 -76c14 -10 65 -18 106 -18c67 3 108 11 159 42c47 28 116 58 154 146v676h158
v-781c2 -52 51 -100 91 -132z" />
    <glyph glyph-name="v" unicode="v" 
d="M153 1048c70 -75 92 -124 118 -199c45 -126 219 -568 230 -672c124 143 248 433 254 640c1 28 1 64 1 97c0 41 0 79 -2 97l152 4c3 -16 5 -136 5 -194c-2 -245 -152 -570 -297 -750c-57 -71 -141 -74 -247 -74c0 140 -201 688 -263 842c-8 21 -54 88 -80 113z" />
    <glyph glyph-name="w" unicode="w" 
d="M6 976l148 76c34 -59 65 -137 88 -257c46 -242 43 -468 50 -646c119 0 181 153 181 412v263h140v-304c0 -158 41 -271 72 -373c90 0 164 161 164 534c0 124 -12 269 -24 339h156c5 -47 8 -230 8 -310c0 -490 -129 -710 -341 -710h-20h-34c-17 64 -43 147 -57 209
c-37 -80 -121 -209 -313 -212h-6h-6c-27 1 -43 5 -60 12c-5 104 -15 574 -69 781c-16 59 -56 149 -77 186z" />
    <glyph glyph-name="x" unicode="x" 
d="M860 863c-50 -85 -168 -268 -248 -375c78 -103 212 -310 232 -323c4 -3 20 -9 54 -9c18 0 36 3 52 6v-153c-20 -3 -42 -6 -62 -6c-40 0 -80 12 -120 40c-72 47 -176 218 -260 336c-150 -195 -307 -379 -322 -397l-121 102c8 11 189 239 345 427
c-84 118 -198 275 -330 449l130 101c124 -170 226 -321 308 -437c72 87 128 183 198 306c20 35 30 72 34 89l158 1c-6 -49 -16 -106 -48 -157z" />
    <glyph glyph-name="y" unicode="y" 
d="M336 -223c106 0 160 185 198 291c-94 328 -213 645 -351 769c-33 30 -74 31 -110 31v153c33 0 83 -4 111 -8c167 -25 329 -401 442 -726c74 217 140 506 148 733h158c0 -60 -5 -117 -14 -168c-65 -353 -166 -683 -298 -994c-53 -135 -131 -234 -280 -234
c-175 0 -284 106 -284 376h156c0 -177 44 -223 124 -223z" />
    <glyph glyph-name="z" unicode="z" 
d="M96 874l27 151c46 -5 154 -5 278 -5h478l24 -115c-11 -11 -146 -169 -351 -382c-123 -125 -231 -234 -306 -367l538 -1c56 0 108 -12 169 -32l-40 -145c-45 13 -62 22 -127 22h-715v20c0 73 1 125 22 169c76 159 206 280 343 429c96 105 176 185 238 243h-31
c-67 0 -158 2 -245 2c-125 0 -245 2 -302 11z" />
    <glyph glyph-name="A" unicode="A" 
d="M716 505l-194 587l-186 -607c60 13 116 13 199 17zM434 1301h171l378 -1129c11 -37 29 -118 31 -172h-164c0 23 -12 95 -20 122l-70 210c-141 -3 -362 -5 -473 -32l-59 -179c-10 -29 -24 -93 -24 -121h-162c1 28 19 116 32 159z" />
    <glyph glyph-name="B" unicode="B" 
d="M97 823c0 173 -3 335 -12 462c81 6 130 14 243 14h18c206 0 402 -81 402 -297c0 -96 -25 -179 -86 -235c155 -52 280 -184 280 -374c0 -225 -149 -370 -316 -390c-39 -5 -80 -8 -119 -8c-85 0 -175 8 -283 8h-136c0 194 9 404 9 820zM591 992c0 113 -97 158 -234 158h-17
c-39 0 -55 -2 -85 -5c3 -37 4 -81 4 -128c0 -67 -2 -140 -2 -214c146 3 196 -4 286 51c27 16 48 71 48 130v8zM708 578c-73 61 -134 71 -229 71c-49 0 -107 -2 -180 -2h-44c-2 -237 -3 -418 -4 -494c108 0 148 -7 223 -7c40 0 75 2 110 7c106 13 199 112 199 256
c0 79 -23 126 -75 169z" />
    <glyph glyph-name="C" unicode="C" 
d="M569 1152c-115 0 -204 -65 -252 -132c-45 -65 -102 -181 -102 -395c0 -164 31 -310 129 -401c62 -58 110 -73 192 -73h14c147 5 233 79 284 191l139 -76c-74 -155 -208 -269 -398 -269h-3c-111 0 -243 25 -337 117c-120 122 -179 286 -179 509c0 254 81 410 133 486
c72 106 208 197 383 197c140 0 268 -84 356 -243l-136 -81c-61 120 -137 170 -223 170z" />
    <glyph glyph-name="D" unicode="D" 
d="M309 1152h-30c-16 0 -28 1 -45 -2c1 -25 1 -56 1 -86c0 -62 -1 -130 -1 -198c0 -300 -3 -626 -4 -722c88 -3 133 -3 193 -3c169 0 295 26 360 205c16 45 27 133 27 187c0 159 -36 326 -101 421c-89 128 -179 198 -400 198zM70 125c0 54 6 443 6 758v74
c0 126 -4 248 -13 334c81 8 126 13 225 13c271 0 427 -80 550 -259c84 -124 131 -300 131 -477c0 -68 -8 -135 -21 -200c-48 -236 -209 -354 -389 -371c-55 -5 -106 -7 -161 -7c-84 0 -217 7 -331 7c0 33 0 32 3 128z" />
    <glyph glyph-name="E" unicode="E" 
d="M102 1293c56 4 126 4 204 4h98h110c149 0 285 -3 359 -3h16v-150h-629v-328h438v-150h-438v-30c0 -203 -3 -412 -3 -489l525 2c56 0 117 26 117 26l44 -148c-48 -13 -83 -30 -159 -30h-682v1296z" />
    <glyph glyph-name="F" unicode="F" 
d="M277 -1l-161 4v1295h685c77 -3 125 -18 159 -35l-56 -146c-26 14 -48 27 -146 28h-70c-104 0 -233 -1 -416 -2v-328c120 0 187 3 309 3c88 0 147 -14 148 -14l18 -5l-36 -145c-37 9 -88 14 -133 14c-106 0 -198 0 -306 -3c0 -121 5 -573 5 -666z" />
    <glyph glyph-name="G" unicode="G" 
d="M861 733c46 0 89 3 131 7v-135c0 -435 -123 -556 -301 -602c-45 -10 -109 -11 -151 -11c-364 0 -520 288 -520 636c0 237 53 431 184 558c100 88 214 116 329 116h20c214 -5 348 -113 423 -276l-143 -69c-52 114 -136 193 -291 193c-84 0 -145 -6 -223 -73
c-111 -95 -137 -288 -137 -460c0 -259 78 -470 368 -470c29 0 57 2 83 9c123 28 193 108 193 431c-26 -2 -50 -2 -73 -2c-31 0 -60 1 -89 1c-71 0 -140 -5 -230 -38l-40 145c96 36 200 42 301 42c56 0 112 -2 166 -2z" />
    <glyph glyph-name="H" unicode="H" 
d="M220 1296l-1 -547c92 21 187 28 307 28h228c0 274 -1 352 -1 514h159v-1291h-158v625h-129c-146 0 -288 -3 -406 -28c0 -343 2 -416 2 -597h-161v1294z" />
    <glyph glyph-name="K" unicode="K" 
d="M484 725c120 -117 467 -531 518 -666l-134 -76c-46 109 -350 491 -480 617c0 0 -84 -98 -114 -169v-436h-158v1313h158v-605c80 111 151 190 250 293c191 195 317 293 338 314l111 -106c-182 -132 -429 -406 -489 -479z" />
    <glyph glyph-name="L" unicode="L" 
d="M141 -3v1301h161v-1147h521c59 3 77 7 121 22l41 -146c-47 -16 -85 -30 -160 -30h-684z" />
    <glyph glyph-name="M" unicode="M" 
d="M59 1292l155 -1c48 -149 87 -231 156 -353c50 -90 76 -141 95 -179c83 155 213 387 265 532h157l1 -1296h-157l-2 925c-74 -141 -191 -345 -202 -381l-122 3c-8 16 -66 126 -154 295c-21 44 -16 35 -31 63v-905h-158z" />
    <glyph glyph-name="N" unicode="N" 
d="M752 -6c-163 357 -317 654 -519 1007v-204c0 -293 1 -648 1 -800h-159v1301l159 -4c126 -184 402 -689 519 -937c-2 130 -3 266 -3 400c0 186 3 369 12 540h154c-6 -113 -8 -262 -8 -425c0 -226 4 -480 4 -710c0 -57 -1 -114 -1 -167z" />
    <glyph glyph-name="O" unicode="O" 
d="M504 1326c124 0 445 -74 450 -691v-11c0 -164 -44 -317 -92 -410c-75 -144 -205 -227 -370 -227c-122 0 -249 43 -330 143c-90 110 -138 262 -138 442c0 345 76 494 146 589c66 90 178 162 334 165zM266 245c49 -65 118 -105 226 -105c116 0 189 67 234 150
c40 64 69 230 70 337v19c0 115 -17 268 -70 371c-58 114 -128 156 -216 156c-95 0 -152 -28 -210 -104c-69 -89 -118 -231 -118 -493c0 -104 28 -258 84 -331z" />
    <glyph glyph-name="P" unicode="P" 
d="M784 900c0 208 -123 245 -369 251c-61 0 -106 -4 -151 -5v-126c0 -183 -1 -407 -1 -407c36 -1 70 -1 103 -1c286 0 418 60 418 288zM262 -10l-158 1v1303c118 0 156 8 289 8c225 0 364 -13 479 -151c54 -65 74 -155 74 -245c0 -91 -8 -191 -68 -278
c-98 -140 -223 -168 -462 -168c-48 0 -99 1 -153 3c0 -263 -1 -317 -1 -473z" />
    <glyph glyph-name="Q" unicode="Q" 
d="M889 -146c-115 0 -240 34 -266 161c-41 -11 -82 -18 -122 -18c-116 0 -224 43 -303 124c-100 104 -148 287 -148 508c0 207 29 399 124 521c93 120 192 155 315 155c167 0 283 -65 362 -206c86 -153 91 -309 91 -420c0 -151 -21 -326 -93 -448c-40 -66 -60 -101 -93 -138
c11 -73 42 -89 122 -92h11c37 0 60 4 84 10v-148c-22 -5 -39 -9 -84 -9zM502 430c105 0 186 -37 212 -144c56 71 69 214 69 378v27c0 105 -3 220 -69 332c-46 77 -126 129 -227 129c-181 0 -278 -169 -278 -461c0 -102 4 -322 75 -427c38 133 147 166 218 166zM607 167
c-3 99 -36 137 -119 137c-66 0 -121 -49 -121 -114v-4c30 -32 80 -42 123 -42c35 0 76 5 117 23z" />
    <glyph glyph-name="R" unicode="R" 
d="M652 540c78 -122 190 -302 246 -367c18 -16 49 -50 91 -61l-59 -134c-58 9 -112 47 -146 89c-97 107 -255 373 -311 467c-82 8 -150 20 -226 33l1 -567h-158v1113c0 67 -1 114 -5 175c42 4 157 15 218 15c250 0 419 -14 541 -164c48 -59 83 -146 83 -230
c0 -220 -99 -340 -275 -369zM772 895c0 55 -15 105 -57 153c-67 78 -183 102 -407 102c-26 0 -34 0 -63 -1l2 -430c99 -18 178 -41 260 -41c16 0 33 1 49 3c140 18 216 52 216 214z" />
    <glyph glyph-name="S" unicode="S" 
d="M247 709c-91 43 -175 134 -175 280c0 216 187 313 398 313h9c223 -3 393 -79 431 -286l-159 -29c-38 127 -122 161 -276 161c-102 0 -163 -21 -209 -66c-24 -25 -35 -54 -35 -88c0 -82 46 -120 102 -147c88 -42 274 -55 406 -115c108 -52 210 -170 210 -344
c0 -269 -188 -397 -428 -397h-19c-353 9 -459 199 -459 422h158c0 -159 83 -271 307 -271c205 0 281 95 281 238c0 107 -59 175 -138 209c-116 50 -271 60 -404 120z" />
    <glyph glyph-name="T" unicode="T" 
d="M403 -9v1153c-198 0 -288 -1 -364 -1v155c122 0 576 1 764 1c73 0 122 -12 140 -15l-33 -152s-62 12 -112 12h-235v-1153h-160z" />
    <glyph glyph-name="U" unicode="U" 
d="M777 1313l157 -13c-9 -60 -9 -103 -9 -157c0 -145 2 -272 2 -383v-58c0 -232 -4 -454 -116 -583c-82 -95 -190 -124 -319 -129c-308 0 -406 166 -424 457c-5 75 -7 197 -7 332c0 172 3 365 9 523h158c-4 -165 -8 -389 -8 -574c0 -123 2 -229 7 -289
c18 -210 100 -298 252 -298c106 5 158 28 212 84c67 74 78 280 78 477c0 123 -5 269 -5 439c0 71 3 110 13 172z" />
    <glyph glyph-name="V" unicode="V" 
d="M413 -5c-24 192 -311 1068 -405 1291l152 53c101 -252 236 -646 334 -1014c74 314 242 752 343 1000l151 -53c-98 -231 -396 -1076 -414 -1276z" />
    <glyph glyph-name="W" unicode="W" 
d="M332 0h-131c-43 170 -149 1035 -195 1286l154 32c120 -643 86 -710 130 -1020c70 230 139 588 145 659c45 0 133 0 167 12c36 -191 84 -484 142 -669c33 285 -3 324 124 1015l158 -32c-52 -251 -158 -1105 -191 -1283h-136s-146 429 -178 613
c-47 -225 -181 -591 -189 -613z" />
    <glyph glyph-name="X" unicode="X" 
d="M794 1340l134 -85l-360 -598c171 -267 268 -443 410 -580l-104 -113c-152 147 -244 302 -396 544l-318 -539l-132 85l352 600c-120 204 -217 428 -357 584l125 93c130 -146 224 -360 327 -532z" />
    <glyph glyph-name="Y" unicode="Y" 
d="M399 -6v141c0 90 7 347 7 466c-79 111 -322 550 -373 656l140 71c40 -77 232 -432 319 -569c98 139 298 495 336 582l139 -79c-47 -94 -120 -236 -225 -404c-87 -131 -157 -242 -176 -268c0 -47 -2 -95 -2 -149c-3 -132 -5 -274 -5 -316v-131h-160z" />
    <glyph glyph-name="Z" unicode="Z" 
d="M123 -5l-95 88l727 1067c-214 0 -552 -5 -666 -5l-1 153c120 0 542 4 730 4c75 0 121 -13 140 -16c-3 -33 -14 -114 -18 -137l-677 -998l487 -1c85 0 112 4 177 25l40 -148c-45 -16 -83 -30 -158 -30h-243c-212 0 -388 -2 -436 -2h-7z" />
    <glyph glyph-name="I" unicode="I" 
d="M152 1298c156 4 237 4 333 4c105 0 201 -1 364 -3v-152c-123 0 -171 5 -267 5v-1000c46 0 72 1 123 1c45 0 92 -1 144 -4v-150c-85 5 -147 6 -210 6c-47 0 -96 -1 -155 -1c-74 0 -174 -7 -329 -7v149c85 4 135 5 192 5h75v1000c-66 -1 -158 -1 -264 -7z" />
    <glyph glyph-name="J" unicode="J" 
d="M414 -8c-275 0 -372 218 -374 434l160 -1c6 -150 59 -283 212 -283c186 0 221 185 221 517c0 95 -16 348 -28 485c-49 0 -128 2 -165 2c-104 -3 -116 -12 -143 -18l-38 148c30 7 61 19 179 22c145 0 362 -1 518 -1l-2 -153c-48 0 -135 1 -185 1c16 -178 22 -380 22 -503
c0 -354 -47 -650 -377 -650z" />
    <glyph glyph-name="zero" unicode="0" 
d="M280 455l389 498c-31 100 -68 202 -178 202c-199 0 -223 -344 -223 -557c0 -50 8 -119 12 -143zM706 818l-392 -501c26 -95 68 -180 179 -180c207 0 219 323 219 542c0 49 -2 98 -6 139zM490 1308c303 0 377 -349 377 -648c0 -302 -56 -676 -374 -676
c-300 0 -380 328 -380 632s74 692 377 692z" />
    <glyph glyph-name="period" unicode="." 
d="M397 269h251v-269h-251v269z" />
    <glyph glyph-name="comma" unicode="," 
d="M401 274h251l7 -263v-3c0 -197 -84 -325 -251 -401l-61 139c92 51 142 121 142 259h-88v269z" />
    <glyph glyph-name="eacute" unicode="&#xe9;" 
d="M240 1208c143 48 352 205 467 313l123 -146c-111 -112 -379 -268 -522 -315zM236 580c129 1 386 10 528 26c-16 161 -118 263 -254 263c-170 0 -273 -135 -274 -289zM509 1021c377 0 414 -380 414 -518c0 -20 0 -35 -1 -43c-280 -19 -508 -31 -686 -33
c0 -153 86 -284 290 -284c143 0 227 79 266 133l123 -109c-41 -45 -155 -177 -393 -177c-298 0 -444 213 -444 526c0 286 148 505 431 505z" />
    <glyph glyph-name="egrave" unicode="&#xe8;" 
d="M785 1213.5l-68 -148c-143 47 -411 203 -522 315l123 146c115 -108 324 -265 467 -313zM236 580c129 1 386 10 528 26c-16 161 -118 263 -254 263c-170 0 -273 -135 -274 -289zM509 1021c377 0 414 -380 414 -518c0 -20 0 -35 -1 -43c-280 -19 -508 -31 -686 -33
c0 -153 86 -284 290 -284c143 0 227 79 266 133l123 -109c-41 -45 -155 -177 -393 -177c-298 0 -444 213 -444 526c0 286 148 505 431 505z" />
    <glyph glyph-name="ecircumflex" unicode="&#xea;" 
d="M497 1496l375 -328l-107 -107l-271 221l-261 -221l-104 107zM236 580c129 1 386 10 528 26c-16 161 -118 263 -254 263c-170 0 -273 -135 -274 -289zM509 1021c377 0 414 -380 414 -518c0 -20 0 -35 -1 -43c-280 -19 -508 -31 -686 -33c0 -153 86 -284 290 -284
c143 0 227 79 266 133l123 -109c-41 -45 -155 -177 -393 -177c-298 0 -444 213 -444 526c0 286 148 505 431 505z" />
    <glyph glyph-name="edieresis" unicode="&#xeb;" 
d="M201 1403l235 -3v-225l-235 3v225zM607 1400l235 -3v-225l-235 3v225zM236 580c129 1 386 10 528 26c-16 161 -118 263 -254 263c-170 0 -273 -135 -274 -289zM509 1021c377 0 414 -380 414 -518c0 -20 0 -35 -1 -43c-280 -19 -508 -31 -686 -33c0 -153 86 -284 290 -284
c143 0 227 79 266 133l123 -109c-41 -45 -155 -177 -393 -177c-298 0 -444 213 -444 526c0 286 148 505 431 505z" />
    <glyph glyph-name="agrave" unicode="&#xe0;" 
d="M724 1212l-68 -148c-143 47 -411 203 -522 315l123 146c115 -108 324 -265 467 -313zM234 311c0 -105 56 -165 149 -165c210 0 315 158 341 199v95c-57 35 -131 64 -235 64c-136 -1 -255 -75 -255 -193zM881 318c0 -35 0 -128 13 -145c13 -18 50 -41 79 -64l-83 -119
c-52 40 -112 65 -130 166c-78 -75 -180 -162 -377 -162c-171 0 -305 141 -305 307c0 76 30 165 89 226c95 97 196 121 314 121c126 0 189 -18 243 -51c0 189 -69 280 -239 280c-138 0 -201 -30 -281 -173l-130 82c96 182 230 242 409 242c242 0 398 -155 398 -380v-330z" />
    <glyph glyph-name="aacute" unicode="&#xe1;" 
d="M214 1212c143 48 352 205 467 313l123 -146c-111 -112 -379 -268 -522 -315zM234 311c0 -105 56 -165 149 -165c210 0 315 158 341 199v95c-57 35 -131 64 -235 64c-136 -1 -255 -75 -255 -193zM881 318c0 -35 0 -128 13 -145c13 -18 50 -41 79 -64l-83 -119
c-52 40 -112 65 -130 166c-78 -75 -180 -162 -377 -162c-171 0 -305 141 -305 307c0 76 30 165 89 226c95 97 196 121 314 121c126 0 189 -18 243 -51c0 189 -69 280 -239 280c-138 0 -201 -30 -281 -173l-130 82c96 182 230 242 409 242c242 0 398 -155 398 -380v-330z" />
    <glyph glyph-name="acircumflex" unicode="&#xe2;" 
d="M453 1499l375 -328l-107 -107l-271 221l-261 -221l-104 107zM234 311c0 -105 56 -165 149 -165c210 0 315 158 341 199v95c-57 35 -131 64 -235 64c-136 -1 -255 -75 -255 -193zM881 318c0 -35 0 -128 13 -145c13 -18 50 -41 79 -64l-83 -119c-52 40 -112 65 -130 166
c-78 -75 -180 -162 -377 -162c-171 0 -305 141 -305 307c0 76 30 165 89 226c95 97 196 121 314 121c126 0 189 -18 243 -51c0 189 -69 280 -239 280c-138 0 -201 -30 -281 -173l-130 82c96 182 230 242 409 242c242 0 398 -155 398 -380v-330z" />
    <glyph glyph-name="atilde" unicode="&#xe3;" 
d="M320 1364c148 0 206 -121 296 -121c64 0 133 39 147 127l148 -52c-32 -120 -149 -228 -281 -228c-140 0 -197 121 -298 121c-59 0 -117 -9 -155 -115l-138 74c74 164 171 194 281 194zM234 311c0 -105 56 -165 149 -165c210 0 315 158 341 199v95c-57 35 -131 64 -235 64
c-136 -1 -255 -75 -255 -193zM881 318c0 -35 0 -128 13 -145c13 -18 50 -41 79 -64l-83 -119c-52 40 -112 65 -130 166c-78 -75 -180 -162 -377 -162c-171 0 -305 141 -305 307c0 76 30 165 89 226c95 97 196 121 314 121c126 0 189 -18 243 -51c0 189 -69 280 -239 280
c-138 0 -201 -30 -281 -173l-130 82c96 182 230 242 409 242c242 0 398 -155 398 -380v-330z" />
    <glyph glyph-name="adieresis" unicode="&#xe4;" 
d="M153 1406l235 -3v-225l-235 3v225zM559 1403l235 -3v-225l-235 3v225zM234 311c0 -105 56 -165 149 -165c210 0 315 158 341 199v95c-57 35 -131 64 -235 64c-136 -1 -255 -75 -255 -193zM881 318c0 -35 0 -128 13 -145c13 -18 50 -41 79 -64l-83 -119
c-52 40 -112 65 -130 166c-78 -75 -180 -162 -377 -162c-171 0 -305 141 -305 307c0 76 30 165 89 226c95 97 196 121 314 121c126 0 189 -18 243 -51c0 189 -69 280 -239 280c-138 0 -201 -30 -281 -173l-130 82c96 182 230 242 409 242c242 0 398 -155 398 -380v-330z" />
    <glyph glyph-name="aring" unicode="&#xe5;" 
d="M392.5 1285c0 -35 36 -72 87 -72s85 37 85 72s-33 69 -85 69s-87 -34 -87 -69zM263.5 1283c0 111 102 195 217 195s216 -84 216 -195s-101 -195 -216 -195s-217 84 -217 195zM234 311c0 -105 56 -165 149 -165c210 0 315 158 341 199v95c-57 35 -131 64 -235 64
c-136 -1 -255 -75 -255 -193zM881 318c0 -35 0 -128 13 -145c13 -18 50 -41 79 -64l-83 -119c-52 40 -112 65 -130 166c-78 -75 -180 -162 -377 -162c-171 0 -305 141 -305 307c0 76 30 165 89 226c95 97 196 121 314 121c126 0 189 -18 243 -51c0 189 -69 280 -239 280
c-138 0 -201 -30 -281 -173l-130 82c96 182 230 242 409 242c242 0 398 -155 398 -380v-330z" />
    <glyph glyph-name="ae" unicode="&#xe6;" 
d="M177 324c0 -108 41 -162 124 -162c90 0 128 92 140 165v147c-43 25 -85 34 -139 34c-78 0 -125 -83 -125 -184zM594 615c89 6 147 8 231 8c0 106 -22 246 -92 246c-128 0 -139 -92 -139 -254zM505 97c-30 -34 -90 -93 -193 -93c-63 0 -128 15 -182 53
c-81 57 -107 154 -107 252c0 167 64 352 268 352c77 0 112 -16 150 -32c0 97 -22 241 -141 241h-9c-52 0 -82 -3 -148 -103l-10 -14l-117 74l11 18c85 134 150 178 273 178c56 0 102 -8 163 -55c19 -16 38 -40 50 -59c41 61 89 114 211 114c244 0 252 -349 252 -548
l-382 -10v-245c25 -29 76 -59 139 -59c59 0 110 56 148 109l107 -100c-93 -126 -197 -165 -274 -165c-81 0 -153 33 -209 92z" />
    <glyph glyph-name="colon" unicode=":" 
d="M394 1019.87h251v-269h-251v269zM394 271h251v-269h-251v269z" />
    <glyph glyph-name="semicolon" unicode=";" 
d="M390 1020.4h251v-269h-251v269zM393 274h251l7 -263v-3c0 -197 -84 -325 -251 -401l-61 139c92 51 142 121 142 259h-88v269z" />
    <glyph glyph-name="exclam" unicode="!" 
d="M613 1319l-16 -888h-166l-16 888h198zM388 270h250v-270h-250v270z" />
    <glyph glyph-name="space" unicode=" " 
 />
    <glyph glyph-name="quotesingle" unicode="'" 
d="M374 1464h211c0 -283 -9 -459 -43 -660l-154 17c10 55 15 142 15 210c0 87 -9 158 -29 227v206z" />
    <glyph glyph-name="Agrave" unicode="&#xc0;" 
d="M771 1467l-68 -148c-143 47 -411 203 -522 315l123 146c115 -108 324 -265 467 -313zM716 505l-194 587l-186 -607c60 13 116 13 199 17zM434 1301h171l378 -1129c11 -37 29 -118 31 -172h-164c0 23 -12 95 -20 122l-70 210c-141 -3 -362 -5 -473 -32l-59 -179
c-10 -29 -24 -93 -24 -121h-162c1 28 19 116 32 159z" />
    <glyph glyph-name="Aacute" unicode="&#xc1;" 
d="M222 1478c143 48 352 205 467 313l123 -146c-111 -112 -379 -268 -522 -315zM716 505l-194 587l-186 -607c60 13 116 13 199 17zM434 1301h171l378 -1129c11 -37 29 -118 31 -172h-164c0 23 -12 95 -20 122l-70 210c-141 -3 -362 -5 -473 -32l-59 -179
c-10 -29 -24 -93 -24 -121h-162c1 28 19 116 32 159z" />
    <glyph glyph-name="Acircumflex" unicode="&#xc2;" 
d="M505 1748l375 -328l-107 -107l-271 221l-261 -221l-104 107zM716 505l-194 587l-186 -607c60 13 116 13 199 17zM434 1301h171l378 -1129c11 -37 29 -118 31 -172h-164c0 23 -12 95 -20 122l-70 210c-141 -3 -362 -5 -473 -32l-59 -179c-10 -29 -24 -93 -24 -121h-162
c1 28 19 116 32 159z" />
    <glyph glyph-name="Atilde" unicode="&#xc3;" 
d="M369 1634c148 0 206 -121 296 -121c64 0 133 39 147 127l148 -52c-32 -120 -149 -228 -281 -228c-140 0 -197 121 -298 121c-59 0 -117 -9 -155 -115l-138 74c74 164 171 194 281 194zM716 505l-194 587l-186 -607c60 13 116 13 199 17zM434 1301h171l378 -1129
c11 -37 29 -118 31 -172h-164c0 23 -12 95 -20 122l-70 210c-141 -3 -362 -5 -473 -32l-59 -179c-10 -29 -24 -93 -24 -121h-162c1 28 19 116 32 159z" />
    <glyph glyph-name="Adieresis" unicode="&#xc4;" 
d="M197 1607l235 -3v-225l-235 3v225zM603 1604l235 -3v-225l-235 3v225zM716 505l-194 587l-186 -607c60 13 116 13 199 17zM434 1301h171l378 -1129c11 -37 29 -118 31 -172h-164c0 23 -12 95 -20 122l-70 210c-141 -3 -362 -5 -473 -32l-59 -179
c-10 -29 -24 -93 -24 -121h-162c1 28 19 116 32 159z" />
    <glyph glyph-name="Aring" unicode="&#xc5;" 
d="M718 495l-194 587l-186 -607c60 13 116 13 199 17zM429 1447c0 -35 36 -72 87 -72s85 37 85 72s-33 69 -85 69s-87 -34 -87 -69zM300 1445c0 111 102 195 217 195s216 -84 216 -195c0 -77 -49 -142 -118 -174l368 -1099c11 -37 29 -118 31 -172h-164c0 23 -12 95 -20 122
l-70 210c-141 -3 -362 -5 -473 -32l-59 -179c-10 -29 -24 -93 -24 -121h-162c1 28 19 116 32 159l350 1110c-72 31 -124 97 -124 176z" />
    <glyph glyph-name="igrave" unicode="&#xec;" 
d="M670 1254l-68 -148c-143 47 -411 203 -522 315l123 146c115 -108 324 -265 467 -313zM417 1013h116c0 -273 1 -803 1 -803c5 -82 49 -86 141 -86c93 0 217 21 286 73l68 -114c-86 -71 -229 -101 -353 -101c-85 0 -161 14 -205 38c-85 47 -93 127 -93 186v651
c-49 0 -163 -6 -258 -28l-29 142c112 26 222 42 326 42z" />
    <glyph glyph-name="iacute" unicode="&#xed;" 
d="M234 1218c143 48 352 205 467 313l123 -146c-111 -112 -379 -268 -522 -315zM417 1013h116c0 -273 1 -803 1 -803c5 -82 49 -86 141 -86c93 0 217 21 286 73l68 -114c-86 -71 -229 -101 -353 -101c-85 0 -161 14 -205 38c-85 47 -93 127 -93 186v651
c-49 0 -163 -6 -258 -28l-29 142c112 26 222 42 326 42z" />
    <glyph glyph-name="icircumflex" unicode="&#xee;" 
d="M464 1502l375 -328l-107 -107l-271 221l-261 -221l-104 107zM417 1013h116c0 -273 1 -803 1 -803c5 -82 49 -86 141 -86c93 0 217 21 286 73l68 -114c-86 -71 -229 -101 -353 -101c-85 0 -161 14 -205 38c-85 47 -93 127 -93 186v651c-49 0 -163 -6 -258 -28l-29 142
c112 26 222 42 326 42z" />
    <glyph glyph-name="idieresis" unicode="&#xef;" 
d="M125 1406l235 -3v-225l-235 3v225zM531 1403l235 -3v-225l-235 3v225zM417 1013h116c0 -273 1 -803 1 -803c5 -82 49 -86 141 -86c93 0 217 21 286 73l68 -114c-86 -71 -229 -101 -353 -101c-85 0 -161 14 -205 38c-85 47 -93 127 -93 186v651c-49 0 -163 -6 -258 -28
l-29 142c112 26 222 42 326 42z" />
    <glyph glyph-name="ccedilla" unicode="&#xe7;" 
d="M230 527c0 -370 207 -377 317 -377h13c156 0 231 65 283 152l126 -91c-30 -39 -112 -192 -344 -215v-15c97 -5 155 -67 155 -171c0 -101 -100 -168 -184 -168c-66 0 -138 25 -194 61l38 106c33 -18 73 -42 124 -42c36 0 77 20 80 58v2c0 29 -38 54 -86 54s-50 -7 -78 -17
v132c-82 6 -168 24 -239 77c-130 101 -170 255 -170 454c0 367 178 491 493 491c95 0 169 -24 229 -70c61 -47 92 -107 114 -159l-154 -60c-11 41 -40 136 -200 136c-221 0 -323 -99 -323 -338z" />
    <glyph glyph-name="AE" unicode="&#xc6;" 
d="M470 490l-51 604l-143 -619s69 13 194 15zM481 347c-161 -5 -239 -25 -239 -25l-51 -201c-7 -30 -24 -93 -24 -121h-162c1 28 20 116 32 159l313 1134c62 2 172 2 269 2c157 0 239 -1 336 -1v-150h-405l26 -328h300v-150h-281l42 -519l244 2c56 0 117 26 117 26l44 -148
c-47 -13 -81 -30 -153 -30h-6l-379 3z" />
    <glyph glyph-name="Ccedilla" unicode="&#xc7;" 
d="M569 1175c-115 0 -204 -66 -252 -134c-45 -66 -102 -185 -102 -403c0 -167 31 -316 129 -409c62 -59 110 -75 192 -75h14c147 5 233 81 284 195l139 -78c-67 -144 -184 -253 -348 -271v-34c97 -5 155 -67 155 -171c0 -101 -100 -168 -184 -168c-66 0 -138 25 -194 61
l38 106c33 -18 73 -42 124 -42c36 0 77 20 80 58v2c0 29 -38 54 -86 54s-50 -7 -78 -17v154c-87 12 -176 44 -245 113c-120 125 -179 292 -179 520c0 259 81 418 133 496c72 108 208 200 383 200c140 0 268 -85 356 -247l-136 -83c-61 122 -137 173 -223 173z" />
    <glyph glyph-name="Egrave" unicode="&#xc8;" 
d="M748 1478l-68 -148c-143 47 -411 203 -522 315l123 146c115 -108 324 -265 467 -313zM102 1293c56 4 126 4 204 4h98h110c149 0 285 -3 359 -3h16v-150h-629v-328h438v-150h-438v-30c0 -203 -3 -412 -3 -489l525 2c56 0 117 26 117 26l44 -148c-48 -13 -83 -30 -159 -30
h-682v1296z" />
    <glyph glyph-name="Eacute" unicode="&#xc9;" 
d="M200 1480c143 48 352 205 467 313l123 -146c-111 -112 -379 -268 -522 -315zM102 1293c56 4 126 4 204 4h98h110c149 0 285 -3 359 -3h16v-150h-629v-328h438v-150h-438v-30c0 -203 -3 -412 -3 -489l525 2c56 0 117 26 117 26l44 -148c-48 -13 -83 -30 -159 -30h-682
v1296z" />
    <glyph glyph-name="Ecircumflex" unicode="&#xca;" 
d="M498 1784l375 -328l-107 -107l-271 221l-261 -221l-104 107zM102 1293c56 4 126 4 204 4h98h110c149 0 285 -3 359 -3h16v-150h-629v-328h438v-150h-438v-30c0 -203 -3 -412 -3 -489l525 2c56 0 117 26 117 26l44 -148c-48 -13 -83 -30 -159 -30h-682v1296z" />
    <glyph glyph-name="Edieresis" unicode="&#xcb;" 
d="M199 1652l235 -3v-225l-235 3v225zM605 1649l235 -3v-225l-235 3v225zM102 1293c56 4 126 4 204 4h98h110c149 0 285 -3 359 -3h16v-150h-629v-328h438v-150h-438v-30c0 -203 -3 -412 -3 -489l525 2c56 0 117 26 117 26l44 -148c-48 -13 -83 -30 -159 -30h-682v1296z" />
    <glyph glyph-name="Igrave" unicode="&#xcc;" 
d="M774 1500l-68 -148c-143 47 -411 203 -522 315l123 146c115 -108 324 -265 467 -313zM152 1298c156 4 237 4 333 4c105 0 201 -1 364 -3v-152c-123 0 -171 5 -267 5v-1000c46 0 72 1 123 1c45 0 92 -1 144 -4v-150c-85 5 -147 6 -210 6c-47 0 -96 -1 -155 -1
c-74 0 -174 -7 -329 -7v149c85 4 135 5 192 5h75v1000c-66 -1 -158 -1 -264 -7z" />
    <glyph glyph-name="Iacute" unicode="&#xcd;" 
d="M222 1488c143 48 352 205 467 313l123 -146c-111 -112 -379 -268 -522 -315zM152 1298c156 4 237 4 333 4c105 0 201 -1 364 -3v-152c-123 0 -171 5 -267 5v-1000c46 0 72 1 123 1c45 0 92 -1 144 -4v-150c-85 5 -147 6 -210 6c-47 0 -96 -1 -155 -1
c-74 0 -174 -7 -329 -7v149c85 4 135 5 192 5h75v1000c-66 -1 -158 -1 -264 -7z" />
    <glyph glyph-name="Icircumflex" unicode="&#xce;" 
d="M491 1781l375 -328l-107 -107l-271 221l-261 -221l-104 107zM152 1298c156 4 237 4 333 4c105 0 201 -1 364 -3v-152c-123 0 -171 5 -267 5v-1000c46 0 72 1 123 1c45 0 92 -1 144 -4v-150c-85 5 -147 6 -210 6c-47 0 -96 -1 -155 -1c-74 0 -174 -7 -329 -7v149
c85 4 135 5 192 5h75v1000c-66 -1 -158 -1 -264 -7z" />
    <glyph glyph-name="Idieresis" unicode="&#xcf;" 
d="M155 1646l235 -3v-225l-235 3v225zM561 1643l235 -3v-225l-235 3v225zM152 1298c156 4 237 4 333 4c105 0 201 -1 364 -3v-152c-123 0 -171 5 -267 5v-1000c46 0 72 1 123 1c45 0 92 -1 144 -4v-150c-85 5 -147 6 -210 6c-47 0 -96 -1 -155 -1c-74 0 -174 -7 -329 -7v149
c85 4 135 5 192 5h75v1000c-66 -1 -158 -1 -264 -7z" />
    <glyph glyph-name="quotedbl" unicode="&#x22;" 
d="M605 1464h185c0 -283 -9 -459 -43 -660l-128 17c10 55 15 142 15 210c0 87 -9 158 -29 227v206zM234 1464h185c0 -283 -9 -459 -43 -660l-128 17c10 55 15 142 15 210c0 87 -9 158 -29 227v206z" />
    <glyph glyph-name="numbersign" unicode="#" 
d="M417 795c-6 -80 -17 -172 -26 -254c41 2 72 2 106 2h74c11 84 19 177 28 255c-71 0 -114 -2 -182 -3zM341 -19l-169 1c7 113 17 226 36 393c-53 -1 -96 -10 -124 -19l-50 147c56 20 128 26 194 31c16 80 18 177 27 256h-14c-65 -4 -115 -9 -150 -22l-53 147
c65 25 156 29 240 34c22 184 15 242 23 382c29 0 74 1 112 1c19 0 36 0 50 -1c-7 -121 -13 -232 -28 -376h182c19 163 29 252 48 371l163 -2c-25 -121 -39 -210 -58 -368h135v-161c-28 1 -61 4 -153 4c-8 -79 -20 -170 -30 -255h179v-161c-27 1 -77 3 -191 3
c-22 -197 -28 -287 -37 -408l-164 1c11 112 21 230 41 406h-24c-54 0 -104 -2 -154 -5c-15 -150 -31 -399 -31 -399z" />
    <glyph glyph-name="dollar" unicode="$" 
d="M247 709c-91 43 -175 134 -175 280c0 199 187 286 398 286h9l9 235l175 -14l-22 -232c129 -20 263 -101 317 -218l-139 -77c-32 88 -117 124 -190 139l-25 -333c46 -10 92 -23 135 -43c108 -52 209 -152 209 -326c0 -258 -197 -345 -398 -352l-12 -230l-179 14l29 227
c-217 41 -328 166 -328 374h158c0 -136 71 -196 182 -222l32 434c-62 15 -126 31 -185 58zM468 1121c-131 -1 -237 -31 -237 -127c0 -82 46 -121 102 -147c34 -16 72 -28 111 -37zM561 207c143 9 227 62 227 191c0 107 -58 157 -137 191c-19 8 -39 15 -59 22z" />
    <glyph glyph-name="oe" unicode="&#x153;" 
d="M970 187c0 0 -59 -187 -262 -187c-92 0 -168 40 -221 95c-24 -32 -77 -95 -151 -95c-56 0 -125 5 -205 91c-103 111 -107 289 -107 368c0 46 1 126 11 176c21 123 83 382 292 382c79 0 118 -27 159 -63c11 -9 18 -17 23 -23c23 37 67 87 182 87c201 0 276 -222 284 -448
v-84h-68c-100 -3 -237 -8 -319 -12l-2 -259c39 -39 87 -61 126 -61c75 0 103 67 119 102zM588 652v-21c88 5 151 4 227 11c-6 104 -46 220 -124 220c-40 0 -79 -11 -92 -57c-11 -35 -11 -96 -11 -153zM330 154c52 0 103 73 103 132l2 468c0 22 -14 109 -107 109
c-94 0 -149 -176 -152 -389v-18c0 -71 13 -187 65 -265c18 -27 56 -37 89 -37z" />
    <glyph glyph-name="bracketleft" unicode="[" 
d="M844 1483l32 -154c-101 -9 -197 -9 -364 -13v-1417c96 3 201 4 220 4h13c63 0 129 -6 143 -9v-162c-25 3 -65 9 -136 9c-59 0 -305 -5 -398 -5c0 178 2 261 2 441c0 90 -1 211 -2 390c0 175 -2 351 -2 482v421c93 0 337 7 388 7c72 3 81 4 104 6z" />
    <glyph glyph-name="bracketright" unicode="]" 
d="M199 1483c23 -2 32 -3 104 -6c51 0 295 -7 388 -7v-421c0 -131 -2 -307 -2 -482c-1 -179 -2 -300 -2 -390c0 -180 2 -263 2 -441c-93 0 -339 5 -398 5c-71 0 -111 -6 -136 -9v162c14 3 80 9 143 9h13c19 0 124 -1 220 -4v1417c-167 4 -263 4 -364 13z" />
    <glyph glyph-name="parenleft" unicode="(" 
d="M893 1326h-9c-339 0 -476 -334 -476 -714s188 -707 484 -708v-166c-360 3 -644 317 -644 874c0 532 214 859 645 872v-158z" />
    <glyph glyph-name="parenright" unicode=")" 
d="M146 1326v158c431 -13 645 -340 645 -872c0 -557 -284 -871 -644 -874v166c296 1 484 328 484 708s-137 714 -476 714h-9z" />
    <glyph glyph-name="hyphen" unicode="-" 
d="M152 600h787v-156h-787v156z" />
    <glyph glyph-name="plus" unicode="+" 
d="M432 960h155v-360h385v-156h-385v-393h-155v393h-370v156h370v360z" />
    <glyph glyph-name="less" unicode="&#x3c;" 
d="M874 75l-125 -105c-24 36 -68 72 -116 110c-95 79 -476 355 -502 373v120c157 129 474 384 607 462c30 17 51 31 86 42l47 -157c-161 -85 -396 -280 -555 -403c143 -101 466 -310 558 -442z" />
    <glyph glyph-name="greater" unicode="&#x3e;" 
d="M926 591v-117c-96 -69 -516 -439 -694 -504l-68 139c175 94 436 304 577 417c-126 90 -370 268 -484 374c-27 25 -49 44 -68 74l118 102c106 -126 532 -418 619 -485z" />
    <glyph glyph-name="slash" unicode="/" 
d="M100 -80c6 13 34 70 52 112c96 225 479 1120 587 1406l148 -58c-138 -352 -519 -1239 -639 -1521z" />
    <glyph glyph-name="one" unicode="1" 
d="M496 1302l198 -12v-1299h-164l-2 1064c-68 -85 -196 -184 -319 -274l-101 151c305 180 378 356 388 370z" />
    <glyph glyph-name="two" unicode="2" 
d="M301 857l-150 -36c-9 29 -18 76 -20 112c0 9 -1 17 -1 25c0 222 165 348 363 348c239 0 368 -118 368 -378c0 -127 -79 -240 -159 -325c-85 -85 -204 -171 -306 -271c-71 -70 -99 -141 -101 -177l585 2v-155h-759c0 30 -2 62 -2 95c0 26 1 53 6 81c18 97 64 182 172 283
c106 98 206 164 284 240c77 73 121 164 121 225c0 116 -56 224 -201 224c-130 0 -213 -70 -213 -230c0 -21 9 -52 13 -63z" />
    <glyph glyph-name="three" unicode="3" 
d="M78 335l158 1c1 -116 83 -203 230 -203c158 0 254 93 254 241c0 110 -33 187 -130 241c-91 51 -170 51 -250 51v158h16c38 0 88 2 160 26c84 30 127 77 127 178c0 78 -85 122 -186 122c-127 0 -185 -104 -203 -140l-142 79c5 15 92 214 335 214h11
c179 0 343 -79 343 -270c0 -128 -51 -235 -142 -276c161 -78 221 -211 221 -381c0 -85 -29 -196 -96 -275c-66 -77 -159 -123 -318 -123c-241 0 -388 153 -388 357z" />
    <glyph glyph-name="four" unicode="4" 
d="M605 570v420c-73 -129 -226 -323 -318 -420h318zM78 543c34 46 498 600 520 763h163v-736h128v-154h-128v-418h-156v415h-467z" />
    <glyph glyph-name="five" unicode="5" 
d="M485 731c-131 0 -212 -91 -229 -108l-126 54l46 611l599 -2v-154h-458l-23 -297c47 28 110 54 188 54c57 0 125 -10 193 -43c111 -59 217 -195 217 -396c0 -300 -180 -450 -420 -452h-2c-175 0 -294 116 -364 233l133 88c52 -86 122 -165 234 -165c167 0 261 105 261 294
c0 148 -51 221 -129 257c-42 20 -84 26 -120 26z" />
    <glyph glyph-name="six" unicode="6" 
d="M773 1158c-217 -20 -390 -130 -456 -292c-25 -62 -36 -124 -45 -184c54 46 101 92 251 92c222 0 374 -162 374 -393c0 -263 -174 -384 -410 -384c-261 0 -393 215 -393 512c0 119 18 271 77 419c86 217 297 352 578 383zM262 440c0 -168 93 -290 225 -290
c144 0 251 77 251 231c0 136 -85 238 -224 238c-133 0 -236 -94 -252 -179z" />
    <glyph glyph-name="seven" unicode="7" 
d="M151 1292c84 0 192 -6 269 -6h492h41l46 -82c-289 -537 -521 -750 -521 -1204h-165c0 407 201 714 474 1133c-52 -2 -127 -2 -198 -2h-129c-63 0 -149 5 -212 8c-19 -37 -29 -73 -42 -116l-135 61c19 59 54 133 80 208z" />
    <glyph glyph-name="eight" unicode="8" 
d="M487 147c166 0 263 87 263 221c0 152 -131 229 -263 289c-132 -60 -263 -137 -263 -289c0 -134 97 -221 263 -221zM487 821c108 27 183 102 183 168c0 79 -65 147 -185 147s-185 -68 -185 -147c0 -66 79 -141 187 -168zM485 1293c219 0 342 -135 342 -308
c0 -103 -82 -208 -170 -247c112 -54 252 -178 252 -360c0 -222 -163 -387 -422 -387s-422 165 -422 387c0 182 140 306 252 360c-88 39 -174 144 -174 247c0 173 123 308 342 308z" />
    <glyph glyph-name="nine" unicode="9" 
d="M504 1152c-130 0 -249 -58 -249 -200c0 -130 122 -184 242 -184c128 0 212 91 232 160c-13 110 -108 224 -225 224zM96 955c0 215 161 347 383 347c381 0 427 -339 427 -658c0 -324 -72 -646 -419 -646c-245 0 -357 115 -422 316l153 45c45 -145 86 -205 269 -205
c221 0 263 221 263 449c0 36 -2 72 -3 107c-63 -64 -135 -94 -264 -94c-214 0 -387 114 -387 339z" />
    <glyph glyph-name="equal" unicode="=" 
d="M50 349c140 8 252 8 366 8c179 0 313 -8 481 -8l-2 -161c-174 0 -318 5 -501 5c-50 0 -100 1 -152 1c-60 0 -123 -1 -192 -5v160zM48 825c99 -6 183 -7 256 -7h92c192 0 301 5 499 5v-159c-193 0 -304 -8 -501 -8c-96 0 -204 2 -349 11c0 53 0 107 3 158z" />
    <glyph glyph-name="backslash" unicode="\" 
d="M906 -80l-148 -61c-120 282 -500 1169 -638 1521l148 58c108 -286 490 -1181 588 -1406c16 -42 44 -99 50 -112z" />
    <glyph glyph-name="asciicircum" unicode="^" 
d="M520 1101l458 -511l-120 -123l-336 362l-355 -362l-115 109z" />
    <glyph glyph-name="underscore" unicode="_" 
d="M992 -334h-950v156h950v-156z" />
    <glyph glyph-name="grave" unicode="`" 
d="M358.595 1487.24c74.4053 -114.241 374.405 -369.241 468.719 -405.682l-101.189 -155.408c-196.124 122.849 -342.124 236.849 -511.896 421.483z" />
    <glyph glyph-name="question" unicode="?" 
d="M505 1337c231 0 343 -132 343 -344c0 -159 -119 -257 -197 -323c-52 -44 -109 -111 -109 -193v-46h-175v44c0 120 52 198 136 272c100 89 185 136 185 242c0 112 -59 193 -191 193c-124 0 -223 -61 -225 -193c0 -47 29 -93 55 -125l-134 -90c-41 60 -78 125 -78 210
c0 243 183 353 390 353zM333 270h250v-270h-250v270z" />
    <glyph glyph-name="tilde" unicode="~" 
d="M335 750c156 0 283 -175 373 -175c87 0 127 108 141 173l143 -61c-23 -88 -85 -265 -288 -265c-166 0 -267 174 -379 174c-56 0 -117 -58 -165 -145l-129 91c70 135 148 208 304 208z" />
    <glyph glyph-name="exclamdown" unicode="&#xa1;" 
d="M415.408 -299.324l18.4199 887.953l165.999 -0.453125l13.5801 -888.04zM643.266 749.059l-249.999 0.680664l0.736328 269.999l249.999 -0.680664z" />
    <glyph glyph-name="Ograve" unicode="&#xd2;" 
d="M775.5 1512l-68 -148c-143 47 -411 203 -522 315l123 146c115 -108 324 -265 467 -313zM504 1326c124 0 445 -74 450 -691v-11c0 -164 -44 -317 -92 -410c-75 -144 -205 -227 -370 -227c-122 0 -249 43 -330 143c-90 110 -138 262 -138 442c0 345 76 494 146 589
c66 90 178 162 334 165zM266 245c49 -65 118 -105 226 -105c116 0 189 67 234 150c40 64 69 230 70 337v19c0 115 -17 268 -70 371c-58 114 -128 156 -216 156c-95 0 -152 -28 -210 -104c-69 -89 -118 -231 -118 -493c0 -104 28 -258 84 -331z" />
    <glyph glyph-name="Oacute" unicode="&#xd3;" 
d="M271.5 1514c143 48 352 205 467 313l123 -146c-111 -112 -379 -268 -522 -315zM504 1326c124 0 445 -74 450 -691v-11c0 -164 -44 -317 -92 -410c-75 -144 -205 -227 -370 -227c-122 0 -249 43 -330 143c-90 110 -138 262 -138 442c0 345 76 494 146 589
c66 90 178 162 334 165zM266 245c49 -65 118 -105 226 -105c116 0 189 67 234 150c40 64 69 230 70 337v19c0 115 -17 268 -70 371c-58 114 -128 156 -216 156c-95 0 -152 -28 -210 -104c-69 -89 -118 -231 -118 -493c0 -104 28 -258 84 -331z" />
    <glyph glyph-name="Ocircumflex" unicode="&#xd4;" 
d="M500.5 1787l375 -328l-107 -107l-271 221l-261 -221l-104 107zM504 1326c124 0 445 -74 450 -691v-11c0 -164 -44 -317 -92 -410c-75 -144 -205 -227 -370 -227c-122 0 -249 43 -330 143c-90 110 -138 262 -138 442c0 345 76 494 146 589c66 90 178 162 334 165zM266 245
c49 -65 118 -105 226 -105c116 0 189 67 234 150c40 64 69 230 70 337v19c0 115 -17 268 -70 371c-58 114 -128 156 -216 156c-95 0 -152 -28 -210 -104c-69 -89 -118 -231 -118 -493c0 -104 28 -258 84 -331z" />
    <glyph glyph-name="Otilde" unicode="&#xd5;" 
d="M367.5 1673c148 0 206 -121 296 -121c64 0 133 39 147 127l148 -52c-32 -120 -149 -228 -281 -228c-140 0 -197 121 -298 121c-59 0 -117 -9 -155 -115l-138 74c74 164 171 194 281 194zM504 1326c124 0 445 -74 450 -691v-11c0 -164 -44 -317 -92 -410
c-75 -144 -205 -227 -370 -227c-122 0 -249 43 -330 143c-90 110 -138 262 -138 442c0 345 76 494 146 589c66 90 178 162 334 165zM266 245c49 -65 118 -105 226 -105c116 0 189 67 234 150c40 64 69 230 70 337v19c0 115 -17 268 -70 371c-58 114 -128 156 -216 156
c-95 0 -152 -28 -210 -104c-69 -89 -118 -231 -118 -493c0 -104 28 -258 84 -331z" />
    <glyph glyph-name="Odieresis" unicode="&#xd6;" 
d="M188.5 1637l235 -3v-225l-235 3v225zM594.5 1634l235 -3v-225l-235 3v225zM504 1326c124 0 445 -74 450 -691v-11c0 -164 -44 -317 -92 -410c-75 -144 -205 -227 -370 -227c-122 0 -249 43 -330 143c-90 110 -138 262 -138 442c0 345 76 494 146 589
c66 90 178 162 334 165zM266 245c49 -65 118 -105 226 -105c116 0 189 67 234 150c40 64 69 230 70 337v19c0 115 -17 268 -70 371c-58 114 -128 156 -216 156c-95 0 -152 -28 -210 -104c-69 -89 -118 -231 -118 -493c0 -104 28 -258 84 -331z" />
    <glyph glyph-name="Oslash" unicode="&#xd8;" 
d="M747 1026c-116 -275 -264 -609 -370 -852c36 -17 79 -26 132 -26c116 0 189 64 234 149c40 65 71 231 71 340c0 0 -4 265 -60 376c-2 4 -5 9 -7 13zM258 295c101 231 261 592 372 857c-28 14 -59 20 -92 20c-95 0 -151 -28 -209 -106c-69 -91 -129 -257 -129 -481
c0 -88 19 -209 58 -290zM185 127c-2 2 -4 5 -6 7c-90 112 -138 263 -138 447c0 314 88 482 158 579c66 92 178 165 334 168c39 0 96 -5 156 -31c12 29 22 55 31 79l148 -58c-14 -36 -30 -76 -48 -119c83 -97 150 -265 152 -554v-11c0 -167 -44 -320 -92 -415
c-75 -147 -206 -227 -371 -227c-66 0 -134 12 -195 39c-11 -24 -19 -47 -28 -67l-148 61c6 12 30 61 47 102z" />
    <glyph glyph-name="multiply" unicode="&#xd7;" 
d="M381 522c-120 120 -210 226 -318 326l99 123c109 -101 221 -218 334 -335c178 170 319 309 336 327l104 -123c-19 -19 -156 -158 -327 -325c179 -191 227 -254 327 -354l-120 -98c-80 104 -158 176 -322 344c-152 -149 -262 -275 -308 -325l-117 98
c60 72 169 200 312 342z" />
    <glyph glyph-name="Ugrave" unicode="&#xd9;" 
d="M770 1502l-68 -148c-143 47 -411 203 -522 315l123 146c115 -108 324 -265 467 -313zM777 1313l157 -13c-9 -60 -9 -103 -9 -157c0 -145 2 -272 2 -383v-58c0 -232 -4 -454 -116 -583c-82 -95 -190 -124 -319 -129c-308 0 -406 166 -424 457c-5 75 -7 197 -7 332
c0 172 3 365 9 523h158c-4 -165 -8 -389 -8 -574c0 -123 2 -229 7 -289c18 -210 100 -298 252 -298c106 5 158 28 212 84c67 74 78 280 78 477c0 123 -5 269 -5 439c0 71 3 110 13 172z" />
    <glyph glyph-name="Uacute" unicode="&#xda;" 
d="M260 1484c143 48 352 205 467 313l123 -146c-111 -112 -379 -268 -522 -315zM777 1313l157 -13c-9 -60 -9 -103 -9 -157c0 -145 2 -272 2 -383v-58c0 -232 -4 -454 -116 -583c-82 -95 -190 -124 -319 -129c-308 0 -406 166 -424 457c-5 75 -7 197 -7 332
c0 172 3 365 9 523h158c-4 -165 -8 -389 -8 -574c0 -123 2 -229 7 -289c18 -210 100 -298 252 -298c106 5 158 28 212 84c67 74 78 280 78 477c0 123 -5 269 -5 439c0 71 3 110 13 172z" />
    <glyph glyph-name="Ucircumflex" unicode="&#xdb;" 
d="M510 1799l375 -328l-107 -107l-271 221l-261 -221l-104 107zM777 1313l157 -13c-9 -60 -9 -103 -9 -157c0 -145 2 -272 2 -383v-58c0 -232 -4 -454 -116 -583c-82 -95 -190 -124 -319 -129c-308 0 -406 166 -424 457c-5 75 -7 197 -7 332c0 172 3 365 9 523h158
c-4 -165 -8 -389 -8 -574c0 -123 2 -229 7 -289c18 -210 100 -298 252 -298c106 5 158 28 212 84c67 74 78 280 78 477c0 123 -5 269 -5 439c0 71 3 110 13 172z" />
    <glyph glyph-name="Udieresis" unicode="&#xdc;" 
d="M183 1652l235 -3v-225l-235 3v225zM589 1649l235 -3v-225l-235 3v225zM777 1313l157 -13c-9 -60 -9 -103 -9 -157c0 -145 2 -272 2 -383v-58c0 -232 -4 -454 -116 -583c-82 -95 -190 -124 -319 -129c-308 0 -406 166 -424 457c-5 75 -7 197 -7 332c0 172 3 365 9 523h158
c-4 -165 -8 -389 -8 -574c0 -123 2 -229 7 -289c18 -210 100 -298 252 -298c106 5 158 28 212 84c67 74 78 280 78 477c0 123 -5 269 -5 439c0 71 3 110 13 172z" />
    <glyph glyph-name="Yacute" unicode="&#xdd;" 
d="M230 1496c143 48 352 205 467 313l123 -146c-111 -112 -379 -268 -522 -315zM399 -6v141c0 90 7 347 7 466c-79 111 -322 550 -373 656l140 71c40 -77 232 -432 319 -569c98 139 298 495 336 582l139 -79c-47 -94 -120 -236 -225 -404c-87 -131 -157 -242 -176 -268
c0 -47 -2 -95 -2 -149c-3 -132 -5 -274 -5 -316v-131h-160z" />
    <glyph glyph-name="ntilde" unicode="&#xf1;" 
d="M367.5 1402c148 0 206 -121 296 -121c64 0 133 39 147 127l148 -52c-32 -120 -149 -228 -281 -228c-140 0 -197 121 -298 121c-59 0 -117 -9 -155 -115l-138 74c74 164 171 194 281 194zM270 927c126 66 218 95 328 95c120 0 299 -77 299 -226v-585
c0 -66 50 -88 106 -118l-84 -112c-88 43 -180 94 -180 223v561c0 74 -97 107 -163 107c-64 0 -160 -42 -306 -112v-760l-158 -1v706c0 178 -8 204 -32 298l160 37c10 -24 22 -64 30 -113z" />
    <glyph glyph-name="ograve" unicode="&#xf2;" 
d="M698 1214l-68 -148c-143 47 -411 203 -522 315l123 146c115 -108 324 -265 467 -313zM654 215c65 61 89 167 89 315v18c-2 184 -66 330 -243 330c-208 0 -270 -165 -270 -409c0 -195 87 -313 254 -313c76 1 120 17 170 59zM482 1c-272 1 -410 183 -410 463
c0 292 102 568 394 568c197 0 307 -69 377 -201c41 -79 59 -192 59 -288c0 -285 -96 -542 -418 -542h-2z" />
    <glyph glyph-name="oacute" unicode="&#xf3;" 
d="M242 1214c143 48 352 205 467 313l123 -146c-111 -112 -379 -268 -522 -315zM654 215c65 61 89 167 89 315v18c-2 184 -66 330 -243 330c-208 0 -270 -165 -270 -409c0 -195 87 -313 254 -313c76 1 120 17 170 59zM482 1c-272 1 -410 183 -410 463c0 292 102 568 394 568
c197 0 307 -69 377 -201c41 -79 59 -192 59 -288c0 -285 -96 -542 -418 -542h-2z" />
    <glyph glyph-name="ocircumflex" unicode="&#xf4;" 
d="M493 1493l375 -328l-107 -107l-271 221l-261 -221l-104 107zM654 215c65 61 89 167 89 315v18c-2 184 -66 330 -243 330c-208 0 -270 -165 -270 -409c0 -195 87 -313 254 -313c76 1 120 17 170 59zM482 1c-272 1 -410 183 -410 463c0 292 102 568 394 568
c197 0 307 -69 377 -201c41 -79 59 -192 59 -288c0 -285 -96 -542 -418 -542h-2z" />
    <glyph glyph-name="otilde" unicode="&#xf5;" 
d="M348 1373c148 0 206 -121 296 -121c64 0 133 39 147 127l148 -52c-32 -120 -149 -228 -281 -228c-140 0 -197 121 -298 121c-59 0 -117 -9 -155 -115l-138 74c74 164 171 194 281 194zM654 215c65 61 89 167 89 315v18c-2 184 -66 330 -243 330
c-208 0 -270 -165 -270 -409c0 -195 87 -313 254 -313c76 1 120 17 170 59zM482 1c-272 1 -410 183 -410 463c0 292 102 568 394 568c197 0 307 -69 377 -201c41 -79 59 -192 59 -288c0 -285 -96 -542 -418 -542h-2z" />
    <glyph glyph-name="odieresis" unicode="&#xf6;" 
d="M185 1403l235 -3v-225l-235 3v225zM591 1400l235 -3v-225l-235 3v225zM654 215c65 61 89 167 89 315v18c-2 184 -66 330 -243 330c-208 0 -270 -165 -270 -409c0 -195 87 -313 254 -313c76 1 120 17 170 59zM482 1c-272 1 -410 183 -410 463c0 292 102 568 394 568
c197 0 307 -69 377 -201c41 -79 59 -192 59 -288c0 -285 -96 -542 -418 -542h-2z" />
    <glyph glyph-name="oslash" unicode="&#xf8;" 
d="M241 356l414 465c-37 36 -88 57 -155 57c-208 0 -270 -165 -270 -409c0 -41 3 -79 11 -113zM855 804c33 -77 47 -175 47 -261c0 -285 -96 -542 -418 -542h-2c-114 1 -204 32 -270 90l-91 -100l-111 104l109 123c-31 69 -47 152 -47 246c0 292 102 568 394 568
c132 0 226 -31 294 -92l113 127l120 -111zM654 215c65 61 89 167 89 315v18c0 42 -3 82 -11 119l-412 -455c41 -36 96 -56 164 -56c76 1 120 17 170 59z" />
    <glyph glyph-name="ugrave" unicode="&#xf9;" 
d="M676 1212l-68 -148c-143 47 -411 203 -522 315l123 146c115 -108 324 -265 467 -313zM906 -10c-57 41 -111 82 -133 168c-84 -86 -181 -153 -331 -156h-9c-62 0 -147 1 -207 42c-45 31 -112 88 -112 170c-3 268 4 697 -23 780l160 27c22 -92 17 -405 19 -771
c6 -34 28 -60 50 -76c14 -10 65 -18 106 -18c67 3 108 11 159 42c47 28 116 58 154 146v676h158v-781c2 -52 51 -100 91 -132z" />
    <glyph glyph-name="uacute" unicode="&#xfa;" 
d="M288 1214c143 48 352 205 467 313l123 -146c-111 -112 -379 -268 -522 -315zM906 -10c-57 41 -111 82 -133 168c-84 -86 -181 -153 -331 -156h-9c-62 0 -147 1 -207 42c-45 31 -112 88 -112 170c-3 268 4 697 -23 780l160 27c22 -92 17 -405 19 -771c6 -34 28 -60 50 -76
c14 -10 65 -18 106 -18c67 3 108 11 159 42c47 28 116 58 154 146v676h158v-781c2 -52 51 -100 91 -132z" />
    <glyph glyph-name="ucircumflex" unicode="&#xfb;" 
d="M497 1502l375 -328l-107 -107l-271 221l-261 -221l-104 107zM906 -10c-57 41 -111 82 -133 168c-84 -86 -181 -153 -331 -156h-9c-62 0 -147 1 -207 42c-45 31 -112 88 -112 170c-3 268 4 697 -23 780l160 27c22 -92 17 -405 19 -771c6 -34 28 -60 50 -76
c14 -10 65 -18 106 -18c67 3 108 11 159 42c47 28 116 58 154 146v676h158v-781c2 -52 51 -100 91 -132z" />
    <glyph glyph-name="udieresis" unicode="&#xfc;" 
d="M197 1409l235 -3v-225l-235 3v225zM603 1406l235 -3v-225l-235 3v225zM906 -10c-57 41 -111 82 -133 168c-84 -86 -181 -153 -331 -156h-9c-62 0 -147 1 -207 42c-45 31 -112 88 -112 170c-3 268 4 697 -23 780l160 27c22 -92 17 -405 19 -771c6 -34 28 -60 50 -76
c14 -10 65 -18 106 -18c67 3 108 11 159 42c47 28 116 58 154 146v676h158v-781c2 -52 51 -100 91 -132z" />
    <glyph glyph-name="plusminus" unicode="&#xb1;" 
d="M82 822c173 -10 243 -11 344 -11l2 361l160 -1l-2 -361c155 3 153 9 342 9h17v-150h-17c-186 0 -184 -6 -342 -11v-11c0 -106 -2 -214 -2 -304c164 -3 178 -5 344 -8l17 -1v-150l-17 1c-209 3 -281 7 -502 7c-132 0 -159 -1 -319 -6h-18v150h17c161 4 197 8 318 8
c0 93 2 199 2 305v10c-107 0 -166 3 -344 13v150z" />
    <glyph glyph-name="divide" unicode="&#xf7;" 
d="M101 437l-5 157c159 5 284 6 362 6c138 0 203 -3 413 -6h17l-1 -157h-18c-213 3 -277 7 -414 7c-76 0 -202 -3 -354 -7zM355 258h250v-270h-250v270zM353 1026h251v-269h-251v269z" />
    <glyph glyph-name="yacute" unicode="&#xfd;" 
d="M289 1214c143 48 352 205 467 313l123 -146c-111 -112 -379 -268 -522 -315zM336 -223c106 0 160 185 198 291c-94 328 -213 645 -351 769c-33 30 -74 31 -110 31v153c33 0 83 -4 111 -8c167 -25 329 -401 442 -726c74 217 140 506 148 733h158c0 -60 -5 -117 -14 -168
c-65 -353 -166 -683 -298 -994c-53 -135 -131 -234 -280 -234c-175 0 -284 106 -284 376h156c0 -177 44 -223 124 -223z" />
    <glyph glyph-name="ydieresis" unicode="&#xff;" 
d="M189 1402l235 -3v-225l-235 3v225zM595 1399l235 -3v-225l-235 3v225zM336 -223c106 0 160 185 198 291c-94 328 -213 645 -351 769c-33 30 -74 31 -110 31v153c33 0 83 -4 111 -8c167 -25 329 -401 442 -726c74 217 140 506 148 733h158c0 -60 -5 -117 -14 -168
c-65 -353 -166 -683 -298 -994c-53 -135 -131 -234 -280 -234c-175 0 -284 106 -284 376h156c0 -177 44 -223 124 -223z" />
    <glyph glyph-name="OE" unicode="&#x152;" 
d="M463 146l1 1024c-261 0 -300 -219 -300 -592c0 -226 4 -429 254 -434c16 0 32 1 45 2zM811 153c59 2 87 10 132 26l38 -146c-106 -29 -203 -34 -314 -34c-47 0 -97 1 -152 1c-17 -7 -112 -8 -127 -8c-306 12 -377 299 -377 605c0 436 98 733 433 733c26 0 54 -2 80 -7
c59 3 122 3 185 3c85 0 171 -1 253 -1v-155c-92 0 -150 1 -221 1c-35 0 -74 0 -121 -1v-335h275v-153h-275c0 -202 -4 -450 -4 -529h195z" />
    <glyph glyph-name="yen" unicode="&#xa5;" 
d="M403 374h-112c-67 0 -137 -1 -213 -5v162h17c123 4 215 7 311 7v75c-11 15 -23 35 -38 59c-77 1 -173 7 -288 14v64c0 32 0 63 2 94c69 -4 138 -7 191 -9c-96 171 -207 379 -240 448l140 72c34 -70 189 -358 284 -522h74c105 166 264 457 297 535l139 -80
c-47 -96 -120 -242 -225 -413l-24 -36c58 2 119 3 194 3h18v-159h-18c-119 0 -204 -5 -299 -8c-23 -35 -39 -62 -47 -73c0 -22 0 -43 -1 -65c117 -2 221 -5 343 -7h17l-3 -162h-18c-120 2 -226 5 -342 6c-2 -110 -3 -211 -3 -246v-134h-160v149c0 49 2 139 4 231z" />
    <glyph glyph-name="Ntilde" unicode="&#xd1;" 
d="M359 1652c148 0 206 -121 296 -121c64 0 133 39 147 127l148 -52c-32 -120 -149 -228 -281 -228c-140 0 -197 121 -298 121c-59 0 -117 -9 -155 -115l-138 74c74 164 171 194 281 194zM752 -6c-163 357 -317 654 -519 1007v-204c0 -293 1 -648 1 -800h-159v1301l159 -4
c126 -184 402 -689 519 -937c-2 130 -3 266 -3 400c0 186 3 369 12 540h154c-6 -113 -8 -262 -8 -425c0 -226 4 -480 4 -710c0 -57 -1 -114 -1 -167z" />
    <glyph glyph-name="Eth" unicode="&#xd0;" 
d="M76 921v56c0 129 -4 252 -13 340c81 8 126 14 225 14c271 0 427 -82 550 -265c84 -127 131 -305 131 -486c0 -69 -8 -138 -21 -204c-48 -241 -209 -362 -389 -379c-55 -5 -106 -7 -161 -7c-84 0 -217 7 -331 7c0 34 0 33 3 131c0 48 5 355 6 645h-72v148h72zM309 1176
h-30c-16 0 -28 0 -45 -3c1 -26 1 -56 1 -87c0 -52 -1 -108 -1 -165h366l1 -148h-367c-1 -272 -3 -540 -4 -626c88 -3 133 -3 193 -3c169 0 295 26 360 209c16 46 27 136 27 191c0 162 -36 332 -101 429c-89 131 -179 203 -400 203z" />
    <glyph glyph-name="currency" unicode="&#xa4;" 
d="M687 522c0 128 -55 213 -140 221l-15 -2c-105 -11 -152 -115 -152 -279c0 -137 41 -207 149 -207s158 113 158 267zM215 461v7c0 88 20 168 45 229l-141 152l119 106l117 -127c48 50 101 70 171 73h17c83 0 135 -21 186 -68l112 113l113 -99l-136 -150
c23 -57 32 -115 32 -177c-2 -103 -16 -168 -51 -236l145 -155l-118 -106l-125 136c-50 -39 -111 -61 -177 -61c-84 1 -137 29 -185 69l-125 -124l-107 99l133 157c-21 55 -25 104 -25 162z" />
    <glyph glyph-name="sterling" unicode="&#xa3;" 
d="M308 186c-33 30 -51 68 -74 83c-10 -7 -23 -38 -23 -68v-6c2 -42 15 -56 31 -56c22 0 50 27 66 47zM861 691c-74 -9 -157 -9 -255 -9h-116c18 -93 35 -187 36 -297c0 -52 -7 -107 -19 -155c94 -61 147 -93 236 -93c93 0 96 17 96 77v15l156 2v-41
c-4 -136 -85 -205 -226 -206c-118 0 -218 41 -327 111c-48 -66 -133 -108 -220 -108c-100 0 -162 93 -162 205c0 101 31 178 103 220c17 9 36 12 51 12h9c59 0 111 -55 144 -90c2 20 2 41 2 63c-1 106 -19 192 -38 288c-52 2 -97 2 -142 2h-17v152h129
c-13 71 -24 138 -24 204c0 205 112 308 301 308c147 0 236 -106 267 -233l-147 -43c-16 62 -39 121 -120 123h-6c-117 0 -137 -82 -137 -147c0 -54 15 -151 26 -217l147 3h57c74 0 140 1 196 7v-153z" />
    <glyph glyph-name="cent" unicode="&#xa2;" 
d="M506 284h2c92 0 167 34 193 70l11 16l137 -83l-12 -16c-52 -77 -147 -124 -255 -136v-144h-160v148c-46 9 -96 25 -141 55c-104 70 -139 162 -139 296v11c0 123 38 204 79 252c56 64 128 98 201 112v168h162v-166c117 -17 184 -81 217 -172l-158 -57l-4 23
c-11 53 -47 59 -126 59c-61 0 -125 -18 -162 -63c-19 -22 -47 -61 -47 -143c0 -130 60 -231 185 -231c6 0 11 1 17 1z" />
    <glyph glyph-name="percent" unicode="%" 
d="M36 39c206 364 601 938 854 1285l131 -96c-252 -339 -629 -880 -835 -1271zM476 254c0 142 116 258 258 258s258 -116 258 -258s-116 -258 -258 -258s-258 116 -258 258zM626 254c0 -60 48 -108 108 -108s108 48 108 108s-48 108 -108 108s-108 -48 -108 -108zM33 1031
c0 142 116 258 258 258s258 -116 258 -258s-116 -258 -258 -258s-258 116 -258 258zM183 1031c0 -60 48 -108 108 -108s108 48 108 108s-48 108 -108 108s-108 -48 -108 -108z" />
    <glyph glyph-name="guillemotleft" unicode="&#xab;" 
d="M421 576c145 100 266 269 306 402l153 -57c-47 -142 -138 -288 -268 -405c122 -106 201 -229 246 -382l6 -18l-155 -53c-48 163 -132 280 -288 387v126zM71 574c144 130 307 262 330 402l156 -37c-40 -189 -176 -312 -301 -421c128 -118 238 -237 283 -409l-152 -54
c-38 149 -158 263 -316 404v115z" />
    <glyph glyph-name="guillemotright" unicode="&#xbb;" 
d="M580.722 444.578c-144.178 -101.183 -263.792 -271.166 -302.703 -404.488l-153.461 55.7471c45.8379 142.38 135.641 289.119 264.681 407.178c-122.862 104.999 -202.865 227.35 -249.114 379.977l-6.14746 17.9502l154.562 54.2656
c49.3311 -162.603 134.284 -278.912 291.154 -384.634zM930.694 449.438c-142.933 -131.173 -304.849 -264.501 -326.703 -404.684l-156.298 35.7236c38.4541 189.32 173.444 313.428 297.549 423.446c-128.96 116.949 -239.929 235.047 -286.333 406.673l151.553 55.2412
c39.2168 -148.685 160.145 -261.7 319.292 -401.404z" />
    <glyph glyph-name="section" unicode="&#xa7;" 
d="M679 319c48 20 56 39 56 73v17c-3 21 -12 43 -37 66c-101 92 -238 165 -354 247c-61 -25 -66 -43 -66 -85c0 -20 16 -46 41 -68c101 -93 244 -170 360 -250zM163 1040c0 218 178 328 331 328c172 0 309 -97 313 -287l-151 -1c-3 62 -16 75 -48 103c-26 20 -62 30 -114 30
c-89 -2 -175 -61 -175 -158c0 -122 46 -140 173 -228c92 -64 214 -129 314 -233c51 -50 92 -117 92 -189c0 -105 -35 -159 -99 -207c35 -50 55 -115 57 -192v-9c0 -220 -185 -319 -340 -319c-175 0 -313 97 -318 291l155 1c9 -60 17 -81 49 -105c25 -19 63 -32 113 -32
c92 3 180 55 180 158c0 18 -2 39 -8 64c-12 46 -73 104 -167 165c-96 61 -216 128 -317 230c-49 53 -83 118 -83 191c0 104 43 153 106 200c-36 52 -63 130 -63 199z" />
    <glyph glyph-name="braceleft" unicode="{" 
d="M275 530v160c121 34 249 75 249 209c0 30 -7 64 -21 104c-24 65 -53 137 -53 208c0 50 15 100 55 147c93 108 242 120 375 126l5 -158c-145 -7 -266 -7 -266 -124c0 -101 61 -194 61 -309c0 -150 -101 -260 -197 -283c96 -23 197 -133 197 -283c0 -115 -61 -208 -61 -309
c0 -117 121 -115 266 -122l-5 -158c-133 6 -282 16 -375 124c-40 47 -55 97 -55 147c0 71 29 143 53 208c14 40 21 74 21 104c0 134 -128 175 -249 209z" />
    <glyph glyph-name="bar" unicode="|" 
d="M390 152c0 365 -9 959 -9 1247v93h160v-145c0 -277 12 -789 12 -1123v-150c0 -115 -1 -171 -6 -272l-161 1c4 62 5 105 5 160c0 47 -1 103 -1 189z" />
    <glyph glyph-name="braceright" unicode="}" 
d="M783 530c-121 -34 -249 -75 -249 -209c0 -30 7 -64 21 -104c24 -65 53 -137 53 -208c0 -50 -15 -100 -55 -147c-93 -108 -242 -118 -375 -124l-5 158c145 7 266 5 266 122c0 101 -61 194 -61 309c0 150 101 260 197 283c-96 23 -197 133 -197 283c0 115 61 208 61 309
c0 117 -121 117 -266 124l5 158c133 -6 282 -18 375 -126c40 -47 55 -97 55 -147c0 -71 -29 -143 -53 -208c-14 -40 -21 -74 -21 -104c0 -134 128 -175 249 -209v-160z" />
    <glyph glyph-name="at" unicode="@" 
d="M456 501c0 -105 46 -165 112 -165c98 0 192 140 216 199v95c-48 41 -126 63 -190 63c-95 0 -138 -72 -138 -192zM809 309c-59 -63 -115 -125 -241 -125c-135 0 -268 141 -268 307c0 216 124 362 285 362c69 0 145 -17 199 -66c0 157 -9 352 -232 352
c-221 0 -368 -216 -368 -638c0 -308 156 -579 395 -579c48 0 96 17 153 53l60 -135c-80 -42 -155 -64 -225 -64c-324 0 -526 369 -526 719c0 506 206 795 509 795c300 0 392 -244 392 -452v-330v-29c0 -76 3 -159 58 -241l-151 -64c-21 36 -33 83 -40 135z" />
    <glyph glyph-name="brokenbar" unicode="&#xa6;" 
d="M553 528c2 -111 4 -285 4 -373c0 -201 0 -220 -7 -350l-161 1c4 74 5 104 5 165v147c0 98 -2 286 -4 410h163zM388 775c-4 267 -7 464 -7 624v93h160v-126c0 -149 5 -341 9 -591h-162z" />
    <glyph glyph-name="copyright" unicode="&#xa9;" 
d="M157 593c0 -229.9 172.52 -413.955 385.9 -413.955c213.38 0 377.899 184.055 377.899 413.955s-164.52 414 -377.899 414c-213.381 0 -385.9 -184.1 -385.9 -414zM16.0898 592.24c0 305.728 234.351 554.194 523.2 554.194c288.85 0 523.2 -248.467 523.2 -554.194
s-234.351 -553.173 -523.2 -553.173c-288.85 0 -523.2 247.445 -523.2 553.173zM550 746c-79 0 -121 -72 -121 -165c0 -64 36 -146 120 -146c55 0 92 11 120 69l123 -68c-69 -123 -181 -138 -244 -138c-121 0 -260 75 -260 281c0 180 106 304 265 304c72 0 182 -39 225 -131
l-121 -72c-28 47 -45 66 -107 66z" />
    <glyph glyph-name="registered" unicode="&#xae;" 
d="M646 524c26 -53 110 -140 148 -149l-72 -100c-91 33 -186 180 -208 231c-31 4 -73 18 -73 18l1 -241h-115v453c0 54 -1 91 -4 140c80 13 152 22 214 22c150 0 242 -51 242 -212c0 -61 -56 -137 -133 -162zM661 684c0 59 -30 89 -122 89c-27 0 -60 -2 -99 -8l1 -120
c47 -21 86 -30 117 -30c70 0 103 41 103 69zM157 593c0 -229.9 172.52 -413.955 385.9 -413.955c213.38 0 377.899 184.055 377.899 413.955s-164.52 414 -377.899 414c-213.381 0 -385.9 -184.1 -385.9 -414zM16.0898 592.24c0 305.728 234.351 554.194 523.2 554.194
c288.85 0 523.2 -248.467 523.2 -554.194s-234.351 -553.173 -523.2 -553.173c-288.85 0 -523.2 247.445 -523.2 553.173z" />
    <glyph glyph-name="germandbls" unicode="&#xdf;" 
d="M80 1003c0 156 111 325 310 325c203 0 364 -95 364 -317c0 -102 -28 -179 -84 -232c177 -49 274 -181 274 -398c0 -210 -100 -383 -320 -383c-187 0 -334 96 -334 299c0 8 1 16 1 24h155c2 -129 29 -170 178 -170c135 0 166 110 166 244c0 261 -209 274 -497 274v153
c165 0 308 0 308 183c0 113 -74 171 -211 171c-96 -1 -157 -93 -157 -183c0 -156 5 -356 5 -543c0 -124 -2 -242 -10 -339c-7 -81 -59 -120 -115 -148l-86 124c15 7 29 14 40 26c9 10 21 27 21 111c0 0 1 113 1 224c0 187 -9 381 -9 555z" />
    <glyph glyph-name="ampersand" unicode="&#x26;" 
d="M655 245c-107 142 -204 276 -304 403c-78 -69 -145 -157 -145 -272c0 -149 103 -243 218 -243c100 0 179 52 231 112zM553 1069c0 88 -53 125 -128 125c-68 0 -135 -73 -135 -150c0 -72 48 -132 93 -185c74 52 110 91 133 122c26 35 37 60 37 88zM985 64l-122 -96
c-15 20 -61 79 -113 148c-91 -98 -201 -138 -331 -138c-208 0 -372 151 -372 389c0 179 92 314 206 404c-48 58 -121 150 -121 266c0 169 133 310 294 310c145 0 284 -90 284 -262c0 -162 -119 -258 -236 -344c87 -113 173 -224 261 -343c22 70 25 141 25 250l149 -1
c0 -167 -21 -311 -72 -392c40 -51 125 -160 148 -191z" />
    <glyph glyph-name="uni00B5" unicode="&#xb5;" 
d="M906 -10c-57 41 -111 82 -133 168c-84 -86 -181 -153 -331 -156h-9c-48 0 -110 0 -164 20l-3 -422h-157l5 614c-3 268 4 697 -23 780l160 27c22 -92 17 -405 19 -771c6 -34 28 -60 50 -76c14 -10 65 -18 106 -18c67 3 108 11 159 42c47 28 116 58 154 146l1 676h158
l-1 -781c2 -52 51 -100 91 -132z" />
    <glyph glyph-name="paragraph" unicode="&#xb6;" 
d="M755 1041v128c-41 1 -81 4 -134 5c1 -330 0 -662 3 -990c0 -139 -42 -214 -42 -214l-154 52s41 63 41 207l-2 244c-168 12 -285 53 -364 168c-60 89 -67 190 -67 283c0 92 19 184 73 250c115 141 286 154 511 154c133 0 171 -8 289 -8v-1329l-152 -1
c0 335 -2 607 -2 1051z" />
    <glyph glyph-name="periodcentered" unicode="&#xb7;" 
d="M481 656h251v-269h-251v269z" />
    <glyph glyph-name="questiondown" unicode="&#xbf;" 
d="M417 -318c-231 0 -343 132 -343 344c0 159 119 257 197 323c52 44 109 111 109 193v46h175v-44c0 -120 -52 -198 -136 -272c-100 -89 -185 -136 -185 -242c0 -112 59 -193 191 -193c124 0 223 61 225 193c0 47 -29 93 -55 125l134 90c41 -60 78 -125 78 -210
c0 -243 -183 -353 -390 -353zM589 749h-250v270h250v-270z" />
    <glyph glyph-name="dieresis" unicode="&#xa8;" 
d="M139 1315l235 -3v-225l-235 3v225zM545 1312l235 -3v-225l-235 3v225z" />
    <glyph glyph-name="acute" unicode="&#xb4;" 
d="M221 1349c143 48 318 160 433 268l110 -147c-111 -112 -333 -222 -476 -269z" />
    <glyph glyph-name="degree" unicode="&#xb0;" 
d="M197 1096c0 142 116 258 258 258s258 -116 258 -258s-116 -258 -258 -258s-258 116 -258 258zM347 1096c0 -60 48 -108 108 -108s108 48 108 108s-48 108 -108 108s-108 -48 -108 -108z" />
    <glyph glyph-name="macron" unicode="&#xaf;" 
d="M228 1340c36 -4 79 -5 125 -5s97 1 148 1h181v-152h-17c-58 -2 -128 -2 -202 -2h-81c-53 0 -105 0 -154 3v155z" />
    <glyph glyph-name="dotlessi" unicode="&#x131;" 
d="M417 1013h116c0 -273 1 -803 1 -803c5 -82 49 -86 141 -86c93 0 217 21 286 73l68 -114c-86 -71 -229 -101 -353 -101c-85 0 -161 14 -205 38c-85 47 -93 127 -93 186v651c-49 0 -163 -6 -258 -28l-29 142c112 26 222 42 326 42z" />
    <glyph glyph-name="Amacron" unicode="&#x100;" 
d="M750 1539v-152h-17c-58 -2 -128 -2 -202 -2s-149 0 -217 2l-18 1v155l19 -2c65 -2 162 -2 254 -2h164h17zM716 505l-194 587l-186 -607c60 13 116 13 199 17zM434 1301h171l378 -1129c11 -37 29 -118 31 -172h-164c0 23 -12 95 -20 122l-70 210c-141 -3 -362 -5 -473 -32
l-59 -179c-10 -29 -24 -93 -24 -121h-162c1 28 19 116 32 159z" />
    <glyph glyph-name="amacron" unicode="&#x101;" 
d="M693 1335.9v-152h-17c-58 -2 -128 -2 -202 -2s-149 0 -217 2l-18 1v155l19 -2c65 -2 162 -2 254 -2h164h17zM234 311c0 -105 56 -165 149 -165c210 0 315 158 341 199v95c-57 35 -131 64 -235 64c-136 -1 -255 -75 -255 -193zM881 318c0 -35 0 -128 13 -145
c13 -18 50 -41 79 -64l-83 -119c-52 40 -112 65 -130 166c-78 -75 -180 -162 -377 -162c-171 0 -305 141 -305 307c0 76 30 165 89 226c95 97 196 121 314 121c126 0 189 -18 243 -51c0 189 -69 280 -239 280c-138 0 -201 -30 -281 -173l-130 82c96 182 230 242 409 242
c242 0 398 -155 398 -380v-330z" />
    <glyph glyph-name="Cacute" unicode="&#x106;" 
d="M324 1494c143 48 352 205 467 313l123 -146c-111 -112 -379 -268 -522 -315zM569 1152c-115 0 -204 -65 -252 -132c-45 -65 -102 -181 -102 -395c0 -164 31 -310 129 -401c62 -58 110 -73 192 -73h14c147 5 233 79 284 191l139 -76c-74 -155 -208 -269 -398 -269h-3
c-111 0 -243 25 -337 117c-120 122 -179 286 -179 509c0 254 81 410 133 486c72 106 208 197 383 197c140 0 268 -84 356 -243l-136 -81c-61 120 -137 170 -223 170z" />
    <glyph glyph-name="cacute" unicode="&#x107;" 
d="M326 1212c143 48 352 205 467 313l123 -146c-111 -112 -379 -268 -522 -315zM230 527c0 -370 207 -377 317 -377h13c156 0 231 65 283 152l126 -91c-33 -42 -126 -218 -405 -218c-104 0 -227 8 -323 80c-130 101 -170 255 -170 454c0 367 178 491 493 491
c95 0 169 -24 229 -70c61 -47 92 -107 114 -159l-154 -60c-11 41 -40 136 -200 136c-221 0 -323 -99 -323 -338z" />
    <glyph glyph-name="Ccircumflex" unicode="&#x108;" 
d="M554 1772l375 -328l-107 -107l-271 221l-261 -221l-104 107zM569 1152c-115 0 -204 -65 -252 -132c-45 -65 -102 -181 -102 -395c0 -164 31 -310 129 -401c62 -58 110 -73 192 -73h14c147 5 233 79 284 191l139 -76c-74 -155 -208 -269 -398 -269h-3
c-111 0 -243 25 -337 117c-120 122 -179 286 -179 509c0 254 81 410 133 486c72 106 208 197 383 197c140 0 268 -84 356 -243l-136 -81c-61 120 -137 170 -223 170z" />
    <glyph glyph-name="ccircumflex" unicode="&#x109;" 
d="M525 1490l375 -328l-107 -107l-271 221l-261 -221l-104 107zM230 527c0 -370 207 -377 317 -377h13c156 0 231 65 283 152l126 -91c-33 -42 -126 -218 -405 -218c-104 0 -227 8 -323 80c-130 101 -170 255 -170 454c0 367 178 491 493 491c95 0 169 -24 229 -70
c61 -47 92 -107 114 -159l-154 -60c-11 41 -40 136 -200 136c-221 0 -323 -99 -323 -338z" />
    <glyph glyph-name="Cdotaccent" unicode="&#x10a;" 
d="M439 1649l236 -3v-225l-236 3v225zM569 1152c-115 0 -204 -65 -252 -132c-45 -65 -102 -181 -102 -395c0 -164 31 -310 129 -401c62 -58 110 -73 192 -73h14c147 5 233 79 284 191l139 -76c-74 -155 -208 -269 -398 -269h-3c-111 0 -243 25 -337 117
c-120 122 -179 286 -179 509c0 254 81 410 133 486c72 106 208 197 383 197c140 0 268 -84 356 -243l-136 -81c-61 120 -137 170 -223 170z" />
    <glyph glyph-name="cdotaccent" unicode="&#x10b;" 
d="M405 1403h235v-225h-235v225zM230 527c0 -370 207 -377 317 -377h13c156 0 231 65 283 152l126 -91c-33 -42 -126 -218 -405 -218c-104 0 -227 8 -323 80c-130 101 -170 255 -170 454c0 367 178 491 493 491c95 0 169 -24 229 -70c61 -47 92 -107 114 -159l-154 -60
c-11 41 -40 136 -200 136c-221 0 -323 -99 -323 -338z" />
    <glyph glyph-name="Ccaron" unicode="&#x10c;" 
d="M556 1358l-370 318l104 107l267 -218l265 218l106 -107zM569 1152c-115 0 -204 -65 -252 -132c-45 -65 -102 -181 -102 -395c0 -164 31 -310 129 -401c62 -58 110 -73 192 -73h14c147 5 233 79 284 191l139 -76c-74 -155 -208 -269 -398 -269h-3c-111 0 -243 25 -337 117
c-120 122 -179 286 -179 509c0 254 81 410 133 486c72 106 208 197 383 197c140 0 268 -84 356 -243l-136 -81c-61 120 -137 170 -223 170z" />
    <glyph glyph-name="ccaron" unicode="&#x10d;" 
d="M539 1070l-370 318l104 107l267 -218l265 218l106 -107zM230 527c0 -370 207 -377 317 -377h13c156 0 231 65 283 152l126 -91c-33 -42 -126 -218 -405 -218c-104 0 -227 8 -323 80c-130 101 -170 255 -170 454c0 367 178 491 493 491c95 0 169 -24 229 -70
c61 -47 92 -107 114 -159l-154 -60c-11 41 -40 136 -200 136c-221 0 -323 -99 -323 -338z" />
    <glyph glyph-name="Dcaron" unicode="&#x10e;" 
d="M425 1361l-370 318l104 107l267 -218l265 218l106 -107zM309 1152h-30c-16 0 -28 1 -45 -2c1 -25 1 -56 1 -86c0 -62 -1 -130 -1 -198c0 -300 -3 -626 -4 -722c88 -3 133 -3 193 -3c169 0 295 26 360 205c16 45 27 133 27 187c0 159 -36 326 -101 421
c-89 128 -179 198 -400 198zM70 125c0 54 6 443 6 758v74c0 126 -4 248 -13 334c81 8 126 13 225 13c271 0 427 -80 550 -259c84 -124 131 -300 131 -477c0 -68 -8 -135 -21 -200c-48 -236 -209 -354 -389 -371c-55 -5 -106 -7 -161 -7c-84 0 -217 7 -331 7c0 33 0 32 3 128
z" />
    <glyph glyph-name="emacron" unicode="&#x113;" 
d="M739 1333.9v-152h-17c-58 -2 -128 -2 -202 -2s-149 0 -217 2l-18 1v155l19 -2c65 -2 162 -2 254 -2h164h17zM236 580c129 1 386 10 528 26c-16 161 -118 263 -254 263c-170 0 -273 -135 -274 -289zM509 1021c377 0 414 -380 414 -518c0 -20 0 -35 -1 -43
c-280 -19 -508 -31 -686 -33c0 -153 86 -284 290 -284c143 0 227 79 266 133l123 -109c-41 -45 -155 -177 -393 -177c-298 0 -444 213 -444 526c0 286 148 505 431 505z" />
    <glyph glyph-name="Emacron" unicode="&#x112;" 
d="M713 1584v-152h-17c-58 -2 -128 -2 -202 -2s-149 0 -217 2l-18 1v155l19 -2c65 -2 162 -2 254 -2h164h17zM102 1293c56 4 126 4 204 4h98h110c149 0 285 -3 359 -3h16v-150h-629v-328h438v-150h-438v-30c0 -203 -3 -412 -3 -489l525 2c56 0 117 26 117 26l44 -148
c-48 -13 -83 -30 -159 -30h-682v1296z" />
    <glyph glyph-name="asterisk" unicode="*" 
d="M434 688l-4 425l169 1l-2 -427l326 146l74 -138l-363 -153l272 -321l-126 -111l-258 367l-245 -366l-132 105l256 326l-353 142l66 144z" />
    <glyph glyph-name="uni00A0" unicode="&#xa0;" 
 />
    <glyph glyph-name="ordfeminine" unicode="&#xaa;" 
d="M142 675h756v-141h-756v141zM284 991c0 -57 35 -95 99 -95c145 0 225 50 288 160c-35 38 -94 65 -198 65c-125 0 -189 -65 -189 -130zM157.64 1449.41c97.5449 61.9238 210.064 87.5938 325.36 87.5938c219 0 329 -143 329 -356.1l1 -102.9c0 -35 2 -123 15 -140
c13 -18 47 -51 77 -69l-83 -119c-48 30 -84 69 -118 142c-68 -81 -171 -138 -321 -138c-142 0 -241 88 -241 222c0 188 159 268 310 268c94 0 182 -24 218 -51c0 115 -39 202 -185 202c-119 0 -184.458 -13.2354 -256.451 -65.5664z" />
    <glyph glyph-name="logicalnot" unicode="&#xac;" 
d="M147 592c136 7 247 8 349 8h119c82 0 167 -1 274 -2h19v-424h-154v270c-135 3 -135 4 -260 4c-67 0 -189 -1 -341 -9v84z" />
    <glyph glyph-name="uni00AD" unicode="&#xad;" 
d="M147 592c136 7 247 8 349 8h119c82 0 167 -1 274 -2h18v-153h-18c-135 3 -270 3 -395 3c-67 0 -189 -1 -341 -9v84z" />
    <glyph glyph-name="uni00B2" unicode="&#xb2;" 
d="M237 1314c24 149 150 213 299 213c148 0 278 -76 278 -230c0 -148 -79 -188 -255 -279c-73 -38 -143 -69 -152 -107l419 5v-147h-598c-1 32 -2 62 -2 95c0 45 6 76 33 120c35 56 147 105 231 147c169 84 182 115 182 164c0 56 -65 90 -133 90c-102 0 -143 -34 -156 -106z
" />
    <glyph glyph-name="uni00B3" unicode="&#xb3;" 
d="M308 987c58 -64 111 -92 204 -92c117 0 161 44 161 98c0 77 -72 113 -202 113l6 115c15 -1 30 -2 41 -2c83 0 120 39 120 102c0 41 -43 74 -122 74c-66 0 -111 -19 -142 -50l-97 115c53 42 129 70 231 70h11c153 0 251 -81 251 -201c0 -53 -17 -114 -62 -151
c77 -41 112 -104 112 -184c0 -162 -127 -238 -308 -238c-146 0 -224 36 -310 130z" />
    <glyph glyph-name="cedilla" unicode="&#xb8;" 
d="M626 56c-1 -8 -1 -72 -1 -75c97 -5 155 -67 155 -171c0 -101 -100 -168 -184 -168c-66 0 -138 25 -194 61l38 106c33 -18 73 -42 124 -42c36 0 77 20 80 58v2c0 29 -38 54 -86 54s-50 -7 -78 -17v188z" />
    <glyph glyph-name="uni00B9" unicode="&#xb9;" 
d="M553 1527l163 -16v-742h-145l1 556c-72 -79 -196 -150 -321 -192l-43 130c143 38 270 130 345 264z" />
    <glyph glyph-name="ordmasculine" unicode="&#xba;" 
d="M724 1167.9c0 154.1 -64 215.699 -205 215.699c-123 0 -215 -49.5996 -215 -231c0 -146.6 50 -253 199 -253c147 0 221 62.4004 221 268.301zM501 757.6c-233 0 -339 148.4 -339 390c0 270.4 162 378 323 378c273 0 381 -135.6 381 -344.699
c0 -316.9 -108 -423.301 -365 -423.301zM142 675h756v-141h-756v141z" />
    <glyph glyph-name="onequarter" unicode="&#xbc;" 
d="M78 675h893v-141h-893v141zM589 -21v257c-79 -108 -153 -194 -211 -257h211zM205 -16c122 134 270 307 374 453h149v-454l128 3v-148l-128 3l3 -157h-148l3 157h-329zM553 1527l163 -16v-742h-145l1 556c-72 -79 -196 -150 -321 -192l-43 130c143 38 270 130 345 264z
" />
    <glyph glyph-name="onehalf" unicode="&#xbd;" 
d="M78 675h893v-141h-893v141zM237 234c24 149 150 213 299 213c148 0 278 -76 278 -230c0 -148 -79 -188 -255 -279c-73 -38 -143 -69 -152 -107l419 5v-147h-598c-1 32 -2 62 -2 95c0 45 6 76 33 120c35 56 147 105 231 147c169 84 182 115 182 164c0 56 -65 90 -133 90
c-102 0 -143 -34 -156 -106zM553 1527l163 -16v-742h-145l1 556c-72 -79 -196 -150 -321 -192l-43 130c143 38 270 130 345 264z" />
    <glyph glyph-name="threequarters" unicode="&#xbe;" 
d="M78 675h893v-141h-893v141zM589 -21v257c-79 -108 -153 -194 -211 -257h211zM205 -16c122 134 270 307 374 453h149v-454l128 3v-148l-128 3l3 -157h-148l3 157h-329zM308 987c58 -64 111 -92 204 -92c117 0 161 44 161 98c0 77 -72 113 -202 113l6 115
c15 -1 30 -2 41 -2c83 0 120 39 120 102c0 41 -43 74 -122 74c-66 0 -111 -19 -142 -50l-97 115c53 42 129 70 231 70h11c153 0 251 -81 251 -201c0 -53 -17 -114 -62 -151c77 -41 112 -104 112 -184c0 -162 -127 -238 -308 -238c-146 0 -224 36 -310 130z" />
    <glyph glyph-name="Thorn" unicode="&#xde;" 
d="M784 800c0 136 -95 208 -369 208c-61 0 -106 -3 -151 -4v-126c0 -183 -1 -265 -1 -265c36 -1 70 -1 103 -1c286 0 418 20 418 188zM262 -10l-158 1v1303c68 0 111 1 160 3v-140c35 2 75 3 129 3c225 0 364 -14 479 -152c54 -65 74 -154 74 -244
c0 -280 -305 -304 -530 -304c-48 0 -99 1 -153 3c0 -263 -1 -317 -1 -473z" />
    <glyph glyph-name="eth" unicode="&#xf0;" 
d="M601 864c-313 0 -371 -165 -371 -360s87 -348 254 -348c76 1 120 17 170 59c69 64 91 185 91 326c0 125 -55 228 -144 323zM603 1167c177 -254 299 -395 299 -628c0 -260 -96 -538 -418 -538h-2c-272 1 -410 218 -410 498c0 191 57 495 425 519c-10 15 -40 57 -75 106
l-205 -48l-32 136l152 36c-31 46 -56 82 -61 93l157 87c30 -49 58 -94 86 -137l218 53l32 -136z" />
    <glyph glyph-name="thorn" unicode="&#xfe;" 
d="M755 527c0 204 -54 331 -224 331c-137 0 -185 -46 -256 -160v-436c52 -51 109 -114 200 -114c163 0 280 96 280 379zM119 739v378c0 70 -8 136 -19 179l164 20c1 -8 11 -57 11 -91v-303c63 56 143 91 255 91c275 0 382 -199 382 -467c0 -336 -128 -553 -451 -553
c-100 0 -138 32 -186 63v-207c0 -94 9 -178 16 -246l-159 -9c-9 73 -14 169 -14 260z" />
    <glyph glyph-name="Abreve" unicode="&#x102;" 
d="M517 1544c108 0 190 63 196 141l166 -30c-24 -177 -197 -264 -362 -264c-126 0 -308 48 -356 273l156 30c27 -117 107 -150 200 -150zM716 505l-194 587l-186 -607c60 13 116 13 199 17zM434 1301h171l378 -1129c11 -37 29 -118 31 -172h-164c0 23 -12 95 -20 122
l-70 210c-141 -3 -362 -5 -473 -32l-59 -179c-10 -29 -24 -93 -24 -121h-162c1 28 19 116 32 159z" />
    <glyph glyph-name="abreve" unicode="&#x103;" 
d="M474 1241c108 0 190 63 196 141l166 -30c-24 -177 -197 -264 -362 -264c-126 0 -308 48 -356 273l156 30c27 -117 107 -150 200 -150zM234 311c0 -105 56 -165 149 -165c210 0 315 158 341 199v95c-57 35 -131 64 -235 64c-136 -1 -255 -75 -255 -193zM881 318
c0 -35 0 -128 13 -145c13 -18 50 -41 79 -64l-83 -119c-52 40 -112 65 -130 166c-78 -75 -180 -162 -377 -162c-171 0 -305 141 -305 307c0 76 30 165 89 226c95 97 196 121 314 121c126 0 189 -18 243 -51c0 189 -69 280 -239 280c-138 0 -201 -30 -281 -173l-130 82
c96 182 230 242 409 242c242 0 398 -155 398 -380v-330z" />
    <glyph glyph-name="Aogonek" unicode="&#x104;" 
d="M434 1301h171l378 -1129c11 -37 29 -118 31 -172c-105 -85 -335 -155 -335 -238c0 -56 57 -84 121 -84c58 0 99 34 129 56l78 -107c-44 -48 -132 -93 -211 -93c-188 0 -272 93 -272 228c0 178 268 219 322 278c-4 29 -11 65 -16 82l-70 210c-141 -3 -362 -5 -473 -32
l-59 -179c-10 -29 -24 -93 -24 -121h-162c1 28 19 116 32 159zM718 495l-194 587l-186 -607c60 13 116 13 199 17z" />
    <glyph glyph-name="aogonek" unicode="&#x105;" 
d="M948 81c-228 -196 -372 -209 -372 -297c0 -56 56 -83 120 -83c58 0 99 33 129 55l78 -107c-44 -48 -132 -93 -211 -93c-188 0 -271 93 -271 228c0 146 187 197 343 302c-13 20 -26 38 -32 70c-78 -75 -167 -162 -349 -162c-171 0 -305 141 -305 307c0 76 30 165 89 226
c95 97 196 121 314 121c85 0 160 -18 214 -51c0 195 -67 280 -219 280c-138 0 -193 -49 -273 -192l-130 82c96 182 223 258 401 261c225 0 375 -150 375 -371l4 -339c0 -35 2 -126 13 -145c12 -20 53 -69 82 -92zM234 311c0 -105 56 -165 149 -165c180 0 287 158 313 199v95
c-57 35 -137 64 -207 64c-136 0 -255 -75 -255 -193z" />
    <glyph glyph-name="dcaron" unicode="&#x10f;" 
d="M184 478c0 -204 51 -331 214 -331c131 0 177 46 245 160v437c-50 51 -105 114 -193 114c-156 0 -266 -97 -266 -380zM793 267v-26c0 -83 8 -169 17 -234l-157 -19c-4 32 -9 54 -10 96c-60 -56 -138 -91 -245 -91c-264 0 -365 198 -365 466c0 336 122 554 431 554
c96 0 132 -33 178 -64v207c0 94 -8 179 -14 247l153 8c8 -73 13 -168 13 -259zM1070 1363c-38 -112 -64 -221 -110 -372l-152 34c18 142 46 283 68 386z" />
    <glyph glyph-name="Dcroat" unicode="&#x110;" 
d="M76 921v56c0 129 -4 252 -13 340c81 8 126 14 225 14c271 0 427 -82 550 -265c84 -127 131 -305 131 -486c0 -69 -8 -138 -21 -204c-48 -241 -209 -362 -389 -379c-55 -5 -106 -7 -161 -7c-84 0 -217 7 -331 7c0 34 0 33 3 131c0 48 5 355 6 645h-72v148h72zM309 1176
h-30c-16 0 -28 0 -45 -3c1 -26 1 -56 1 -87c0 -52 -1 -108 -1 -165h366l1 -148h-367c-1 -272 -3 -540 -4 -626c88 -3 133 -3 193 -3c169 0 295 26 360 209c16 46 27 136 27 191c0 162 -36 332 -101 429c-89 131 -179 203 -400 203z" />
    <glyph glyph-name="dcroat" unicode="&#x111;" 
d="M877 267v-26c0 -83 8 -169 18 -234l-163 -19c-5 32 -10 54 -11 96c-63 -56 -144 -91 -256 -91c-275 0 -381 198 -381 466c0 336 127 554 450 554c100 0 138 -33 186 -64v169h-320v152h316c-3 49 -7 94 -11 133l159 8c5 -42 9 -90 11 -141h95v-152h-92zM240 478
c0 -204 55 -331 225 -331c137 0 185 46 256 160v437c-52 51 -110 114 -201 114c-163 0 -280 -97 -280 -380z" />
    <glyph glyph-name="Ebreve" unicode="&#x114;" 
d="M510 1530.92c108 0 190 63.6641 196 142.486l166 -30.3164c-24 -178.865 -197 -266.782 -362 -266.782c-126 0 -308 48.5059 -356 275.878l156 30.3154c27 -118.232 107 -151.581 200 -151.581zM102 1293c56 4 126 4 204 4h98h110c149 0 285 -3 359 -3h16v-150h-629v-328
h438v-150h-438v-30c0 -203 -3 -412 -3 -489l525 2c56 0 117 26 117 26l44 -148c-48 -13 -83 -30 -159 -30h-682v1296z" />
    <glyph glyph-name="ebreve" unicode="&#x115;" 
d="M512 1232c108 0 190 63 196 141l166 -30c-24 -177 -197 -264 -362 -264c-126 0 -308 48 -356 273l156 30c27 -117 107 -150 200 -150zM236 580c129 1 386 10 528 26c-16 161 -118 263 -254 263c-170 0 -273 -135 -274 -289zM509 1021c377 0 414 -380 414 -518
c0 -20 0 -35 -1 -43c-280 -19 -508 -31 -686 -33c0 -153 86 -284 290 -284c143 0 227 79 266 133l123 -109c-41 -45 -155 -177 -393 -177c-298 0 -444 213 -444 526c0 286 148 505 431 505z" />
    <glyph glyph-name="Edotaccent" unicode="&#x116;" 
d="M386 1649l236 -3v-225l-236 3v225zM102 1293c56 4 126 4 204 4h98h110c149 0 285 -3 359 -3h16v-150h-629v-328h438v-150h-438v-30c0 -203 -3 -412 -3 -489l525 2c56 0 117 26 117 26l44 -148c-48 -13 -83 -30 -159 -30h-682v1296z" />
    <glyph glyph-name="edotaccent" unicode="&#x117;" 
d="M392 1403h234v-225h-234v225zM236 580c129 1 386 10 528 26c-16 161 -118 263 -254 263c-170 0 -273 -135 -274 -289zM509 1021c377 0 414 -380 414 -518c0 -20 0 -35 -1 -43c-280 -19 -508 -31 -686 -33c0 -153 86 -284 290 -284c143 0 227 79 266 133l123 -109
c-41 -45 -155 -177 -393 -177c-298 0 -444 213 -444 526c0 286 148 505 431 505z" />
    <glyph glyph-name="Eogonek" unicode="&#x118;" 
d="M102 1293c56 4 126 4 204 4h98h110c149 0 285 -3 359 -3h16v-150h-629v-328h438v-150h-438v-30c0 -203 -3 -412 -3 -489l525 2c56 0 117 26 117 26l44 -148c-149 -44 -318 -182 -318 -256c0 -56 56 -83 120 -83c58 0 99 33 129 55l78 -107c-44 -48 -132 -93 -211 -93
c-188 0 -271 93 -271 228c0 88 66 162 151 226h-519v1296z" />
    <glyph glyph-name="eogonek" unicode="&#x119;" 
d="M236 580c129 1 386 15 528 31c-6 156 -118 258 -254 258c-170 0 -273 -135 -274 -289zM509 1021c377 0 414 -380 414 -518c0 -20 0 -35 -1 -43c-280 -19 -508 -31 -686 -33c0 -153 83 -284 269 -284c157 0 245 87 280 143l121 -103c-3 -5 -10 -15 -22 -30
c-170 -229 -360 -293 -360 -369c0 -56 56 -83 120 -83c58 0 99 33 129 55l78 -107c-44 -48 -132 -93 -211 -93c-188 0 -271 93 -271 228c0 100 69 129 168 207c-12 -1 -24 -1 -36 -1c-286 0 -423 213 -423 526c0 286 148 505 431 505z" />
    <glyph glyph-name="Ecaron" unicode="&#x11a;" 
d="M518 1340l-370 318l104 107l267 -218l265 218l106 -107zM102 1293c56 4 126 4 204 4h98h110c149 0 285 -3 359 -3h16v-150h-629v-328h438v-150h-438v-30c0 -203 -3 -412 -3 -489l525 2c56 0 117 26 117 26l44 -148c-48 -13 -83 -30 -159 -30h-682v1296z" />
    <glyph glyph-name="ecaron" unicode="&#x11b;" 
d="M508 1061l-370 318l104 107l267 -218l265 218l106 -107zM236 580c129 1 386 10 528 26c-16 161 -118 263 -254 263c-170 0 -273 -135 -274 -289zM509 1021c377 0 414 -380 414 -518c0 -20 0 -35 -1 -43c-280 -19 -508 -31 -686 -33c0 -153 86 -284 290 -284
c143 0 227 79 266 133l123 -109c-41 -45 -155 -177 -393 -177c-298 0 -444 213 -444 526c0 286 148 505 431 505z" />
    <glyph glyph-name="Gcircumflex" unicode="&#x11c;" 
d="M507 1760l375 -328l-107 -107l-271 221l-261 -221l-104 107zM861 733c46 0 89 3 131 7v-135c0 -435 -123 -556 -301 -602c-45 -10 -109 -11 -151 -11c-364 0 -520 288 -520 636c0 237 53 431 184 558c100 88 214 116 329 116h20c214 -5 348 -113 423 -276l-143 -69
c-52 114 -136 193 -291 193c-84 0 -145 -6 -223 -73c-111 -95 -137 -288 -137 -460c0 -259 78 -470 368 -470c29 0 57 2 83 9c123 28 193 108 193 431c-26 -2 -50 -2 -73 -2c-31 0 -60 1 -89 1c-71 0 -140 -5 -230 -38l-40 145c96 36 200 42 301 42c56 0 112 -2 166 -2z" />
    <glyph glyph-name="gcircumflex" unicode="&#x11d;" 
d="M478 1503l375 -328l-107 -107l-271 221l-261 -221l-104 107zM237 -76c0 -126 75 -156 207 -156h105c115 0 254 41 254 207c0 85 -149 96 -270 96c-9 0 -66 0 -212 -2c-56 -22 -84 -82 -84 -145zM476 557c129 0 228 52 228 149c0 129 -85 168 -212 168
c-136 0 -239 -73 -239 -165c0 -116 93 -152 223 -152zM95 699c0 210 151 327 397 327c115 0 189 -20 254 -60c56 52 109 62 219 62v-164c-12 2 -34 5 -44 5c-35 0 -74 -5 -91 -22c26 -47 30 -89 30 -137c0 -189 -154 -303 -379 -303c-71 0 -134 7 -199 32
c-19 -22 -43 -57 -43 -98c0 -76 54 -118 180 -118c26 0 154 2 181 2c188 0 361 -59 361 -249c0 -259 -174 -364 -418 -364h-103c-211 0 -360 97 -360 306c0 100 32 171 87 219c-57 42 -85 113 -85 191c0 91 32 151 74 199c-34 38 -61 100 -61 172z" />
    <glyph glyph-name="Gbreve" unicode="&#x11e;" 
d="M504 1526c108 0 190 63 196 141l166 -30c-24 -177 -197 -264 -362 -264c-126 0 -308 48 -356 273l156 30c27 -117 107 -150 200 -150zM861 733c46 0 89 3 131 7v-135c0 -435 -123 -556 -301 -602c-45 -10 -109 -11 -151 -11c-364 0 -520 288 -520 636
c0 237 53 431 184 558c100 88 214 116 329 116h20c214 -5 348 -113 423 -276l-143 -69c-52 114 -136 193 -291 193c-84 0 -145 -6 -223 -73c-111 -95 -137 -288 -137 -460c0 -259 78 -470 368 -470c29 0 57 2 83 9c123 28 193 108 193 431c-26 -2 -50 -2 -73 -2
c-31 0 -60 1 -89 1c-71 0 -140 -5 -230 -38l-40 145c96 36 200 42 301 42c56 0 112 -2 166 -2z" />
    <glyph glyph-name="gbreve" unicode="&#x11f;" 
d="M481 1245c108 0 190 63 196 141l166 -30c-24 -177 -197 -264 -362 -264c-126 0 -308 48 -356 273l156 30c27 -117 107 -150 200 -150zM237 -76c0 -126 75 -156 207 -156h105c115 0 254 41 254 207c0 85 -149 96 -270 96c-9 0 -66 0 -212 -2c-56 -22 -84 -82 -84 -145z
M476 557c129 0 228 52 228 149c0 129 -85 168 -212 168c-136 0 -239 -73 -239 -165c0 -116 93 -152 223 -152zM95 699c0 210 151 327 397 327c115 0 189 -20 254 -60c56 52 109 62 219 62v-164c-12 2 -34 5 -44 5c-35 0 -74 -5 -91 -22c26 -47 30 -89 30 -137
c0 -189 -154 -303 -379 -303c-71 0 -134 7 -199 32c-19 -22 -43 -57 -43 -98c0 -76 54 -118 180 -118c26 0 154 2 181 2c188 0 361 -59 361 -249c0 -259 -174 -364 -418 -364h-103c-211 0 -360 97 -360 306c0 100 32 171 87 219c-57 42 -85 113 -85 191c0 91 32 151 74 199
c-34 38 -61 100 -61 172z" />
    <glyph glyph-name="Gdotaccent" unicode="&#x120;" 
d="M419 1652l236 -3v-225l-236 3v225zM861 733c46 0 89 3 131 7v-135c0 -435 -123 -556 -301 -602c-45 -10 -109 -11 -151 -11c-364 0 -520 288 -520 636c0 237 53 431 184 558c100 88 214 116 329 116h20c214 -5 348 -113 423 -276l-143 -69c-52 114 -136 193 -291 193
c-84 0 -145 -6 -223 -73c-111 -95 -137 -288 -137 -460c0 -259 78 -470 368 -470c29 0 57 2 83 9c123 28 193 108 193 431c-26 -2 -50 -2 -73 -2c-31 0 -60 1 -89 1c-71 0 -140 -5 -230 -38l-40 145c96 36 200 42 301 42c56 0 112 -2 166 -2z" />
    <glyph glyph-name="gdotaccent" unicode="&#x121;" 
d="M379 1403h235v-225h-235v225zM237 -76c0 -126 75 -156 207 -156h105c115 0 254 41 254 207c0 85 -149 96 -270 96c-9 0 -66 0 -212 -2c-56 -22 -84 -82 -84 -145zM476 557c129 0 228 52 228 149c0 129 -85 168 -212 168c-136 0 -239 -73 -239 -165
c0 -116 93 -152 223 -152zM95 699c0 210 151 327 397 327c115 0 189 -20 254 -60c56 52 109 62 219 62v-164c-12 2 -34 5 -44 5c-35 0 -74 -5 -91 -22c26 -47 30 -89 30 -137c0 -189 -154 -303 -379 -303c-71 0 -134 7 -199 32c-19 -22 -43 -57 -43 -98
c0 -76 54 -118 180 -118c26 0 154 2 181 2c188 0 361 -59 361 -249c0 -259 -174 -364 -418 -364h-103c-211 0 -360 97 -360 306c0 100 32 171 87 219c-57 42 -85 113 -85 191c0 91 32 151 74 199c-34 38 -61 100 -61 172z" />
    <glyph glyph-name="Gcommaaccent" unicode="&#x122;" 
d="M438 -130h251l7 -263v-3c0 -197 -84 -325 -251 -401l-61 139c92 51 142 121 142 259h-88v269zM861 733c46 0 89 3 131 7v-135c0 -435 -123 -556 -301 -602c-45 -10 -109 -11 -151 -11c-364 0 -520 288 -520 636c0 237 53 431 184 558c100 88 214 116 329 116h20
c214 -5 348 -113 423 -276l-143 -69c-52 114 -136 193 -291 193c-84 0 -145 -6 -223 -73c-111 -95 -137 -288 -137 -460c0 -259 78 -470 368 -470c29 0 57 2 83 9c123 28 193 108 193 431c-26 -2 -50 -2 -73 -2c-31 0 -60 1 -89 1c-71 0 -140 -5 -230 -38l-40 145
c96 36 200 42 301 42c56 0 112 -2 166 -2z" />
    <glyph glyph-name="gcommaaccent" unicode="&#x123;" 
d="M461 1170c38 112 64 221 109 372l152 -34c-18 -142 -46 -283 -67 -386zM237 -76c0 -126 75 -156 207 -156h105c115 0 254 41 254 207c0 85 -149 96 -270 96c-9 0 -66 0 -212 -2c-56 -22 -84 -82 -84 -145zM476 557c129 0 228 52 228 149c0 129 -85 168 -212 168
c-136 0 -239 -73 -239 -165c0 -116 93 -152 223 -152zM95 699c0 210 151 327 397 327c115 0 189 -20 254 -60c56 52 109 62 219 62v-164c-12 2 -34 5 -44 5c-35 0 -74 -5 -91 -22c26 -47 30 -89 30 -137c0 -189 -154 -303 -379 -303c-71 0 -134 7 -199 32
c-19 -22 -43 -57 -43 -98c0 -76 54 -118 180 -118c26 0 154 2 181 2c188 0 361 -59 361 -249c0 -259 -174 -364 -418 -364h-103c-211 0 -360 97 -360 306c0 100 32 171 87 219c-57 42 -85 113 -85 191c0 91 32 151 74 199c-34 38 -61 100 -61 172z" />
    <glyph glyph-name="Hcircumflex" unicode="&#x124;" 
d="M487 1781l375 -328l-107 -107l-271 221l-261 -221l-104 107zM220 1296l-1 -547c92 21 187 28 307 28h228c0 274 -1 352 -1 514h159v-1291h-158v625h-129c-146 0 -288 -3 -406 -28c0 -343 2 -416 2 -597h-161v1294z" />
    <glyph glyph-name="hcircumflex" unicode="&#x125;" 
d="M261 1809l375 -328l-107 -107l-271 221l-261 -221l-104 107zM739 576c0 227 -36 291 -237 291c-101 0 -202 -74 -233 -136v-533c0 -79 -5 -152 -10 -198l-158 8c8 72 11 119 11 196c0 504 -1 1198 -1 1198h159v-462c65 41 137 80 239 80c121 0 231 -9 310 -105
c72 -85 77 -163 77 -273v-66c0 -164 -1 -241 -1 -353c0 -55 26 -84 86 -123l-88 -117c-80 45 -154 98 -154 225v368z" />
    <glyph glyph-name="Hbar" unicode="&#x126;" 
d="M60 1145v149l160 2v-151h533v146h159v-146h85v-150h-85v-995h-158v625h-129c-146 0 -288 -3 -406 -28c0 -343 2 -416 2 -597h-161v995h-60v150h60zM754 995h-535v-246c92 21 187 28 307 28h228v218z" />
    <glyph glyph-name="hbar" unicode="&#x127;" 
d="M718 576c0 227 -36 291 -237 291c-101 0 -202 -74 -233 -136v-533c0 -79 -5 -152 -10 -198l-158 8c8 72 11 119 11 196c0 299 -1 664 -1 912h-90v150h90v135l158 1v-136h367v-150h-366v-176c65 41 137 80 239 80c121 0 231 -9 310 -105c72 -85 77 -163 77 -273v-66
c0 -164 -1 -241 -1 -353c0 -55 26 -84 86 -123l-88 -117c-80 45 -154 98 -154 225v368z" />
    <glyph glyph-name="Itilde" unicode="&#x128;" 
d="M334 1676c148 0 206 -121 296 -121c64 0 133 39 147 127l148 -52c-32 -120 -149 -228 -281 -228c-140 0 -197 121 -298 121c-59 0 -117 -9 -155 -115l-138 74c74 164 171 194 281 194zM152 1298c156 4 237 4 333 4c105 0 201 -1 364 -3v-152c-123 0 -171 5 -267 5v-1000
c46 0 72 1 123 1c45 0 92 -1 144 -4v-150c-85 5 -147 6 -210 6c-47 0 -96 -1 -155 -1c-74 0 -174 -7 -329 -7v149c85 4 135 5 192 5h75v1000c-66 -1 -158 -1 -264 -7z" />
    <glyph glyph-name="itilde" unicode="&#x129;" 
d="M289 1391c148 0 206 -121 296 -121c64 0 133 39 147 127l148 -52c-32 -120 -149 -228 -281 -228c-140 0 -197 121 -298 121c-59 0 -117 -9 -155 -115l-138 74c74 164 171 194 281 194zM417 1013h116c0 -273 1 -803 1 -803c5 -82 49 -86 141 -86c93 0 217 21 286 73
l68 -114c-86 -71 -229 -101 -353 -101c-85 0 -161 14 -205 38c-85 47 -93 127 -93 186v651c-49 0 -163 -6 -258 -28l-29 142c112 26 222 42 326 42z" />
    <glyph glyph-name="Imacron" unicode="&#x12a;" 
d="M706 1593v-152h-17c-58 -2 -128 -2 -202 -2s-149 0 -217 2l-18 1v155l19 -2c65 -2 162 -2 254 -2h164h17zM152 1298c156 4 237 4 333 4c105 0 201 -1 364 -3v-152c-123 0 -171 5 -267 5v-1000c46 0 72 1 123 1c45 0 92 -1 144 -4v-150c-85 5 -147 6 -210 6
c-47 0 -96 -1 -155 -1c-74 0 -174 -7 -329 -7v149c85 4 135 5 192 5h75v1000c-66 -1 -158 -1 -264 -7z" />
    <glyph glyph-name="imacron" unicode="&#x12b;" 
d="M679 1332.8v-152h-17c-58 -2 -128 -2 -202 -2s-149 0 -217 2l-18 1v155l19 -2c65 -2 162 -2 254 -2h164h17zM417 1013h116c0 -273 1 -803 1 -803c5 -82 49 -86 141 -86c93 0 217 21 286 73l68 -114c-86 -71 -229 -101 -353 -101c-85 0 -161 14 -205 38
c-85 47 -93 127 -93 186v651c-49 0 -163 -6 -258 -28l-29 142c112 26 222 42 326 42z" />
    <glyph glyph-name="Ibreve" unicode="&#x12c;" 
d="M503 1527c108 0 190 63 196 141l166 -30c-24 -177 -197 -264 -362 -264c-126 0 -308 48 -356 273l156 30c27 -117 107 -150 200 -150zM152 1298c156 4 237 4 333 4c105 0 201 -1 364 -3v-152c-123 0 -171 5 -267 5v-1000c46 0 72 1 123 1c45 0 92 -1 144 -4v-150
c-85 5 -147 6 -210 6c-47 0 -96 -1 -155 -1c-74 0 -174 -7 -329 -7v149c85 4 135 5 192 5h75v1000c-66 -1 -158 -1 -264 -7z" />
    <glyph glyph-name="ibreve" unicode="&#x12d;" 
d="M473 1265c108 0 190 63 196 141l166 -30c-24 -177 -197 -264 -362 -264c-126 0 -308 48 -356 273l156 30c27 -117 107 -150 200 -150zM417 1013h116c0 -273 1 -803 1 -803c5 -82 49 -86 141 -86c93 0 217 21 286 73l68 -114c-86 -71 -229 -101 -353 -101
c-85 0 -161 14 -205 38c-85 47 -93 127 -93 186v651c-49 0 -163 -6 -258 -28l-29 142c112 26 222 42 326 42z" />
    <glyph glyph-name="Iogonek" unicode="&#x12e;" 
d="M132 1298c156 4 257 4 353 4c105 0 205 -1 368 -3v-152c-123 0 -175 5 -271 5v-1000c46 0 72 1 123 1c45 0 92 -1 144 -4v-150c-180 -113 -320 -169 -320 -243c0 -56 56 -83 120 -83c58 0 99 33 129 55l78 -107c-44 -48 -132 -93 -211 -93c-188 0 -271 93 -271 228
c0 143 167 201 260 249c-45 0 -93 -1 -150 -1c-74 0 -195 -7 -350 -7v149c85 4 156 5 213 5h75v1000c-66 -1 -178 -1 -284 -7z" />
    <glyph glyph-name="iogonek" unicode="&#x12f;" 
d="M314 1403l235 -3v-225l-235 3v225zM417 1013h120c0 -273 1 -803 1 -803c5 -82 45 -86 137 -86c93 0 217 21 286 73l68 -114c-235 -206 -366 -208 -366 -324c0 -56 56 -83 120 -83c58 0 99 33 129 55l78 -107c-44 -48 -132 -93 -211 -93c-188 0 -271 93 -271 228
c0 104 78 154 185 223h-17c-85 0 -161 14 -205 38c-85 47 -93 127 -93 186v651c-49 0 -163 -6 -258 -28l-29 142c112 26 222 42 326 42z" />
    <glyph glyph-name="Idotaccent" unicode="&#x130;" 
d="M367 1652l236 -3v-225l-236 3v225zM152 1298c156 4 237 4 333 4c105 0 201 -1 364 -3v-152c-123 0 -171 5 -267 5v-1000c46 0 72 1 123 1c45 0 92 -1 144 -4v-150c-85 5 -147 6 -210 6c-47 0 -96 -1 -155 -1c-74 0 -174 -7 -329 -7v149c85 4 135 5 192 5h75v1000
c-66 -1 -158 -1 -264 -7z" />
    <glyph glyph-name="IJ" unicode="&#x132;" 
d="M381 1151c-38 1 -64 1 -99 1v-1000l80 -2v-150c-30 1 -67 1 -105 1c-75 0 -157 -1 -206 -1v146c22 4 39 6 54 6h17v1000c-66 -1 -43 -2 -70 -8l-2 154c40 4 40 4 136 4h130h67zM514 1296c49 0 91 -1 130 -1c116 0 202 2 366 2l-2 -153c-48 0 -36 1 -86 1
c16 -178 22 -380 22 -503c0 -354 -14 -650 -280 -650c-193 0 -254 218 -256 434l160 -1c6 -150 37 -283 94 -283c114 0 125 120 125 340c0 54 -1 112 -1 177c0 95 -16 348 -28 485c-122 0 -130 0 -246 2z" />
    <glyph glyph-name="ij" unicode="&#x133;" 
d="M811 -114l-1 978h-16c-98 0 -150 -8 -240 -29l-28 142c112 26 220 42 324 42h117v-1137c0 -145 -61 -269 -299 -269c-123 0 -245 7 -459 118l58 149c153 -105 317 -111 380 -111h17c112 0 145 82 147 117zM287 1020h120c0 -273 1 -803 1 -803c0 -64 39 -86 90 -86
s88 22 112 61l83 -102c-47 -71 -144 -96 -212 -96c-177 0 -233 103 -233 219v651h-12c-42 0 -72 -1 -159 -21l-29 142c112 26 135 35 239 35zM744 1404l234 -3v-225l-234 3v225zM184 1410l235 -3v-225l-235 3v225z" />
    <glyph glyph-name="Jcircumflex" unicode="&#x134;" 
d="M618 1772l375 -328l-107 -107l-271 221l-261 -221l-104 107zM414 -8c-275 0 -372 218 -374 434l160 -1c6 -150 59 -283 212 -283c186 0 221 185 221 517c0 95 -16 348 -28 485c-49 0 -128 2 -165 2c-104 -3 -116 -12 -143 -18l-38 148c30 7 61 19 179 22
c145 0 362 -1 518 -1l-2 -153c-48 0 -135 1 -185 1c16 -178 22 -380 22 -503c0 -354 -47 -650 -377 -650z" />
    <glyph glyph-name="jcircumflex" unicode="&#x135;" 
d="M671 1502l375 -328l-107 -107l-271 221l-261 -221l-104 107zM627 -114l-1 978h-16c-98 0 -150 -8 -240 -29l-28 142c112 26 220 42 324 42h117v-1137c0 -145 -61 -269 -299 -269c-123 0 -267 22 -393 227l126 98c99 -162 183 -169 246 -169h17c112 0 145 82 147 117z" />
    <glyph glyph-name="Kcommaaccent" unicode="&#x136;" 
d="M451 -34h220v-215c0 -151 -67 -227 -196 -283l-54 127c60 28 86 51 86 150h-56v221zM484 725c120 -117 467 -531 518 -666l-134 -76c-46 109 -350 491 -480 617c0 0 -84 -98 -114 -169v-436h-158v1313h158v-605c80 111 151 190 250 293c191 195 317 293 338 314l111 -106
c-182 -132 -429 -406 -489 -479z" />
    <glyph glyph-name="kcommaaccent" unicode="&#x137;" 
d="M463 -29h220v-215c0 -151 -67 -227 -196 -283l-54 127c60 28 86 51 86 150h-56v221zM586 566c101 0 156 91 156 179c0 18 -2 35 -7 50c-10 33 -42 77 -105 77c-24 0 -52 -6 -85 -22c-99 -47 -178 -92 -252 -142v-90c84 -13 149 -28 198 -39c37 -8 68 -13 95 -13zM293 880
c72 49 222 136 328 136c136 0 259 -83 273 -202c3 -23 5 -53 5 -82c0 -33 -3 -67 -8 -93c-6 -34 -58 -136 -161 -185c98 -73 96 -193 149 -281c24 -39 50 -60 83 -84l-84 -108c-123 60 -158 178 -185 257c-50 145 -275 217 -399 231c0 0 -2 -190 -2 -340c0 -50 1 -96 1 -129
h-157v1228c0 61 -10 114 -23 155l153 44c9 -23 27 -68 27 -134v-413z" />
    <glyph glyph-name="kgreenlandic" unicode="&#x138;" 
d="M558 605c110 -127 375 -420 426 -555l-134 -76c-46 109 -285 390 -404 527c0 0 -119 -102 -174 -177v-324h-156v1020h156v-470c93 92 198 175 305 269c207 178 285 211 308 230l97 -129c-193 -116 -358 -247 -424 -315z" />
    <glyph glyph-name="Lacute" unicode="&#x139;" 
d="M52 1496c143 48 352 205 467 313l123 -146c-111 -112 -379 -268 -522 -315zM141 -3v1301h161v-1147h521c59 3 77 7 121 22l41 -146c-47 -16 -85 -30 -160 -30h-684z" />
    <glyph glyph-name="lacute" unicode="&#x13a;" 
d="M191 1580c143 48 352 205 467 313l123 -146c-111 -112 -379 -268 -522 -315zM415 1423h116c0 -273 3 -1211 3 -1211c5 -82 49 -86 141 -86c93 0 217 21 286 73l68 -114c-86 -71 -229 -101 -353 -101c-85 0 -161 14 -205 38c-85 47 -93 127 -93 186l-3 1060
c-17 0 -44 1 -74 1c-57 0 -129 -3 -190 -17l-28 143c112 26 228 28 332 28z" />
    <glyph glyph-name="Lcommaaccent" unicode="&#x13b;" 
d="M388 -125h220v-215c0 -151 -67 -227 -196 -283l-54 127c60 28 86 51 86 150h-56v221zM141 -3v1301h161v-1147h521c59 3 77 7 121 22l41 -146c-47 -16 -85 -30 -160 -30h-684z" />
    <glyph glyph-name="lcommaaccent" unicode="&#x13c;" 
d="M597 -138h220v-215c0 -151 -67 -227 -196 -283l-54 127c60 28 86 51 86 150h-56v221zM415 1423h116c0 -273 3 -1211 3 -1211c5 -82 49 -86 141 -86c93 0 217 21 286 73l68 -114c-86 -71 -229 -101 -353 -101c-85 0 -161 14 -205 38c-85 47 -93 127 -93 186l-3 1060
c-17 0 -44 1 -74 1c-57 0 -129 -3 -190 -17l-28 143c112 26 228 28 332 28z" />
    <glyph glyph-name="Lcaron" unicode="&#x13d;" 
d="M894 1241c-38 -112 -64 -221 -109 -372l-152 34c18 142 46 283 67 386zM141 -3v1301h161v-1147h521c59 3 77 7 121 22l41 -146c-47 -16 -85 -30 -160 -30h-684z" />
    <glyph glyph-name="lcaron" unicode="&#x13e;" 
d="M1027 1392c-38 -112 -65 -221 -110 -372l-152 34c18 142 47 283 68 386zM415 1423h116c0 -273 3 -1211 3 -1211c5 -82 49 -86 141 -86c93 0 217 21 286 73l68 -114c-86 -71 -229 -101 -353 -101c-85 0 -161 14 -205 38c-85 47 -93 127 -93 186l-3 1060c-17 0 -44 1 -74 1
c-57 0 -129 -3 -190 -17l-28 143c112 26 228 28 332 28z" />
    <glyph glyph-name="Ldot" unicode="&#x13f;" 
d="M526.929 818.44h216v-228.995h-216v228.995zM141 -3v1301h161v-1147h521c59 3 77 7 121 22l41 -146c-47 -16 -85 -30 -160 -30h-684z" />
    <glyph glyph-name="ldot" unicode="&#x140;" 
d="M747.929 818.44h216v-228.995h-216v228.995zM415 1423h116c0 -273 3 -1211 3 -1211c5 -82 49 -86 141 -86c93 0 217 21 286 73l68 -114c-86 -71 -229 -101 -353 -101c-85 0 -161 14 -205 38c-85 47 -93 127 -93 186l-3 1060c-17 0 -44 1 -74 1c-57 0 -129 -3 -190 -17
l-28 143c112 26 228 28 332 28z" />
    <glyph glyph-name="Lslash" unicode="&#x141;" 
d="M267 678l-147 -56l-50 130l197 76v470h161v-408l253 98l50 -131l-303 -117v-589h395c59 3 77 7 121 22l41 -146c-47 -16 -85 -30 -160 -30h-558v681z" />
    <glyph glyph-name="lslash" unicode="&#x142;" 
d="M396 1428h120l1 -502l255 98l50 -131l-305 -117l2 -564c5 -82 45 -86 137 -86c93 0 217 21 286 73l68 -114c-86 -71 -229 -101 -353 -101c-85 0 -161 14 -205 38c-85 47 -92.7761 127.012 -93 186l-2 507l-146 -57l-50 131l196 75l-1 409c-49 0 -162 -7 -257 -29l-28 143
c112 26 221 41 325 41z" />
    <glyph glyph-name="Nacute" unicode="&#x143;" 
d="M394 1476c143 48 352 205 467 313l123 -146c-111 -112 -379 -268 -522 -315zM752 -6c-163 357 -317 654 -519 1007v-204c0 -293 1 -648 1 -800h-159v1301l159 -4c126 -184 402 -689 519 -937c-2 130 -3 266 -3 400c0 186 3 369 12 540h154c-6 -113 -8 -262 -8 -425
c0 -226 4 -480 4 -710c0 -57 -1 -114 -1 -167z" />
    <glyph glyph-name="nacute" unicode="&#x144;" 
d="M379.5 1208c143 48 352 205 467 313l123 -146c-111 -112 -379 -268 -522 -315zM270 927c126 66 218 95 328 95c120 0 299 -77 299 -226v-585c0 -66 50 -88 106 -118l-84 -112c-88 43 -180 94 -180 223v561c0 74 -97 107 -163 107c-64 0 -160 -42 -306 -112v-760l-158 -1
v706c0 178 -8 204 -32 298l160 37c10 -24 22 -64 30 -113z" />
    <glyph glyph-name="Ncommaaccent" unicode="&#x145;" 
d="M412 -28h220v-215c0 -151 -67 -227 -196 -283l-54 127c60 28 86 51 86 150h-56v221zM752 -6c-163 357 -317 654 -519 1007v-204c0 -293 1 -648 1 -800h-159v1301l159 -4c126 -184 402 -689 519 -937c-2 130 -3 266 -3 400c0 186 3 369 12 540h154
c-6 -113 -8 -262 -8 -425c0 -226 4 -480 4 -710c0 -57 -1 -114 -1 -167z" />
    <glyph glyph-name="ncommaaccent" unicode="&#x146;" 
d="M453.5 -39h220v-215c0 -151 -67 -227 -196 -283l-54 127c60 28 86 51 86 150h-56v221zM270 927c126 66 218 95 328 95c120 0 299 -77 299 -226v-585c0 -66 50 -88 106 -118l-84 -112c-88 43 -180 94 -180 223v561c0 74 -97 107 -163 107c-64 0 -160 -42 -306 -112v-760
l-158 -1v706c0 178 -8 204 -32 298l160 37c10 -24 22 -64 30 -113z" />
    <glyph glyph-name="Ncaron" unicode="&#x147;" 
d="M491 1322l-370 318l104 107l267 -218l265 218l106 -107zM752 -6c-163 357 -317 654 -519 1007v-204c0 -293 1 -648 1 -800h-159v1301l159 -4c126 -184 402 -689 519 -937c-2 130 -3 266 -3 400c0 186 3 369 12 540h154c-6 -113 -8 -262 -8 -425c0 -226 4 -480 4 -710
c0 -57 -1 -114 -1 -167z" />
    <glyph glyph-name="ncaron" unicode="&#x148;" 
d="M581.5 1060l-370 318l104 107l267 -218l265 218l106 -107zM270 927c126 66 218 95 328 95c120 0 299 -77 299 -226v-585c0 -66 50 -88 106 -118l-84 -112c-88 43 -180 94 -180 223v561c0 74 -97 107 -163 107c-64 0 -160 -42 -306 -112v-760l-158 -1v706
c0 178 -8 204 -32 298l160 37c10 -24 22 -64 30 -113z" />
    <glyph glyph-name="Eng" unicode="&#x14a;" 
d="M540 1296c290 0 368 -195 368 -436c0 -231 4 -460 4 -695v-34c0 -256 -50 -490 -486 -490h-34v155c346 6 364 146 364 310v746c0 184 -95 291 -214 291c-194 0 -272 -159 -308 -227v-919h-159v1062c0 115 -39 200 -39 200l155 57c19 -39 34 -71 41 -148
c60 102 172 128 308 128z" />
    <glyph glyph-name="eng" unicode="&#x14b;" 
d="M271 927c126 66 186 95 296 95c121 0 289 -77 289 -226v-585c0 -299 -2 -579 -420 -579h-4l-3 156h3c231 0 265 98 265 361v616c0 74 -85 107 -152 107c-63 0 -128 -42 -273 -112l-1 -760l-158 -1v706c0 178 -8 204 -32 298l160 37c10 -24 23 -64 30 -113z" />
    <glyph glyph-name="Omacron" unicode="&#x14c;" 
d="M757.5 1584v-152h-17c-58 -2 -128 -2 -202 -2s-149 0 -217 2l-18 1v155l19 -2c65 -2 162 -2 254 -2h164h17zM504 1326c124 0 445 -74 450 -691v-11c0 -164 -44 -317 -92 -410c-75 -144 -205 -227 -370 -227c-122 0 -249 43 -330 143c-90 110 -138 262 -138 442
c0 345 76 494 146 589c66 90 178 162 334 165zM266 245c49 -65 118 -105 226 -105c116 0 189 67 234 150c40 64 69 230 70 337v19c0 115 -17 268 -70 371c-58 114 -128 156 -216 156c-95 0 -152 -28 -210 -104c-69 -89 -118 -231 -118 -493c0 -104 28 -258 84 -331z" />
    <glyph glyph-name="omacron" unicode="&#x14d;" 
d="M708 1338.3v-152h-17c-58 -2 -128 -2 -202 -2s-149 0 -217 2l-18 1v155l19 -2c65 -2 162 -2 254 -2h164h17zM654 215c65 61 89 167 89 315v18c-2 184 -66 330 -243 330c-208 0 -270 -165 -270 -409c0 -195 87 -313 254 -313c76 1 120 17 170 59zM482 1
c-272 1 -410 183 -410 463c0 292 102 568 394 568c197 0 307 -69 377 -201c41 -79 59 -192 59 -288c0 -285 -96 -542 -418 -542h-2z" />
    <glyph glyph-name="Obreve" unicode="&#x14e;" 
d="M512.5 1538c108 0 190 63 196 141l166 -30c-24 -177 -197 -264 -362 -264c-126 0 -308 48 -356 273l156 30c27 -117 107 -150 200 -150zM504 1326c124 0 445 -74 450 -691v-11c0 -164 -44 -317 -92 -410c-75 -144 -205 -227 -370 -227c-122 0 -249 43 -330 143
c-90 110 -138 262 -138 442c0 345 76 494 146 589c66 90 178 162 334 165zM266 245c49 -65 118 -105 226 -105c116 0 189 67 234 150c40 64 69 230 70 337v19c0 115 -17 268 -70 371c-58 114 -128 156 -216 156c-95 0 -152 -28 -210 -104c-69 -89 -118 -231 -118 -493
c0 -104 28 -258 84 -331z" />
    <glyph glyph-name="obreve" unicode="&#x14f;" 
d="M466 1223c108 0 190 63 196 141l166 -30c-24 -177 -197 -264 -362 -264c-126 0 -308 48 -356 273l156 30c27 -117 107 -150 200 -150zM654 215c65 61 89 167 89 315v18c-2 184 -66 330 -243 330c-208 0 -270 -165 -270 -409c0 -195 87 -313 254 -313c76 1 120 17 170 59z
M482 1c-272 1 -410 183 -410 463c0 292 102 568 394 568c197 0 307 -69 377 -201c41 -79 59 -192 59 -288c0 -285 -96 -542 -418 -542h-2z" />
    <glyph glyph-name="Ohungarumlaut" unicode="&#x150;" 
d="M542.5 1476c117 95 243 261 313 402l154 -100c-65 -144 -234 -323 -352 -417zM206.5 1483c117 95 243 261 313 402l154 -99c-65 -144 -235 -324 -353 -418zM504 1326c124 0 445 -74 450 -691v-11c0 -164 -44 -317 -92 -410c-75 -144 -205 -227 -370 -227
c-122 0 -249 43 -330 143c-90 110 -138 262 -138 442c0 345 76 494 146 589c66 90 178 162 334 165zM266 245c49 -65 118 -105 226 -105c116 0 189 67 234 150c40 64 69 230 70 337v19c0 115 -17 268 -70 371c-58 114 -128 156 -216 156c-95 0 -152 -28 -210 -104
c-69 -89 -118 -231 -118 -493c0 -104 28 -258 84 -331z" />
    <glyph glyph-name="ohungarumlaut" unicode="&#x151;" 
d="M551 1164c117 95 243 261 313 402l154 -100c-65 -144 -234 -323 -352 -417zM215 1171c117 95 243 261 313 402l154 -99c-65 -144 -235 -324 -353 -418zM654 215c65 61 89 167 89 315v18c-2 184 -66 330 -243 330c-208 0 -270 -165 -270 -409c0 -195 87 -313 254 -313
c76 1 120 17 170 59zM482 1c-272 1 -410 183 -410 463c0 292 102 568 394 568c197 0 307 -69 377 -201c41 -79 59 -192 59 -288c0 -285 -96 -542 -418 -542h-2z" />
    <glyph glyph-name="Racute" unicode="&#x154;" 
d="M308 1502c143 48 352 205 467 313l123 -146c-111 -112 -379 -268 -522 -315zM652 540c78 -122 190 -302 246 -367c18 -16 49 -50 91 -61l-59 -134c-58 9 -112 47 -146 89c-97 107 -255 373 -311 467c-82 8 -150 20 -226 33l1 -567h-158v1113c0 67 -1 114 -5 175
c42 4 157 15 218 15c250 0 419 -14 541 -164c48 -59 83 -146 83 -230c0 -220 -99 -340 -275 -369zM772 895c0 55 -15 105 -57 153c-67 78 -183 102 -407 102c-26 0 -34 0 -63 -1l2 -430c99 -18 178 -41 260 -41c16 0 33 1 49 3c140 18 216 52 216 214z" />
    <glyph glyph-name="racute" unicode="&#x155;" 
d="M346 1210c143 48 352 205 467 313l123 -146c-111 -112 -379 -268 -522 -315zM370 875c93 114 197 150 352 150c167 0 212 -114 212 -296v-6h-156c-4 81 8 142 -84 142c-101 0 -228 -36 -328 -259v-606l-156 1v763c0 57 -40 86 -102 141l104 141c61 -49 121 -87 158 -171z
" />
    <glyph glyph-name="Rcommaaccent" unicode="&#x156;" 
d="M388 -60h220v-215c0 -151 -67 -227 -196 -283l-54 127c60 28 86 51 86 150h-56v221zM652 540c78 -122 190 -302 246 -367c18 -16 49 -50 91 -61l-59 -134c-58 9 -112 47 -146 89c-97 107 -255 373 -311 467c-82 8 -150 20 -226 33l1 -567h-158v1113c0 67 -1 114 -5 175
c42 4 157 15 218 15c250 0 419 -14 541 -164c48 -59 83 -146 83 -230c0 -220 -99 -340 -275 -369zM772 895c0 55 -15 105 -57 153c-67 78 -183 102 -407 102c-26 0 -34 0 -63 -1l2 -430c99 -18 178 -41 260 -41c16 0 33 1 49 3c140 18 216 52 216 214z" />
    <glyph glyph-name="rcommaaccent" unicode="&#x157;" 
d="M187 -83h220v-215c0 -151 -67 -227 -196 -283l-54 127c60 28 86 51 86 150h-56v221zM370 875c93 114 197 150 352 150c167 0 212 -114 212 -296v-6h-156c-4 81 8 142 -84 142c-101 0 -228 -36 -328 -259v-606l-156 1v763c0 57 -40 86 -102 141l104 141
c61 -49 121 -87 158 -171z" />
    <glyph glyph-name="Rcaron" unicode="&#x158;" 
d="M452 1343l-370 318l104 107l267 -218l265 218l106 -107zM652 540c78 -122 190 -302 246 -367c18 -16 49 -50 91 -61l-59 -134c-58 9 -112 47 -146 89c-97 107 -255 373 -311 467c-82 8 -150 20 -226 33l1 -567h-158v1113c0 67 -1 114 -5 175c42 4 157 15 218 15
c250 0 419 -14 541 -164c48 -59 83 -146 83 -230c0 -220 -99 -340 -275 -369zM772 895c0 55 -15 105 -57 153c-67 78 -183 102 -407 102c-26 0 -34 0 -63 -1l2 -430c99 -18 178 -41 260 -41c16 0 33 1 49 3c140 18 216 52 216 214z" />
    <glyph glyph-name="rcaron" unicode="&#x159;" 
d="M560 1059l-370 318l104 107l267 -218l265 218l106 -107zM370 875c93 114 197 150 352 150c167 0 212 -114 212 -296v-6h-156c-4 81 8 142 -84 142c-101 0 -228 -36 -328 -259v-606l-156 1v763c0 57 -40 86 -102 141l104 141c61 -49 121 -87 158 -171z" />
    <glyph glyph-name="Sacute" unicode="&#x15a;" 
d="M257 1494c143 48 352 205 467 313l123 -146c-111 -112 -379 -268 -522 -315zM247 709c-91 43 -175 134 -175 280c0 216 187 313 398 313h9c223 -3 393 -79 431 -286l-159 -29c-38 127 -122 161 -276 161c-102 0 -163 -21 -209 -66c-24 -25 -35 -54 -35 -88
c0 -82 46 -120 102 -147c88 -42 274 -55 406 -115c108 -52 210 -170 210 -344c0 -269 -188 -397 -428 -397h-19c-353 9 -459 199 -459 422h158c0 -159 83 -271 307 -271c205 0 281 95 281 238c0 107 -59 175 -138 209c-116 50 -271 60 -404 120z" />
    <glyph glyph-name="sacute" unicode="&#x15b;" 
d="M262 1184c143 48 352 205 467 313l123 -146c-111 -112 -379 -268 -522 -315zM268 569c-65 35 -116 103 -116 214c1 173 163 246 338 246c122 0 298 -40 380 -141l-113 -111c-53 62 -167 104 -253 104c-106 0 -195 -29 -195 -94c0 -48 20 -71 60 -89
c271 -113 527 -133 527 -417c0 -162 -114 -253 -221 -281c-56 -13 -116 -20 -173 -20c-256 0 -384 135 -384 350l157 -1c0 -134 69 -206 224 -206c123 0 242 53 242 163c0 63 -31 93 -86 134c-77 55 -282 94 -387 149z" />
    <glyph glyph-name="Scircumflex" unicode="&#x15c;" 
d="M481 1766l375 -328l-107 -107l-271 221l-261 -221l-104 107zM247 709c-91 43 -175 134 -175 280c0 216 187 313 398 313h9c223 -3 393 -79 431 -286l-159 -29c-38 127 -122 161 -276 161c-102 0 -163 -21 -209 -66c-24 -25 -35 -54 -35 -88c0 -82 46 -120 102 -147
c88 -42 274 -55 406 -115c108 -52 210 -170 210 -344c0 -269 -188 -397 -428 -397h-19c-353 9 -459 199 -459 422h158c0 -159 83 -271 307 -271c205 0 281 95 281 238c0 107 -59 175 -138 209c-116 50 -271 60 -404 120z" />
    <glyph glyph-name="scircumflex" unicode="&#x15d;" 
d="M500 1491.9l375 -328l-107 -107l-271 221l-261 -221l-104 107zM268 569c-65 35 -116 103 -116 214c1 173 163 246 338 246c122 0 298 -40 380 -141l-113 -111c-53 62 -167 104 -253 104c-106 0 -195 -29 -195 -94c0 -48 20 -71 60 -89c271 -113 527 -133 527 -417
c0 -162 -114 -253 -221 -281c-56 -13 -116 -20 -173 -20c-256 0 -384 135 -384 350l157 -1c0 -134 69 -206 224 -206c123 0 242 53 242 163c0 63 -31 93 -86 134c-77 55 -282 94 -387 149z" />
    <glyph glyph-name="Scedilla" unicode="&#x15e;" 
d="M247 723c-91 44 -175 137 -175 286c0 220 187 319 398 319h9c223 -3 393 -80 431 -291l-159 -30c-38 130 -122 164 -276 164c-102 0 -163 -21 -209 -67c-24 -26 -35 -55 -35 -90c0 -84 46 -123 102 -150c117 -57 274 -56 406 -117c108 -53 210 -173 210 -351
c0 -250 -156 -381 -365 -402c-1 -21 -1 -62 -1 -64c97 -5 155 -67 155 -171c0 -101 -100 -168 -184 -168c-66 0 -138 25 -194 61l38 106c33 -18 73 -42 124 -42c36 0 77 20 80 58v2c0 29 -38 54 -86 54s-50 -7 -78 -17v182c-302 30 -395 212 -395 426h158
c0 -162 83 -276 307 -276c205 0 281 97 281 243c0 109 -59 178 -138 213c-116 51 -271 61 -404 122z" />
    <glyph glyph-name="scedilla" unicode="&#x15f;" 
d="M243 571c-65 35 -117 101 -117 212c1 173 163 246 338 246c122 0 298 -40 380 -141l-113 -111c-53 62 -167 104 -253 104c-106 0 -192 -34 -192 -94c0 -48 17 -71 57 -89c265 -112 527 -158 527 -417c0 -162 -114 -253 -221 -281c-33 -8 -67 -13 -100 -16
c-1 -21 -1 -63 -1 -65c97 -5 155 -67 155 -171c0 -101 -100 -168 -184 -168c-66 0 -138 25 -194 61l38 106c33 -18 73 -42 124 -42c36 0 77 20 80 58v2c0 29 -38 54 -86 54s-50 -7 -78 -17v182c-207 24 -311 153 -311 346l157 -1c0 -134 69 -206 224 -206
c123 0 242 53 242 163c0 73 -31 99 -86 140c-77 55 -294 98 -386 145z" />
    <glyph glyph-name="Scaron" unicode="&#x160;" 
d="M489 1343l-370 318l104 107l267 -218l265 218l106 -107zM247 709c-91 43 -175 134 -175 280c0 216 187 313 398 313h9c223 -3 393 -79 431 -286l-159 -29c-38 127 -122 161 -276 161c-102 0 -163 -21 -209 -66c-24 -25 -35 -54 -35 -88c0 -82 46 -120 102 -147
c88 -42 274 -55 406 -115c108 -52 210 -170 210 -344c0 -269 -188 -397 -428 -397h-19c-353 9 -459 199 -459 422h158c0 -159 83 -271 307 -271c205 0 281 95 281 238c0 107 -59 175 -138 209c-116 50 -271 60 -404 120z" />
    <glyph glyph-name="scaron" unicode="&#x161;" 
d="M523 1058l-370 318l104 107l267 -218l265 218l106 -107zM268 569c-65 35 -116 103 -116 214c1 173 163 246 338 246c122 0 298 -40 380 -141l-113 -111c-53 62 -167 104 -253 104c-106 0 -195 -29 -195 -94c0 -48 20 -71 60 -89c271 -113 527 -133 527 -417
c0 -162 -114 -253 -221 -281c-56 -13 -116 -20 -173 -20c-256 0 -384 135 -384 350l157 -1c0 -134 69 -206 224 -206c123 0 242 53 242 163c0 63 -31 93 -86 134c-77 55 -282 94 -387 149z" />
    <glyph glyph-name="Tcommaaccent" unicode="&#x162;" 
d="M403 -9v1176c-198 0 -288 -1 -364 -1v158c122 0 576 1 764 1c73 0 122 -12 140 -15l-33 -155s-62 12 -112 12h-235v-1195c97 -5 145 -67 145 -171c0 -101 -100 -168 -184 -168c-66 0 -138 25 -194 61l38 106c33 -18 73 -42 124 -42c36 0 77 20 80 58v2
c0 29 -38 54 -86 54s-50 -7 -78 -17v31c-3 33 -4 73 -5 105z" />
    <glyph glyph-name="tcommaaccent" unicode="&#x163;" 
d="M321 437v-40c0 -133 36 -234 147 -245c18 -2 95 -3 108 -3c65 0 129 10 154 24c57 30 75 85 82 104l126 -56c-10 -28 -33 -119 -145 -184c-46 -27 -102 -38 -166 -42v-33c97 -5 155 -67 155 -171c0 -101 -100 -168 -184 -168c-66 0 -138 25 -194 61l38 106
c33 -18 73 -42 124 -42c36 0 77 20 80 58v2c0 29 -38 54 -86 54s-50 -7 -78 -17v152c-131 8 -223 43 -281 164c-35 72 -39 147 -39 233v43c4 104 6 235 12 428h-14c-28 0 -56 -4 -82 -11l-20 146c24 9 69 12 102 12h15c0 70 1 164 1 234l158 -1c0 -66 -1 -160 -2 -228h122
c145 1 299 2 299 2h18v-147h-317c-46 0 -73 -3 -119 -3c-9 -204 -10 -332 -14 -432z" />
    <glyph glyph-name="Tcaron" unicode="&#x164;" 
d="M484 1349l-370 318l104 107l267 -218l265 218l106 -107zM403 -9v1153c-198 0 -288 -1 -364 -1v155c122 0 576 1 764 1c73 0 122 -12 140 -15l-33 -152s-62 12 -112 12h-235v-1153h-160z" />
    <glyph glyph-name="tcaron" unicode="&#x165;" 
d="M863 1469c-38 -112 -64 -221 -109 -372l-152 34c18 142 46 283 67 386zM359 437v-40c0 -133 36 -234 147 -245c18 -2 95 -3 108 -3c65 0 129 10 154 24c57 30 75 85 82 104l126 -56c-10 -28 -33 -119 -145 -184c-58 -34 -130 -43 -215 -43c-184 0 -306 19 -377 167
c-35 72 -39 147 -39 233v43c4 104 6 235 12 428h-14c-28 0 -56 -4 -82 -11l-20 146c24 9 69 12 102 12h15c0 70 1 164 1 234l158 -1c0 -66 -1 -160 -2 -228h122c145 1 299 2 299 2h18v-147h-317c-46 0 -73 -3 -119 -3c-9 -204 -10 -332 -14 -432z" />
    <glyph glyph-name="Tbar" unicode="&#x166;" 
d="M403 577h-242v158h242v409c-198 0 -288 -1 -364 -1v155c122 0 576 1 764 1c73 0 122 -12 140 -15l-33 -152s-62 12 -112 12h-235v-409h253v-158h-253v-586h-160v586z" />
    <glyph glyph-name="tbar" unicode="&#x167;" 
d="M363 437v-40c0 -133 36 -234 147 -245c18 -2 95 -3 108 -3c65 0 129 10 154 24c57 30 75 85 82 104l126 -56c-10 -28 -33 -119 -145 -184c-58 -34 -130 -43 -215 -43c-184 0 -306 19 -377 167c-35 72 -39 147 -39 233v43c1 21 1 43 2 67h-178v158h182c1 59 4 126 6 203
h-14c-28 0 -56 -4 -82 -11l-20 146c24 9 69 12 102 12h15c0 70 1 164 1 234l158 -1c0 -66 -1 -160 -2 -228h122c145 1 299 2 299 2h18v-147h-317c-46 0 -73 -3 -119 -3c-4 -79 -6 -148 -8 -207h269v-158h-273c-1 -24 -1 -46 -2 -67z" />
    <glyph glyph-name="Utilde" unicode="&#x168;" 
d="M362 1673c148 0 206 -121 296 -121c64 0 133 39 147 127l148 -52c-32 -120 -149 -228 -281 -228c-140 0 -197 121 -298 121c-59 0 -117 -9 -155 -115l-138 74c74 164 171 194 281 194zM777 1313l157 -13c-9 -60 -9 -103 -9 -157c0 -145 2 -272 2 -383v-58
c0 -232 -4 -454 -116 -583c-82 -95 -190 -124 -319 -129c-308 0 -406 166 -424 457c-5 75 -7 197 -7 332c0 172 3 365 9 523h158c-4 -165 -8 -389 -8 -574c0 -123 2 -229 7 -289c18 -210 100 -298 252 -298c106 5 158 28 212 84c67 74 78 280 78 477c0 123 -5 269 -5 439
c0 71 3 110 13 172z" />
    <glyph glyph-name="utilde" unicode="&#x169;" 
d="M346 1379c148 0 206 -121 296 -121c64 0 133 39 147 127l148 -52c-32 -120 -149 -228 -281 -228c-140 0 -197 121 -298 121c-59 0 -117 -9 -155 -115l-138 74c74 164 171 194 281 194zM906 -10c-57 41 -111 82 -133 168c-84 -86 -181 -153 -331 -156h-9
c-62 0 -147 1 -207 42c-45 31 -112 88 -112 170c-3 268 4 697 -23 780l160 27c22 -92 17 -405 19 -771c6 -34 28 -60 50 -76c14 -10 65 -18 106 -18c67 3 108 11 159 42c47 28 116 58 154 146v676h158v-781c2 -52 51 -100 91 -132z" />
    <glyph glyph-name="Umacron" unicode="&#x16a;" 
d="M716 1590v-152h-17c-58 -2 -128 -2 -202 -2s-149 0 -217 2l-18 1v155l19 -2c65 -2 162 -2 254 -2h164h17zM777 1313l157 -13c-9 -60 -9 -103 -9 -157c0 -145 2 -272 2 -383v-58c0 -232 -4 -454 -116 -583c-82 -95 -190 -124 -319 -129c-308 0 -406 166 -424 457
c-5 75 -7 197 -7 332c0 172 3 365 9 523h158c-4 -165 -8 -389 -8 -574c0 -123 2 -229 7 -289c18 -210 100 -298 252 -298c106 5 158 28 212 84c67 74 78 280 78 477c0 123 -5 269 -5 439c0 71 3 110 13 172z" />
    <glyph glyph-name="umacron" unicode="&#x16b;" 
d="M736 1331.6v-152h-17c-58 -2 -128 -2 -202 -2s-149 0 -217 2l-18 1v155l19 -2c65 -2 162 -2 254 -2h164h17zM906 -10c-57 41 -111 82 -133 168c-84 -86 -181 -153 -331 -156h-9c-62 0 -147 1 -207 42c-45 31 -112 88 -112 170c-3 268 4 697 -23 780l160 27
c22 -92 17 -405 19 -771c6 -34 28 -60 50 -76c14 -10 65 -18 106 -18c67 3 108 11 159 42c47 28 116 58 154 146v676h158v-781c2 -52 51 -100 91 -132z" />
    <glyph glyph-name="Ubreve" unicode="&#x16c;" 
d="M510 1529c108 0 190 63 196 141l166 -30c-24 -177 -197 -264 -362 -264c-126 0 -308 48 -356 273l156 30c27 -117 107 -150 200 -150zM777 1313l157 -13c-9 -60 -9 -103 -9 -157c0 -145 2 -272 2 -383v-58c0 -232 -4 -454 -116 -583c-82 -95 -190 -124 -319 -129
c-308 0 -406 166 -424 457c-5 75 -7 197 -7 332c0 172 3 365 9 523h158c-4 -165 -8 -389 -8 -574c0 -123 2 -229 7 -289c18 -210 100 -298 252 -298c106 5 158 28 212 84c67 74 78 280 78 477c0 123 -5 269 -5 439c0 71 3 110 13 172z" />
    <glyph glyph-name="ubreve" unicode="&#x16d;" 
d="M518 1217c108 0 190 63 196 141l166 -30c-24 -177 -197 -264 -362 -264c-126 0 -308 48 -356 273l156 30c27 -117 107 -150 200 -150zM906 -10c-57 41 -111 82 -133 168c-84 -86 -181 -153 -331 -156h-9c-62 0 -147 1 -207 42c-45 31 -112 88 -112 170
c-3 268 4 697 -23 780l160 27c22 -92 17 -405 19 -771c6 -34 28 -60 50 -76c14 -10 65 -18 106 -18c67 3 108 11 159 42c47 28 116 58 154 146v676h158v-781c2 -52 51 -100 91 -132z" />
    <glyph glyph-name="Uring" unicode="&#x16e;" 
d="M419.5 1537c0 -35 36 -72 87 -72s85 37 85 72s-33 69 -85 69s-87 -34 -87 -69zM290.5 1535c0 111 102 195 217 195s216 -84 216 -195s-101 -195 -216 -195s-217 84 -217 195zM777 1313l157 -13c-9 -60 -9 -103 -9 -157c0 -145 2 -272 2 -383v-58
c0 -232 -4 -454 -116 -583c-82 -95 -190 -124 -319 -129c-308 0 -406 166 -424 457c-5 75 -7 197 -7 332c0 172 3 365 9 523h158c-4 -165 -8 -389 -8 -574c0 -123 2 -229 7 -289c18 -210 100 -298 252 -298c106 5 158 28 212 84c67 74 78 280 78 477c0 123 -5 269 -5 439
c0 71 3 110 13 172z" />
    <glyph glyph-name="uring" unicode="&#x16f;" 
d="M427.5 1242.9c0 -35 36 -72 87 -72s85 37 85 72s-33 69 -85 69s-87 -34 -87 -69zM298.5 1240.9c0 111 102 195 217 195s216 -84 216 -195s-101 -195 -216 -195s-217 84 -217 195zM906 -10c-57 41 -111 82 -133 168c-84 -86 -181 -153 -331 -156h-9c-62 0 -147 1 -207 42
c-45 31 -112 88 -112 170c-3 268 4 697 -23 780l160 27c22 -92 17 -405 19 -771c6 -34 28 -60 50 -76c14 -10 65 -18 106 -18c67 3 108 11 159 42c47 28 116 58 154 146v676h158v-781c2 -52 51 -100 91 -132z" />
    <glyph glyph-name="Uhungarumlaut" unicode="&#x170;" 
d="M543 1437c117 95 243 261 313 402l154 -100c-65 -144 -234 -323 -352 -417zM207 1444c117 95 243 261 313 402l154 -99c-65 -144 -235 -324 -353 -418zM777 1313l157 -13c-9 -60 -9 -103 -9 -157c0 -145 2 -272 2 -383v-58c0 -232 -4 -454 -116 -583
c-82 -95 -190 -124 -319 -129c-308 0 -406 166 -424 457c-5 75 -7 197 -7 332c0 172 3 365 9 523h158c-4 -165 -8 -389 -8 -574c0 -123 2 -229 7 -289c18 -210 100 -298 252 -298c106 5 158 28 212 84c67 74 78 280 78 477c0 123 -5 269 -5 439c0 71 3 110 13 172z" />
    <glyph glyph-name="uhungarumlaut" unicode="&#x171;" 
d="M521 1179c117 95 243 261 313 402l154 -100c-65 -144 -234 -323 -352 -417zM185 1186c117 95 243 261 313 402l154 -99c-65 -144 -235 -324 -353 -418zM906 -10c-57 41 -111 82 -133 168c-84 -86 -181 -153 -331 -156h-9c-62 0 -147 1 -207 42c-45 31 -112 88 -112 170
c-3 268 4 697 -23 780l160 27c22 -92 17 -405 19 -771c6 -34 28 -60 50 -76c14 -10 65 -18 106 -18c67 3 108 11 159 42c47 28 116 58 154 146v676h158v-781c2 -52 51 -100 91 -132z" />
    <glyph glyph-name="Uogonek" unicode="&#x172;" 
d="M777 1313l157 -13c-9 -60 -9 -103 -9 -157c0 -145 2 -272 2 -383v-58c0 -232 -4 -454 -116 -583c-98 -119 -266 -191 -266 -346c0 -56 56 -83 120 -83c58 0 99 33 129 55l78 -107c-44 -48 -132 -93 -211 -93c-188 0 -271 93 -271 228c0 102 54 148 125 218
c-7 0 -15 -1 -23 -1c-308 0 -406 166 -424 457c-5 75 -7 197 -7 332c0 172 3 365 9 523h158c-4 -165 -8 -389 -8 -574c0 -123 2 -229 7 -289c18 -210 100 -298 252 -298c106 5 158 28 212 84c67 74 78 280 78 477c0 123 -5 269 -5 439c0 71 3 110 13 172z" />
    <glyph glyph-name="uogonek" unicode="&#x173;" 
d="M984 82c-228 -196 -368 -210 -368 -298c0 -56 56 -83 120 -83c58 0 99 33 129 55l78 -107c-44 -48 -132 -93 -211 -93c-188 0 -271 93 -271 228c0 146 187 197 343 302c-12 16 -22 38 -31 72c-84 -86 -181 -153 -331 -156h-9c-62 0 -147 1 -207 42
c-45 31 -112 88 -112 170c-3 268 4 697 -23 780l160 27c22 -92 17 -405 19 -771c6 -34 28 -60 50 -76c14 -10 65 -18 106 -18c67 3 108 11 159 42c47 28 116 58 154 146l1 676h158l-1 -781c2 -52 47 -125 87 -157z" />
    <glyph glyph-name="Wcircumflex" unicode="&#x174;" 
d="M503 1793l375 -328l-107 -107l-271 221l-261 -221l-104 107zM332 0h-131c-43 170 -149 1035 -195 1286l154 32c120 -643 86 -710 130 -1020c70 230 139 588 145 659c45 0 133 0 167 12c36 -191 84 -484 142 -669c33 285 -3 324 124 1015l158 -32
c-52 -251 -158 -1105 -191 -1283h-136s-146 429 -178 613c-47 -225 -181 -591 -189 -613z" />
    <glyph glyph-name="wcircumflex" unicode="&#x175;" 
d="M487 1504l375 -328l-107 -107l-271 221l-261 -221l-104 107zM6 976l148 76c34 -59 65 -137 88 -257c46 -242 43 -468 50 -646c119 0 181 153 181 412v263h140v-304c0 -158 41 -271 72 -373c90 0 164 161 164 534c0 124 -12 269 -24 339h156c5 -47 8 -230 8 -310
c0 -490 -129 -710 -341 -710h-20h-34c-17 64 -43 147 -57 209c-37 -80 -121 -209 -313 -212h-6h-6c-27 1 -43 5 -60 12c-5 104 -15 574 -69 781c-16 59 -56 149 -77 186z" />
    <glyph glyph-name="Ycircumflex" unicode="&#x176;" 
d="M483 1817l375 -328l-107 -107l-271 221l-261 -221l-104 107zM399 -6v141c0 90 7 347 7 466c-79 111 -322 550 -373 656l140 71c40 -77 232 -432 319 -569c98 139 298 495 336 582l139 -79c-47 -94 -120 -236 -225 -404c-87 -131 -157 -242 -176 -268
c0 -47 -2 -95 -2 -149c-3 -132 -5 -274 -5 -316v-131h-160z" />
    <glyph glyph-name="ycircumflex" unicode="&#x177;" 
d="M497 1504l375 -328l-107 -107l-271 221l-261 -221l-104 107zM336 -223c106 0 160 185 198 291c-94 328 -213 645 -351 769c-33 30 -74 31 -110 31v153c33 0 83 -4 111 -8c167 -25 329 -401 442 -726c74 217 140 506 148 733h158c0 -60 -5 -117 -14 -168
c-65 -353 -166 -683 -298 -994c-53 -135 -131 -234 -280 -234c-175 0 -284 106 -284 376h156c0 -177 44 -223 124 -223z" />
    <glyph glyph-name="Ydieresis" unicode="&#x178;" 
d="M153 1631l235 -3v-225l-235 3v225zM559 1628l235 -3v-225l-235 3v225zM399 -6v141c0 90 7 347 7 466c-79 111 -322 550 -373 656l140 71c40 -77 232 -432 319 -569c98 139 298 495 336 582l139 -79c-47 -94 -120 -236 -225 -404c-87 -131 -157 -242 -176 -268
c0 -47 -2 -95 -2 -149c-3 -132 -5 -274 -5 -316v-131h-160z" />
    <glyph glyph-name="Zacute" unicode="&#x179;" 
d="M312 1488c143 48 352 205 467 313l123 -146c-111 -112 -379 -268 -522 -315zM123 -5l-95 88l727 1067c-214 0 -552 -5 -666 -5l-1 153c120 0 542 4 730 4c75 0 121 -13 140 -16c-3 -33 -14 -114 -18 -137l-677 -998l487 -1c85 0 112 4 177 25l40 -148
c-45 -16 -83 -30 -158 -30h-243c-212 0 -388 -2 -436 -2h-7z" />
    <glyph glyph-name="zacute" unicode="&#x17a;" 
d="M290 1194c143 48 352 205 467 313l123 -146c-111 -112 -379 -268 -522 -315zM96 874l27 151c46 -5 154 -5 278 -5h478l24 -115c-11 -11 -146 -169 -351 -382c-123 -125 -231 -234 -306 -367l538 -1c56 0 108 -12 169 -32l-40 -145c-45 13 -62 22 -127 22h-715v20
c0 73 1 125 22 169c76 159 206 280 343 429c96 105 176 185 238 243h-31c-67 0 -158 2 -245 2c-125 0 -245 2 -302 11z" />
    <glyph glyph-name="Zdotaccent" unicode="&#x17b;" 
d="M428 1644l236 -3v-225l-236 3v225zM123 -5l-95 88l727 1067c-214 0 -552 -5 -666 -5l-1 153c120 0 542 4 730 4c75 0 121 -13 140 -16c-3 -33 -14 -114 -18 -137l-677 -998l487 -1c85 0 112 4 177 25l40 -148c-45 -16 -83 -30 -158 -30h-243c-212 0 -388 -2 -436 -2h-7z
" />
    <glyph glyph-name="zdotaccent" unicode="&#x17c;" 
d="M385 1403h235v-225h-235v225zM96 874l27 151c46 -5 154 -5 278 -5h478l24 -115c-11 -11 -146 -169 -351 -382c-123 -125 -231 -234 -306 -367l538 -1c56 0 108 -12 169 -32l-40 -145c-45 13 -62 22 -127 22h-715v20c0 73 1 125 22 169c76 159 206 280 343 429
c96 105 176 185 238 243h-31c-67 0 -158 2 -245 2c-125 0 -245 2 -302 11z" />
    <glyph glyph-name="Zcaron" unicode="&#x17d;" 
d="M520 1364l-370 318l104 107l267 -218l265 218l106 -107zM123 -5l-95 88l727 1067c-214 0 -552 -5 -666 -5l-1 153c120 0 542 4 730 4c75 0 121 -13 140 -16c-3 -33 -14 -114 -18 -137l-677 -998l487 -1c85 0 112 4 177 25l40 -148c-45 -16 -83 -30 -158 -30h-243
c-212 0 -388 -2 -436 -2h-7z" />
    <glyph glyph-name="zcaron" unicode="&#x17e;" 
d="M546 1055l-370 318l104 107l267 -218l265 218l106 -107zM96 874l27 151c46 -5 154 -5 278 -5h478l24 -115c-11 -11 -146 -169 -351 -382c-123 -125 -231 -234 -306 -367l538 -1c56 0 108 -12 169 -32l-40 -145c-45 13 -62 22 -127 22h-715v20c0 73 1 125 22 169
c76 159 206 280 343 429c96 105 176 185 238 243h-31c-67 0 -158 2 -245 2c-125 0 -245 2 -302 11z" />
    <glyph glyph-name="longs" unicode="&#x17f;" 
d="M867 1256c-42 8 -110 10 -181 10c-148 0 -156 -98 -156 -206v-47c0 -154 2 -1009 2 -1013h-156c0 25 -2 712 -4 859h-224v153h226c0 16 -2 33 -2 52c0 143 28 354 306 354c76 0 158 -3 218 -14z" />
    <glyph glyph-name="Euro" unicode="&#x20ac;" 
d="M783 833l-51 -151h-12c-57 -2 -88 -6 -164 -6h-242c-1 -23 -2 -45 -2 -67v-25c30 -1 48 -1 86 -1c86 0 186 1 275 2h26l-52 -150l-321 -4c27 -178 125 -307 241 -307h19c99 0 179 57 227 163l131 -87c-74 -174 -224 -231 -363 -231c-79 0 -199 34 -283 144
c-66 85 -110 196 -129 319c-29 1 -53 1 -78 1c-19 0 -38 0 -63 -1l-24 -1l6 25c8 37 31 69 50 116l4 11h11c42 1 66 1 85 1v48s0 30 1 44c-63 1 -106 1 -135 3l-25 2l10 26c17 46 37 83 50 114l5 12l12 -1c17 -1 53 -2 99 -3c19 113 48 197 82 273c82 179 240 241 339 241
c108 0 213 -56 305 -159l-65 -185c-54 103 -142 181 -243 181c-132 0 -227 -157 -264 -353h109h188c52 2 87 4 129 5z" />
    <glyph glyph-name="uniE000" unicode="&#xe000;" 
d="M76 491c59 112 122 153 186 153c104 0 199 -100 257 -100c23 0 47 16 70 80l9 26l104 -104l-7 -14c-55 -102 -115 -142 -176 -142c-104 0 -192 96 -250 96c-27 0 -50 -11 -75 -77l-8 -22l-119 88z" />
    <glyph glyph-name="uniE001" unicode="&#xe001;" 
d="M406 -11c-131 6 -187 165 -187 310v4c0 77 17 158 52 221c58 104 132 137 201 140h8c36 0 65 -12 84 -23c-9 165 -18 253 -102 253c-59 0 -66 -34 -122 -167l-8 -18l-104 61l6 17c55 176 130 254 228 257c41 0 99 -19 140 -77c42 -60 80 -162 80 -304v-434
c3 -74 8 -72 27 -96c1 -2 5 -5 8 -7c10 6 16 23 22 43c32 98 35 217 35 346c0 385 -139 676 -318 676c-178 0 -310 -290 -310 -676s140 -677 310 -677c60 0 118 33 168 90l12 15l77 -96l-11 -13c-63 -73 -160 -146 -246 -146c-247 0 -433 380 -433 827s186 828 433 828
s432 -381 432 -828c0 -151 -22 -293 -58 -417c-9 -27 -41 -124 -108 -124h-3h-2l-1 1c-19 5 -48 16 -68 41h-1c-12 18 -38 43 -51 94c-23 -30 -43 -45 -72 -72c-32 -27 -73 -49 -118 -49zM405 141c26 0 54 14 71 29c65 59 78 129 89 164c0 33 -1 99 -1 118
c-31 43 -61 61 -92 61h-3c-55 -2 -121 -98 -121 -203v-5c3 -104 34 -164 57 -164z" />
    <glyph glyph-name="uniE002" unicode="&#xe002;" 
d="M800 703v-37v-435c3 -72 22 -105 54 -133l17 -15l-95 -79l-11 16c-13 19 -38 43 -51 93c-23 -30 -43 -45 -72 -72c-32 -27 -72 -50 -118 -50c-135 7 -209 242 -209 387v3v41c0 74 4 178 53 289c50 112 135 140 203 143h6c43 0 81 -19 103 -33c-2 33 -3 61 -5 82
c-9 128 -20 295 -166 295c-157 0 -296 -293 -296 -680c0 -386 140 -678 310 -678c60 0 118 34 168 91l12 15l76 -96l-10 -13c-63 -73 -160 -147 -246 -147c-247 0 -433 381 -433 828c0 446 172 833 419 833c265 0 291 -355 291 -648zM524 144c26 0 53 14 70 29
c65 59 78 128 89 163v285c-32 44 -87 81 -116 81c-100 0 -123 -204 -123 -327v-15c3 -104 59 -216 80 -216z" />
    <glyph glyph-name="gravecomb" unicode="&#x300;" 
d="M752 1428l-68 -148c-143 47 -411 203 -522 315l123 146c115 -108 324 -265 467 -313z" />
    <glyph glyph-name="acutecomb" unicode="&#x301;" 
d="M224 1428c143 48 352 205 467 313l123 -146c-111 -112 -379 -268 -522 -315z" />
    <glyph glyph-name="uni0302" unicode="&#x302;" 
d="M519 1700l375 -328l-107 -107l-271 221l-261 -221l-104 107z" />
    <glyph glyph-name="tildecomb" unicode="&#x303;" 
d="M341 1686c148 0 206 -121 296 -121c64 0 133 39 147 127l148 -52c-32 -120 -149 -228 -281 -228c-140 0 -197 121 -298 121c-59 0 -117 -9 -155 -115l-138 74c74 164 171 194 281 194z" />
    <glyph glyph-name="uni0304" unicode="&#x304;" 
d="M710 1625v-152h-17c-58 -2 -128 -2 -202 -2s-149 0 -217 2l-18 1v155l19 -2c65 -2 162 -2 254 -2h164h17z" />
    <glyph glyph-name="uni0305" unicode="&#x305;" 
d="M861 1625v-152h-774v155z" />
    <glyph glyph-name="uni0306" unicode="&#x306;" 
d="M510 1510c108 0 190 63 196 141l166 -30c-24 -177 -197 -264 -362 -264c-126 0 -308 48 -356 273l156 30c27 -117 107 -150 200 -150z" />
    <glyph glyph-name="uni0308" unicode="&#x308;" 
d="M583 1638l235 -3v-225l-235 3v225zM177 1641l235 -3v-225l-235 3v225z" />
    <glyph glyph-name="uni0307" unicode="&#x307;" 
d="M334 1651l236 -3v-225l-236 3v225z" />
    <glyph glyph-name="uni030A" unicode="&#x30a;" 
d="M520 1543c-55 0 -90 -35 -90 -70s36 -71 90 -71s91 36 91 71s-36 70 -91 70zM292 1473c0 111 106 195 229 195s229 -84 229 -195c0 -110 -96 -187 -229 -187c-127 0 -229 78 -229 187z" />
    <glyph glyph-name="uni0237" unicode="&#x237;" 
d="M627 -114l-1 978h-16c-98 0 -150 -8 -240 -29l-28 142c112 26 220 42 324 42h117v-1137c0 -145 -61 -269 -299 -269c-123 0 -267 22 -393 227l126 98c99 -162 183 -169 246 -169h17c112 0 145 82 147 117z" />
    <glyph glyph-name="uni030B" unicode="&#x30b;" 
d="M445 1273c117 95 243 261 313 402l154 -100c-65 -144 -234 -323 -352 -417zM109 1280c117 95 243 261 313 402l154 -99c-65 -144 -235 -324 -353 -418z" />
    <glyph glyph-name="uni030C" unicode="&#x30c;" 
d="M521 1218l-370 318l104 107l267 -218l265 218l106 -107z" />
    <glyph glyph-name="uni030F" unicode="&#x30f;" 
d="M903 1295l-125 -104c-108 105 -259 302 -310 451l164 83c56 -147 164 -324 271 -430zM577 1266l-125 -104c-108 105 -259 302 -310 451l164 83c56 -147 164 -324 271 -430z" />
    <glyph glyph-name="hookabovecomb" unicode="&#x309;" 
d="M626 953l-146 4v188c28 -10 30 -17 78 -17s86 25 86 54v2c-3 38 -44 58 -80 58c-51 0 -91 -24 -124 -42l-38 106c56 36 128 61 194 61c84 0 184 -67 184 -168c0 -104 -58 -166 -155 -171c0 -3 0 -67 1 -75z" />
    <glyph glyph-name="uni030D" unicode="&#x30d;" 
d="M423 1628h159v-348h-159v348z" />
    <glyph glyph-name="uni030E" unicode="&#x30e;" 
d="M587 1628h159v-348h-159v348zM323 1628h159v-348h-159v348z" />
    <glyph glyph-name="uni0191" unicode="&#x191;" 
d="M17 -80c99 0 183 79 183 178l-1 1201l602 -1c77 -3 125 -18 159 -35l-56 -146c-26 14 -48 27 -146 28h-70c-104 0 -150 0 -333 -1v-328c120 0 104 2 226 2c88 0 147 -14 148 -14l18 -5l-36 -145c-37 9 -88 14 -133 14h-93c-36 0 -65 0 -130 -2c0 -121 5 -482 5 -575
c0 -192 -150 -328 -335 -336z" />
    <glyph glyph-name="florin" unicode="&#x192;" 
d="M330 152c0 25 -2 560 -4 707h-142v153h144c0 16 -2 33 -2 52c0 143 29 354 306 354c161 0 295 -26 379 -193l-126 -77c-50 98 -113 118 -245 118c-147 0 -157 -98 -157 -206v-47c68 0 127 -1 200 -1c104 -3 131 -11 161 -20l-29 -146c-21 7 -42 13 -98 13h-234
c1 -154 5 -703 5 -707c0 -257 -71 -465 -401 -465l12 147c173 0 231 73 231 318z" />
    <glyph glyph-name="alpha" unicode="&#x3b1;" 
d="M230 527c0 -370 189 -377 207 -377h13c85 0 149 148 213 344c-74 251 -122 371 -239 371c-78 0 -194 -99 -194 -338zM823 493c24 -77 50 -164 82 -261c19 -58 43 -98 109 -124l-68 -140c-128 32 -172 152 -190 212c-7 23 -14 46 -21 68c-65 -148 -150 -255 -281 -255
c-288 0 -383 266 -383 534c0 367 189 491 364 491c165 0 234 -78 306 -275c31 99 63 198 99 291l146 -70c-65 -126 -111 -303 -163 -471z" />
    <glyph glyph-name="beta" unicode="&#x3b2;" 
d="M599 153c122 0 191 108 191 242c0 261 -209 274 -497 274v153c165 0 308 0 308 183c0 113 -74 171 -211 171c-96 -1 -157 -93 -157 -183c0 -100 3 -384 4 -626c97 -175 193 -214 362 -214zM238 112v-73c0 -124 -3 -242 -11 -339l-151 17c10 100 13 209 13 320
c0 187 -9 792 -9 966c0 156 111 325 310 325c203 0 364 -95 364 -317c0 -102 -28 -179 -84 -232c177 -49 274 -181 274 -398c0 -210 -93 -379 -345 -381h-7c-154 0 -264 39 -354 112z" />
    <glyph glyph-name="gamma" unicode="&#x3b3;" 
d="M491 -376c0 107 -3 366 -21 444c-57 247 -196 559 -290 716c-35 59 -72 89 -84 96c-15 9 -36 9 -61 9c-5 0 -10 -1 -15 -1v153c33 0 72 -1 100 -5c63 -10 113 -60 173 -153c97 -152 199 -395 269 -596c74 217 248 773 248 773l154 -56s-225 -616 -321 -988
c6 -82 7 -190 7 -306v-88z" />
    <glyph glyph-name="delta" unicode="&#x3b4;" 
d="M902 504c0 -260 -96 -503 -418 -503h-2c-272 1 -410 183 -410 463c0 191 61 340 245 415c-45 22 -85 42 -112 63c-46 37 -86 92 -86 168c0 19 3 39 8 61c40 159 180 208 345 208c124 0 263 -28 384 -57l-38 -158c-133 37 -256 63 -352 63c-89 0 -154 -23 -181 -80
c-5 -11 -7 -21 -7 -30c0 -28 21 -48 48 -67c242 -156 576 -212 576 -546zM506 786c-165 -32 -276 -122 -276 -317s87 -313 254 -313c76 1 120 17 170 59c69 64 91 150 91 291c0 125 -113 211 -239 280z" />
    <glyph glyph-name="epsilon" unicode="&#x3b5;" 
d="M996 131c-71 -53 -214 -135 -437 -135c-182 0 -263 35 -338 94c-77 61 -90 146 -90 211c0 130 65 247 217 283c-161 11 -217 107 -217 205c0 146 138 235 448 235h14c232 0 304 -52 322 -64l-68 -130c-24 15 -120 41 -266 41c-204 0 -294 -25 -294 -88
c0 -114 282 -122 393 -122h5h18v-152c-26 0 -52 1 -78 1c-63 0 -125 -4 -199 -32c-111 -41 -138 -112 -138 -179c0 -93 91 -149 272 -149c168 0 299 56 350 102z" />
    <glyph glyph-name="zeta" unicode="&#x3b6;" 
d="M203 1428c40 -42 86 -76 167 -76c165 0 435 6 566 24l53 -169c-392 -209 -682 -434 -682 -727c0 -210 90 -330 240 -330c3 0 120 1 123 1c175 0 307 -60 307 -217c0 -208 -220 -230 -310 -240l-24 138c84 13 178 29 178 91c0 74 -51 77 -139 77h-20h-163
c-201 0 -351 177 -351 504c0 306 280 563 602 714c-124 -19 -233 -27 -360 -27c-115 0 -213 27 -290 109z" />
    <glyph glyph-name="eta" unicode="&#x3b7;" 
d="M271 900c108 79 223 122 333 122c121 0 289 -77 289 -226v-875c0 -66 13 -203 31 -251l-158 -32c-18 79 -32 147 -32 276v851c0 74 -85 107 -152 107c-63 0 -179 -52 -310 -139l-1 -733l-158 -1v706c0 178 -8 204 -32 298l160 37c10 -24 23 -91 30 -140z" />
    <glyph glyph-name="theta" unicode="&#x3b8;" 
d="M288 247c49 -65 114 -110 222 -110c116 0 187 87 232 170c35 56 63 198 70 299c-44 7 -100 10 -166 10c-122 0 -277 -10 -445 -19c3 -126 36 -283 87 -350zM522 1395c110 0 450 -6 450 -742v-11c0 -164 -46 -318 -94 -411c-75 -144 -203 -247 -368 -247
c-122 0 -247 48 -328 148c-90 110 -141 264 -141 513c0 306 89 486 159 581c66 90 180 169 322 169zM810 766v13c0 95 -31 235 -67 307c-58 114 -144 156 -216 156c-78 0 -139 -32 -197 -108c-54 -70 -114 -227 -122 -381c219 15 363 21 459 21c68 0 113 -3 143 -8z" />
    <glyph glyph-name="iota" unicode="&#x3b9;" 
d="M417 1013h120c0 -273 1 -754 1 -754c0 -118 45 -135 137 -135c93 0 185 61 235 175l114 -78c-70 -150 -164 -239 -348 -239c-85 0 -161 14 -205 38c-85 47 -93 176 -93 235v602c-49 0 -163 -6 -258 -28l-29 142c112 26 222 42 326 42z" />
    <glyph glyph-name="kappa" unicode="&#x3ba;" 
d="M558 605c110 -127 375 -420 426 -555l-134 -76c-46 109 -285 390 -404 527c0 0 -119 -102 -174 -177v-324h-156v1020h156v-470c93 92 198 175 305 269c207 178 285 211 308 230l97 -129c-193 -116 -358 -247 -424 -315z" />
    <glyph glyph-name="lambda" unicode="&#x3bb;" 
d="M176 -17l-140 84c97 104 338 701 457 952c-20 145 -41 247 -112 247c-52 0 -88 -48 -88 -112h-156c0 129 80 267 240 267c149 0 206 -78 240 -205c37 -137 137 -699 218 -950c22 -68 30 -110 56 -110s46 41 46 41l101 -110c-59 -65 -76 -87 -162 -87
c-79 0 -143 60 -176 160c-65 198 -132 497 -151 600c-134 -284 -195 -487 -373 -777z" />
    <glyph glyph-name="mu" unicode="&#x3bc;" 
d="M906 -10c-57 41 -111 92 -133 168c-84 -86 -181 -153 -331 -156h-9c-48 0 -135 4 -172 34l5 -436h-157l5 614c-3 268 4 697 -23 780l160 27c22 -92 17 -405 19 -771c6 -34 28 -60 50 -76c14 -10 65 -18 106 -18c67 3 108 11 159 42c47 28 116 58 154 146l1 657h158
l-1 -745c0 -44 72 -114 120 -136z" />
    <glyph glyph-name="nu" unicode="&#x3bd;" 
d="M153 1048c70 -75 97 -113 123 -188c45 -126 214 -604 225 -708c245 64 289 254 289 547c0 114 -21 193 -77 267l153 83c57 -92 80 -180 80 -361c0 -288 -56 -435 -175 -550c-66 -63 -164 -138 -404 -141c0 140 -201 688 -263 842c-8 21 -54 88 -80 113z" />
    <glyph glyph-name="xi" unicode="&#x3be;" 
d="M139 1428c40 -42 86 -76 167 -76c165 0 332 6 463 24l42 -161c-125 -47 -374 -139 -374 -251c0 -93 155 -115 305 -115v-154c-243 -35 -503 -148 -503 -394c0 -120 92 -151 242 -151c3 0 120 1 123 1c175 0 307 -60 307 -217c0 -208 -224 -244 -314 -254l-20 153
c84 13 178 28 178 90c0 74 -51 77 -139 77h-20h-163c-201 0 -353 58 -353 325c0 252 220 396 336 432c-42 11 -153 36 -153 210c0 110 83 169 193 213c39 15 78 34 104 46c-45 -4 -92 -15 -135 -22c-46 -7 -93 -13 -143 -13c-98 0 -169 27 -246 109z" />
    <glyph glyph-name="omicron" unicode="&#x3bf;" 
d="M482 1c-272 1 -410 183 -410 463c0 292 102 568 394 568c197 0 307 -69 377 -201c41 -79 59 -192 59 -288c0 -285 -96 -542 -418 -542h-2zM654 215c65 61 89 167 89 315v18c-2 184 -66 330 -243 330c-208 0 -270 -165 -270 -409c0 -195 87 -313 254 -313
c76 1 120 17 170 59z" />
    <glyph glyph-name="pi" unicode="&#x3c0;" 
d="M761 1020c106 0 148 22 180 64l107 -119c-78 -88 -156 -102 -253 -105v-615c0 -100 45 -104 83 -104c45 0 72 10 98 39l79 -114c-51 -56 -116 -74 -185 -74c-131 0 -233 81 -233 270v598h-277v-306c0 -286 -56 -505 -70 -562l-162 20c18 68 72 252 72 546v295
c-36 0 -86 -3 -128 -23l-38 168c43 16 100 22 161 22h566z" />
    <glyph glyph-name="rho" unicode="&#x3c1;" 
d="M139 562c0 292 156 470 394 470c197 0 307 -69 377 -201c41 -79 59 -192 59 -288c0 -285 -73 -543 -395 -543h-2c-137 0 -240 107 -289 195l13 -270c6 -131 32 -260 57 -321l-155 -42c-28 62 -60 229 -60 368zM810 530v18c-2 184 -66 330 -243 330
c-143 0 -270 -85 -270 -329c0 -192 144 -393 289 -393c177 2 224 173 224 374z" />
    <glyph glyph-name="sigma1" unicode="&#x3c2;" 
d="M230 527c0 -377 212 -372 278 -377c262 -21 408 -71 408 -245c0 -96 -50 -248 -314 -256l-22 152c114 14 180 31 180 100c0 66 -163 83 -248 92c-308 31 -441 194 -441 534c0 367 178 491 493 491c95 0 169 -24 229 -70c61 -47 92 -107 114 -159l-154 -60
c-11 41 -40 136 -200 136c-221 0 -323 -99 -323 -338z" />
    <glyph glyph-name="sigma" unicode="&#x3c3;" 
d="M625 874h-22h-41c-256 0 -332 -161 -332 -405c0 -195 87 -313 254 -313c160 0 226 141 226 301c0 133 -10 281 -85 417zM796 872c66 -120 73 -290 73 -402c0 -235 -108 -469 -385 -469h-2c-272 1 -410 183 -410 463c0 292 108 555 461 558c17 0 76 1 148 1
c127 0 294 -2 345 -11l-20 -153c-45 7 -128 11 -210 13z" />
    <glyph glyph-name="tau" unicode="&#x3c4;" 
d="M560 1020h122h139h147h18v-147l-304 2h-121c-9 -204 -8 -335 -12 -435v-40c0 -196 12 -248 156 -248c70 0 117 58 145 134l132 -58c-20 -56 -78 -231 -275 -231c-263 0 -317 112 -317 400v43c4 104 4 243 10 436c-20 -1 -134 -2 -134 -2c-70 -1 -128 -35 -178 -67
l-68 126c50 44 145 86 241 86z" />
    <glyph glyph-name="upsilon" unicode="&#x3c5;" 
d="M114 366v183c0 204 -2 392 -23 456l160 27c17 -72 19 -254 19 -459v-171c0 -179 64 -250 197 -250c58 0 169 41 225 121c87 125 98 227 98 465c0 92 -22 194 -54 264l160 44c36 -84 50 -226 50 -292v-12v-37c0 -191 -5 -402 -178 -582c-63 -66 -183 -127 -346 -127
c-193 0 -308 171 -308 370z" />
    <glyph glyph-name="phi" unicode="&#x3c6;" 
d="M578 145c79 20 134 73 170 139c40 64 67 233 68 340v19c0 169 -28 251 -139 251h-1c-27 0 -100 -1 -100 -250c0 -142 1 -326 2 -499zM579 -11c2 -204 4 -366 5 -387l-162 2c-2 21 -2 185 -2 388c-92 17 -180 60 -241 135c-90 110 -138 262 -138 442c0 228 54 394 147 475
l126 -90c-81 -84 -116 -189 -116 -381c0 -104 30 -258 86 -331c34 -45 77 -78 136 -94v492c0 315 111 400 255 400c139 0 297 -30 297 -408v-11c0 -164 -44 -317 -92 -410c-64 -123 -169 -202 -301 -222z" />
    <glyph glyph-name="chi" unicode="&#x3c7;" 
d="M424 289c-53 176 -101 342 -213 503c-58 84 -113 96 -191 96v153c147 0 215 -9 311 -128c104 -129 201 -442 201 -442c93 201 278 589 278 589l154 -56s-184 -377 -345 -710c43 -173 220 -536 295 -536c31 0 29 19 37 31l92 -59c-6 -38 -30 -128 -132 -128
c-218 0 -359 401 -401 521l-249 -533l-152 72z" />
    <glyph glyph-name="psi" unicode="&#x3c8;" 
d="M72 366v183c0 204 -2 392 -23 456l160 27c17 -72 19 -254 19 -459v-171c0 -162 76 -236 200 -248c1 284 5 539 5 773v93h160v-145c0 -236 -2 -444 -3 -707c66 19 118 54 154 105c87 125 98 227 98 465c0 92 -22 194 -54 264l160 44c36 -84 50 -226 50 -292v-12v-37
c0 -191 -5 -402 -178 -582c-46 -48 -105 -94 -230 -115v-132c0 -115 -1 -171 -6 -272l-161 1c4 62 5 105 5 160c0 47 -1 103 -1 189v42h-5c-220 0 -350 171 -350 370z" />
    <glyph glyph-name="omega" unicode="&#x3c9;" 
d="M434 684l159 19c-2 -85 -1 -179 -2 -272c1 -8 1 -17 1 -26c2 -181 52 -261 133 -261c89 0 117 126 117 276c0 213 -28 415 -113 547l152 66c108 -181 118 -451 118 -592c0 -223 -53 -453 -298 -453c-75 0 -142 45 -189 116c-50 -70 -119 -114 -195 -114
c-226 0 -282 230 -282 454c0 168 6 414 116 597l152 -66c-81 -127 -106 -300 -106 -507c0 -169 33 -323 113 -323c70 0 115 51 128 176c-1 16 -2 31 -2 47c-1 106 0 216 -2 316z" />
    <glyph glyph-name="iotadieresis" unicode="&#x3ca;" 
d="M157 1407.2l235 -3v-225l-235 3v225zM563 1404.2l235 -3v-225l-235 3v225zM417 1013h120c0 -273 1 -754 1 -754c0 -118 45 -135 137 -135c93 0 185 61 235 175l114 -78c-70 -150 -164 -239 -348 -239c-85 0 -161 14 -205 38c-85 47 -93 176 -93 235v602
c-49 0 -163 -6 -258 -28l-29 142c112 26 222 42 326 42z" />
    <glyph glyph-name="upsilondieresis" unicode="&#x3cb;" 
d="M188 1408l235 -3v-225l-235 3v225zM594 1405l235 -3v-225l-235 3v225zM114 366v183c0 204 -2 392 -23 456l160 27c17 -72 19 -254 19 -459v-171c0 -179 64 -250 197 -250c58 0 169 41 225 121c87 125 98 227 98 465c0 92 -22 194 -54 264l160 44c36 -84 50 -226 50 -292
v-12v-37c0 -191 -5 -402 -178 -582c-63 -66 -183 -127 -346 -127c-193 0 -308 171 -308 370z" />
    <glyph glyph-name="Alpha" unicode="&#x391;" 
d="M461 1298h112l424 -1287l-164 -30l-99 345c-141 -3 -336 -2 -447 -29l-102 -321l-162 24zM677 490l-160 492l-173 -512c60 13 110 15 193 19z" />
    <glyph glyph-name="Beta" unicode="&#x392;" 
d="M708 578c-73 61 -134 71 -229 71c-49 0 -107 -2 -180 -2h-44c-2 -237 -3 -418 -4 -494c108 0 148 -7 223 -7c40 0 75 2 110 7c106 13 199 112 199 256c0 79 -23 126 -75 169zM591 992c0 113 -97 158 -234 158h-17c-39 0 -55 -2 -85 -5c3 -37 4 -81 4 -128
c0 -67 -2 -140 -2 -214c146 3 196 -4 286 51c27 16 48 71 48 130v8zM97 823c0 173 -3 335 -12 462c81 6 130 14 243 14h18c206 0 402 -81 402 -297c0 -96 -25 -179 -86 -235c155 -52 280 -184 280 -374c0 -225 -149 -370 -316 -390c-39 -5 -80 -8 -119 -8
c-85 0 -175 8 -283 8h-136c0 194 9 404 9 820z" />
    <glyph glyph-name="Gamma" unicode="&#x393;" 
d="M111 1301h684c75 0 113 -14 160 -30l-41 -146c-44 15 -62 19 -121 22h-521v-1147h-161v1301z" />
    <glyph glyph-name="Epsilon" unicode="&#x395;" 
d="M102 1293c56 4 126 4 204 4h98h110c149 0 285 -3 359 -3h16v-150h-629v-328h438v-150h-438v-30c0 -203 -3 -412 -3 -489l525 2c56 0 117 26 117 26l44 -148c-48 -13 -83 -30 -159 -30h-682v1296z" />
    <glyph glyph-name="Zeta" unicode="&#x396;" 
d="M123 -5l-95 88l727 1067c-214 0 -552 -5 -666 -5l-1 153c120 0 542 4 730 4c75 0 121 -13 140 -16c-3 -33 -14 -114 -18 -137l-677 -998l487 -1c85 0 112 4 177 25l40 -148c-45 -16 -83 -30 -158 -30h-243c-212 0 -388 -2 -436 -2h-7z" />
    <glyph glyph-name="Eta" unicode="&#x397;" 
d="M220 1296l-1 -547c92 21 187 28 307 28h228c0 274 -1 352 -1 514h159v-1291h-158v625h-129c-146 0 -288 -3 -406 -28c0 -343 2 -416 2 -597h-161v1294z" />
    <glyph glyph-name="Theta" unicode="&#x398;" 
d="M284 242c49 -65 118 -105 226 -105c116 0 188 67 233 150c40 64 70 230 71 337v19c0 115 -18 268 -71 371c-58 114 -128 156 -216 156c-95 0 -151 -28 -209 -104c-69 -89 -118 -231 -118 -493c0 -104 28 -258 84 -331zM522 1323c124 0 445 -74 450 -691v-11
c0 -164 -44 -317 -92 -410c-75 -144 -205 -227 -370 -227c-122 0 -250 43 -331 143c-90 110 -138 262 -138 442c0 345 77 494 147 589c66 90 178 162 334 165zM296 725h414v-153h-414v153z" />
    <glyph glyph-name="Iota" unicode="&#x399;" 
d="M132 1298c156 4 257 4 353 4c105 0 205 -1 368 -3v-152c-123 0 -175 5 -271 5v-1000c46 0 72 1 123 1c45 0 92 -1 144 -4v-150c-85 5 -147 6 -210 6c-47 0 -96 -1 -155 -1c-74 0 -195 -7 -350 -7v149c85 4 156 5 213 5h75v1000c-66 -1 -178 -1 -284 -7z" />
    <glyph glyph-name="Kappa" unicode="&#x39a;" 
d="M484 725c120 -117 467 -531 518 -666l-134 -76c-46 109 -350 491 -480 617c0 0 -84 -98 -114 -169v-436h-158v1313h158v-605c80 111 151 190 250 293c191 195 317 293 338 314l111 -106c-182 -132 -429 -406 -489 -479z" />
    <glyph glyph-name="Mu" unicode="&#x39c;" 
d="M59 1304l101 9c67 -97 141 -253 210 -375c50 -90 76 -141 95 -179c83 155 225 424 306 554h116l1 -1318h-157l-2 925c-74 -141 -191 -345 -202 -381l-122 3c-8 16 -66 126 -154 295c-21 44 -16 35 -31 63v-905h-158z" />
    <glyph glyph-name="Nu" unicode="&#x39d;" 
d="M752 -6c-163 357 -317 654 -519 1007v-204c0 -293 1 -648 1 -800h-159v1301l159 -4c126 -184 402 -689 519 -937c-2 130 -3 266 -3 400c0 186 3 369 12 540h154c-6 -113 -8 -262 -8 -425c0 -226 4 -480 4 -710c0 -57 -1 -114 -1 -167z" />
    <glyph glyph-name="Omicron" unicode="&#x39f;" 
d="M284 242c49 -65 118 -105 226 -105c116 0 188 67 233 150c40 64 70 230 71 337v19c0 115 -18 268 -71 371c-58 114 -128 156 -216 156c-95 0 -151 -28 -209 -104c-69 -89 -118 -231 -118 -493c0 -104 28 -258 84 -331zM522 1323c124 0 445 -74 450 -691v-11
c0 -164 -44 -317 -92 -410c-75 -144 -205 -227 -370 -227c-122 0 -250 43 -331 143c-90 110 -138 262 -138 442c0 345 77 494 147 589c66 90 178 162 334 165z" />
    <glyph glyph-name="Rho" unicode="&#x3a1;" 
d="M262 -10l-158 1v1303c118 0 156 8 289 8c225 0 396 -13 511 -151c54 -65 73 -155 73 -245c0 -91 -7 -191 -67 -278c-98 -140 -255 -168 -494 -168c-48 0 -99 1 -153 3c0 -263 -1 -317 -1 -473zM815 900c0 208 -154 245 -400 251c-61 0 -106 -4 -151 -5v-126
c0 -183 -1 -407 -1 -407c36 -1 70 -1 103 -1c286 0 449 60 449 288z" />
    <glyph glyph-name="Tau" unicode="&#x3a4;" 
d="M403 -9v1153c-198 0 -288 -1 -364 -1v155c122 0 576 1 764 1c73 0 122 -12 140 -15l-33 -152s-62 12 -112 12h-235v-1153h-160z" />
    <glyph glyph-name="Upsilon" unicode="&#x3a5;" 
d="M399 -6v141c0 90 7 347 7 466c-79 111 -322 550 -373 656l140 71c40 -77 232 -432 319 -569c98 139 298 495 336 582l139 -79c-47 -94 -120 -236 -225 -404c-87 -131 -157 -242 -176 -268c0 -47 -2 -95 -2 -149c-3 -132 -5 -274 -5 -316v-131h-160z" />
    <glyph glyph-name="Chi" unicode="&#x3a7;" 
d="M794 1340l134 -85l-360 -598c171 -267 268 -443 410 -580l-104 -113c-152 147 -244 302 -396 544l-318 -539l-132 85l352 600c-120 204 -217 428 -357 584l125 93c130 -146 224 -360 327 -532z" />
    <glyph glyph-name="Delta" unicode="&#x394;" 
d="M834 0l-648 -5l-162 24l437 1279h112l425 -1268zM517 982c-94 -284 -191 -544 -281 -831h555c-81 293 -183 548 -274 831z" />
    <glyph glyph-name="Lambda" unicode="&#x39b;" 
d="M833 -19c-110 337 -208 670 -316 1001c-114 -332 -208 -676 -332 -1006l-162 24l438 1298h112l424 -1287z" />
    <glyph glyph-name="Xi" unicode="&#x39e;" 
d="M260 816h438v-150h-438v150zM102 1293c56 4 126 4 204 4h98h110c149 0 285 -3 359 -3h16v-150h-785zM100 147l682 2c56 0 117 26 117 26l44 -148c-48 -13 -83 -30 -159 -30h-682z" />
    <glyph glyph-name="Pi" unicode="&#x3a0;" 
d="M300 0h-161v1131c-29 -4 -57 -9 -87 -15l-19 152c92 21 187 28 307 28h660v-152h-88v-766c0 -127 10 -252 24 -369l-154 -13c-19 121 -29 259 -29 388v760h-332c-44 0 -84 0 -122 -1z" />
    <glyph glyph-name="Sigma" unicode="&#x3a3;" 
d="M321 1144l424 -392l-7 -132l-473 -473l517 2c56 0 117 26 117 26l44 -148c-48 -13 -83 -30 -159 -30h-682l-25 175l517 515l-522 483l30 123c56 4 126 4 204 4h98h110c149 0 285 -3 359 -3h16v-150h-568z" />
    <glyph glyph-name="Phi" unicode="&#x3a6;" 
d="M430 138c-226 18 -390 151 -390 515c0 282 150 473 390 493v68v93h160v-130v-31c212 -20 382 -140 382 -509c0 -263 -128 -489 -380 -501v-50c0 -22 0 -48 -2 -86l-162 1c2 31 2 48 2 63v74zM592 300h6c167 0 214 176 216 338c0 224 -70 354 -224 354
c1 -186 2 -385 2 -642v-50zM429 303c0 250 1 493 1 687c-143 0 -231 -124 -231 -362c0 -212 84 -325 230 -325z" />
    <glyph glyph-name="Psi" unicode="&#x3a8;" 
d="M74 770v167c0 173 -2 294 -24 358l160 27c18 -72 20 -184 20 -359v-157c0 -194 110 -244 230 -244c0 52 1 103 1 154c0 205 -3 405 -3 594h163c0 -191 3 -370 3 -567c0 -59 0 -119 -1 -182c219 0 247 119 247 467c-2 92 -6 192 -14 270l156 17c10 -82 14 -183 14 -249
v-34c0 -388 -46 -593 -405 -628c-2 -140 -4 -277 -7 -404l-161 1c4 62 5 219 5 274v128c-255 23 -384 183 -384 367z" />
    <glyph glyph-name="Omega" unicode="&#x3a9;" 
d="M394 1h-358l-2 150h167c-94 117 -183 292 -183 469c0 345 72 442 142 537c66 90 190 166 362 166c236 0 484 -90 484 -640v-11c0 -249 -121 -422 -211 -521l79 1c56 0 117 26 117 26l44 -148c-47 -13 -81 -30 -153 -30h-6h-268l-29 148c73 61 269 235 269 527v19v35
c0 102 -2 198 -50 291c-58 114 -183 150 -271 150c-95 0 -179 -29 -237 -105c-69 -89 -113 -179 -113 -441c0 -211 163 -439 244 -472z" />
    <glyph glyph-name="tonos" unicode="&#x384;" 
d="M362 1311c95 117 141 249 180 402l180 -49c-33 -154 -128 -326 -223 -442z" />
    <glyph glyph-name="alphatonos" unicode="&#x3ac;" 
d="M354 1196c95 117 141 249 180 402l180 -49c-33 -154 -128 -326 -223 -442zM230 527c0 -370 189 -377 207 -377h13c85 0 149 148 213 344c-74 251 -122 371 -239 371c-78 0 -194 -99 -194 -338zM823 493c24 -77 50 -164 82 -261c19 -58 43 -98 109 -124l-68 -140
c-128 32 -172 152 -190 212c-7 23 -14 46 -21 68c-65 -148 -150 -255 -281 -255c-288 0 -383 266 -383 534c0 367 189 491 364 491c165 0 234 -78 306 -275c31 99 63 198 99 291l146 -70c-65 -126 -111 -303 -163 -471z" />
    <glyph glyph-name="Iotadieresis" unicode="&#x3aa;" 
d="M165 1676l235 -3v-225l-235 3v225zM571 1673l235 -3v-225l-235 3v225zM132 1298c156 4 257 4 353 4c105 0 205 -1 368 -3v-152c-123 0 -175 5 -271 5v-1000c46 0 72 1 123 1c45 0 92 -1 144 -4v-150c-85 5 -147 6 -210 6c-47 0 -96 -1 -155 -1c-74 0 -195 -7 -350 -7v149
c85 4 156 5 213 5h75v1000c-66 -1 -178 -1 -284 -7z" />
    <glyph glyph-name="Upsilondieresis" unicode="&#x3ab;" 
d="M163 1601l235 -3v-225l-235 3v225zM569 1598l235 -3v-225l-235 3v225zM399 -6v141c0 90 7 347 7 466c-79 111 -322 550 -373 656l140 71c40 -77 232 -432 319 -569c98 139 298 495 336 582l139 -79c-47 -94 -120 -236 -225 -404c-87 -131 -157 -242 -176 -268
c0 -47 -2 -95 -2 -149c-3 -132 -5 -274 -5 -316v-131h-160z" />
    <glyph glyph-name="epsilontonos" unicode="&#x3ad;" 
d="M357 1204c95 117 141 249 180 402l180 -49c-33 -154 -128 -326 -223 -442zM996 131c-71 -53 -214 -135 -437 -135c-182 0 -263 35 -338 94c-77 61 -90 146 -90 211c0 130 65 247 217 283c-161 11 -217 107 -217 205c0 146 138 235 448 235h14c232 0 304 -52 322 -64
l-68 -130c-24 15 -120 41 -266 41c-204 0 -294 -25 -294 -88c0 -114 282 -122 393 -122h5h18v-152c-26 0 -52 1 -78 1c-63 0 -125 -4 -199 -32c-111 -41 -138 -112 -138 -179c0 -93 91 -149 272 -149c168 0 299 56 350 102z" />
    <glyph glyph-name="etatonos" unicode="&#x3ae;" 
d="M395 1187c95 117 141 249 180 402l180 -49c-33 -154 -128 -326 -223 -442zM271 900c108 79 223 122 333 122c121 0 289 -77 289 -226v-875c0 -66 13 -203 31 -251l-158 -32c-18 79 -32 147 -32 276v851c0 74 -85 107 -152 107c-63 0 -179 -52 -310 -139l-1 -733l-158 -1
v706c0 178 -8 204 -32 298l160 37c10 -24 23 -91 30 -140z" />
    <glyph glyph-name="iotatonos" unicode="&#x3af;" 
d="M384 1201c95 117 141 249 180 402l180 -49c-33 -154 -128 -326 -223 -442zM417 1013h120c0 -273 1 -754 1 -754c0 -118 45 -135 137 -135c93 0 185 61 235 175l114 -78c-70 -150 -164 -239 -348 -239c-85 0 -161 14 -205 38c-85 47 -93 176 -93 235v602
c-49 0 -163 -6 -258 -28l-29 142c112 26 222 42 326 42z" />
    <glyph glyph-name="upsilondieresistonos" unicode="&#x3b0;" 
d="M402.383 1431.62c88.0146 107.662 130.632 229.128 166.765 369.917l166.765 -45.0898c-30.5732 -141.709 -118.588 -299.982 -206.604 -406.725zM173 1379.83l235 -2.56152v-192.077l-235 2.56055v192.078zM579 1377.27l235 -2.56055v-192.078l-235 2.56152v192.077z
M114 366v183c0 204 -2 392 -23 456l160 27c17 -72 19 -254 19 -459v-171c0 -179 64 -250 197 -250c58 0 169 41 225 121c87 125 98 227 98 465c0 92 -22 194 -54 264l160 44c36 -84 50 -226 50 -292v-12v-37c0 -191 -5 -402 -178 -582c-63 -66 -183 -127 -346 -127
c-193 0 -308 171 -308 370z" />
    <glyph glyph-name="omicrontonos" unicode="&#x3cc;" 
d="M332 1185c95 117 141 249 180 402l180 -49c-33 -154 -128 -326 -223 -442zM482 1c-272 1 -410 183 -410 463c0 292 102 568 394 568c197 0 307 -69 377 -201c41 -79 59 -192 59 -288c0 -285 -96 -542 -418 -542h-2zM654 215c65 61 89 167 89 315v18
c-2 184 -66 330 -243 330c-208 0 -270 -165 -270 -409c0 -195 87 -313 254 -313c76 1 120 17 170 59z" />
    <glyph glyph-name="upsilontonos" unicode="&#x3cd;" 
d="M360 1181c95 117 141 249 180 402l180 -49c-33 -154 -128 -326 -223 -442zM114 366v183c0 204 -2 392 -23 456l160 27c17 -72 19 -254 19 -459v-171c0 -179 64 -250 197 -250c58 0 169 41 225 121c87 125 98 227 98 465c0 92 -22 194 -54 264l160 44
c36 -84 50 -226 50 -292v-12v-37c0 -191 -5 -402 -178 -582c-63 -66 -183 -127 -346 -127c-193 0 -308 171 -308 370z" />
    <glyph glyph-name="omegatonos" unicode="&#x3ce;" 
d="M383 1119c95 117 141 249 180 402l180 -49c-33 -154 -128 -326 -223 -442zM434 684l159 19c-2 -85 -1 -179 -2 -272c1 -8 1 -17 1 -26c2 -181 52 -261 133 -261c89 0 117 126 117 276c0 213 -28 415 -113 547l152 66c108 -181 118 -451 118 -592
c0 -223 -53 -453 -298 -453c-75 0 -142 45 -189 116c-50 -70 -119 -114 -195 -114c-226 0 -282 230 -282 454c0 168 6 414 116 597l152 -66c-81 -127 -106 -300 -106 -507c0 -169 33 -323 113 -323c70 0 115 51 128 176c-1 16 -2 31 -2 47c-1 106 0 216 -2 316z" />
    <glyph glyph-name="Upsilontonos" unicode="&#x38e;" 
d="M10.209 1268c79.5713 117 118.101 249 150.767 402l150.768 -49c-27.6406 -154 -107.212 -326 -186.784 -442zM525.778 -6v141c0 90 6.33008 347 6.33008 466c-71.4326 111 -291.155 550 -337.27 656l126.589 71c36.168 -77 209.776 -432 288.442 -569
c88.6123 139 269.453 495 303.813 582l125.685 -79c-42.498 -94 -108.505 -236 -203.446 -404c-78.666 -131 -141.961 -242 -159.141 -268c0 -47 -1.80859 -95 -1.80859 -149c-2.71289 -132 -4.52051 -274 -4.52051 -316v-131h-144.674z" />
    <glyph glyph-name="Omegatonos" unicode="&#x38f;" 
d="M27.9297 1210c80.2852 117 119.16 249 152.12 402l152.119 -49c-27.8877 -154 -108.174 -326 -188.459 -442zM442.309 1h-331.021l-1.84961 150h154.415c-86.916 117 -169.209 292 -169.209 469c0 345 66.5742 442 131.299 537c61.0264 90 175.682 166 334.72 166
c218.215 0 447.525 -90 447.525 -640v-11c0 -249 -111.881 -422 -195.099 -521l73.0469 1c51.7793 0 108.183 26 108.183 26l40.6836 -148c-43.458 -13 -74.8955 -30 -141.47 -30h-5.54785h-247.804l-26.8145 148c67.499 61 248.729 235 248.729 527v19v35
c0 102 -1.84961 198 -46.2324 291c-53.6289 114 -169.209 150 -250.577 150c-87.8408 0 -165.511 -29 -219.14 -105c-63.7998 -89 -104.484 -179 -104.484 -441c0 -211 150.717 -439 225.612 -472z" />
    <glyph glyph-name="iotadieresistonos" unicode="&#x390;" 
d="M368.383 1431.06c88.0146 107.662 130.632 229.128 166.765 369.917l166.765 -45.0898c-30.5732 -141.709 -118.588 -299.982 -206.604 -406.725zM139 1379.28l235 -2.56152v-192.077l-235 2.56055v192.078zM545 1376.71l235 -2.56055v-192.078l-235 2.56152v192.077z
M417 1013h120c0 -273 1 -754 1 -754c0 -118 45 -135 137 -135c93 0 185 61 235 175l114 -78c-70 -150 -164 -239 -348 -239c-85 0 -161 14 -205 38c-85 47 -93 176 -93 235v602c-49 0 -163 -6 -258 -28l-29 142c112 26 222 42 326 42z" />
    <glyph glyph-name="Omicrontonos" unicode="&#x38c;" 
d="M27.5449 1226c89.1074 117 132.254 249 168.835 402l168.834 -49c-30.9521 -154 -120.06 -326 -209.167 -442zM320 242c49 -65 118 -105 226 -105c116 0 188 67 233 150c40 64 70 230 71 337v19c0 115 -18 268 -71 371c-58 114 -128 156 -216 156
c-95 0 -151 -28 -209 -104c-69 -89 -118 -231 -118 -493c0 -104 28 -258 84 -331zM558 1323c124 0 445 -74 450 -691v-11c0 -164 -44 -317 -92 -410c-75 -144 -205 -227 -370 -227c-122 0 -250 43 -331 143c-90 110 -138 262 -138 442c0 345 77 494 147 589
c66 90 178 162 334 165z" />
    <glyph glyph-name="Epsilontonos" unicode="&#x388;" 
d="M16.0693 1295c85.833 117 127.395 249 162.632 402l162.631 -49c-29.8154 -154 -115.648 -326 -201.482 -442zM222.633 1293c52.5039 4 118.134 4 191.265 4h91.8828h103.133c139.698 0 267.209 -3 336.589 -3h15.001v-150h-589.733v-328h410.657v-150h-410.657v-30
c0 -203 -2.81348 -412 -2.81348 -489l492.227 2c52.5049 0 109.696 26 109.696 26l41.2529 -148c-45.0029 -13 -77.8184 -30 -149.074 -30h-639.425v1296z" />
    <glyph glyph-name="Etatonos" unicode="&#x389;" 
d="M1.61719 1322c86.502 117 128.387 249 163.898 402l163.897 -49c-30.0479 -154 -116.55 -326 -203.051 -442zM338.909 1296l-0.949219 -547c87.3623 21 177.573 28 291.523 28h216.506c0 274 -0.949219 352 -0.949219 514h150.984v-1291h-150.035v625h-122.497
c-138.64 0 -273.481 -3 -385.532 -28c0 -343 1.89941 -416 1.89941 -597h-152.884v1294z" />
    <glyph glyph-name="Iotatonos" unicode="&#x38a;" 
d="M15.0303 1262c85.5596 117 126.989 249 162.114 402l162.114 -49c-29.7217 -154 -115.281 -326 -200.842 -442zM240.389 1283c144.641 4 238.286 4 327.296 4c97.3535 0 190.072 -1 341.203 -3v-152c-114.043 0 -162.257 5 -251.267 5v-1000
c42.6504 0 66.7568 1 114.044 1c41.7227 0 85.3008 -1 133.515 -4v-150c-78.8115 5 -136.297 6 -194.709 6c-43.5781 0 -89.0098 -1 -143.714 -1c-68.6113 0 -180.801 -7 -324.515 -7v149c78.8115 4 144.642 5 197.49 5h69.5391v1000c-61.1943 -1 -165.039 -1 -263.32 -7z
" />
    <glyph glyph-name="Alphatonos" unicode="&#x386;" 
d="M95 1278c95 117 141 249 180 402l180 -49c-33 -154 -128 -326 -223 -442zM461 1298h112l424 -1287l-164 -30l-99 345c-141 -3 -336 -2 -447 -29l-102 -321l-162 24zM677 490l-160 492l-173 -512c60 13 110 15 193 19z" />
    <glyph glyph-name="dieresistonos" unicode="&#x385;" 
d="M368.383 1336.37c88.0146 107.662 130.632 229.128 166.765 369.917l166.765 -45.0898c-30.5732 -141.709 -118.588 -299.982 -206.604 -406.725zM139 1284.59l235 -2.56152v-192.077l-235 2.56055v192.078zM545 1282.03l235 -2.56055v-192.078l-235 2.56152v192.077z
" />
    <glyph glyph-name="anoteleia" unicode="&#x387;" 
d="M481 656h251v-269h-251v269z" />
    <glyph glyph-name="uni03D0" unicode="&#x3d0;" 
d="M227 644c7 -262 55 -491 316 -491c140 0 247 108 247 242c0 196 -138 273 -341 273c-68 0 -142 -8 -222 -24zM228 799c181 12 373 23 373 206c0 113 -76 171 -187 171c-65 0 -172 -66 -186 -377zM69 736c0 420 159 592 345 592c183 0 340 -95 340 -317
c0 -102 -28 -179 -84 -232c177 -49 274 -181 274 -398c0 -210 -133 -381 -401 -381c-418 0 -474 332 -474 736z" />
    <glyph glyph-name="theta1" unicode="&#x3d1;" 
d="M200 603c0 -104 32 -283 88 -356c49 -65 114 -110 222 -110c116 0 187 87 232 170c35 56 63 176 70 277c-43 6 -98 7 -162 7c-51 0 -108 -1 -170 -1c-160 0 -376 82 -376 328c0 72 13 151 80 242c66 90 196 163 338 163c110 0 450 -90 450 -691v-11
c0 -164 -46 -297 -94 -390c-75 -144 -203 -247 -368 -247c-122 0 -247 48 -328 148c-90 110 -141 278 -141 458zM810 742c-8 95 -28 197 -67 272c-58 114 -144 156 -216 156c-78 0 -153 -27 -213 -102c-48 -60 -52 -111 -52 -141c4 -158 114 -179 226 -179
c180 0 271 -1 322 -6z" />
    <glyph glyph-name="Upsilon1" unicode="&#x3d2;" 
d="M496 976c63 145 214 392 347 392c167 0 174 -110 174 -292v-6h-157c-4 81 -12 130 -19 142c-18 -13 -253 -267 -253 -528v-684l-156 1v682c0 222 -194 498 -404 532l62 161c174 -48 356 -247 406 -400z" />
    <glyph glyph-name="uni03D3" unicode="&#x3d3;" 
d="M568 999c63 145 142 369 275 369c167 0 174 -110 174 -292v-6h-157c-4 81 -12 130 -19 142c-18 -13 -183 -267 -183 -528v-684l-156 1v682c0 222 -132 498 -273 532l62 161c174 -48 227 -224 277 -377zM19 1224c68 130 86 270 110 438l174 -27
c-33 -154 -81 -345 -156 -471z" />
    <glyph glyph-name="uni03D4" unicode="&#x3d4;" 
d="M159 1651l235 -3v-225l-235 3v225zM565 1648l235 -3v-225l-235 3v225zM496 976c63 145 214 392 347 392c167 0 174 -110 174 -292v-6h-157c-4 81 -12 130 -19 142c-18 -13 -253 -267 -253 -528v-684l-156 1v682c0 222 -194 498 -404 532l62 161
c174 -48 356 -247 406 -400z" />
    <glyph glyph-name="phi1" unicode="&#x3d5;" 
d="M765 519c0 163 -49 337 -187 357v-730c126 11 187 188 187 373zM420 151v723c-146 -25 -190 -196 -190 -405c0 -195 92 -308 190 -318zM579 -1c2 -186 4 -380 5 -397l-162 2c-2 16 -2 210 -2 394c-226 11 -348 174 -348 466c0 276 78 534 348 565v384h158v-387
c236 -28 346 -240 346 -494c0 -304 -96 -514 -345 -533z" />
    <glyph glyph-name="omega1" unicode="&#x3d6;" 
d="M434 684l159 19c-2 -85 -1 -179 -2 -272c1 -8 1 -17 1 -26c2 -181 52 -261 133 -261c89 0 117 126 117 276c0 190 -44 327 -114 448h-419c-66 -109 -112 -219 -112 -400c0 -169 33 -323 113 -323c70 0 115 51 128 176c-1 16 -2 31 -2 47c-1 106 0 216 -2 316zM26 1018
c56 4 138 4 216 4h98h110c149 0 457 -4 531 -4h16v-150h-88c65 -153 90 -314 90 -427c0 -223 -53 -453 -298 -453c-75 0 -142 45 -189 116c-50 -70 -119 -114 -195 -114c-226 0 -282 230 -282 454c0 133 27 278 92 424h-99z" />
    <glyph glyph-name="uni03D7" unicode="&#x3d7;" 
d="M18 833c0 0 104 192 251 192c120 0 238 -100 238 -280c0 -25 -15 -129 -37 -175c47 34 110 88 173 139l17 15c55 153 135 305 256 305c64 0 88 -49 88 -116c0 -110 -131 -245 -233 -325c-29 -77 -82 -211 -82 -301c0 -93 32 -131 84 -131s82 24 106 84l141 -49v-22
c0 -291 -5 -514 -387 -514v150c203 0 257 68 257 250v10c-48 -35 -106 -65 -163 -65c-96 0 -196 99 -196 279c0 25 15 125 37 171c-47 -34 -112 -90 -175 -141l-15 -13c-62 -154 -144 -304 -256 -304c-64 0 -87 50 -87 117c0 131 134 245 236 325c29 77 78 213 78 303
c0 93 -32 131 -84 131s-103 -74 -159 -129z" />
    <glyph glyph-name="uni03CF" unicode="&#x3cf;" 
d="M868 -17c-46 109 -350 491 -480 617c0 0 -84 -98 -114 -169v-436h-158v1313h158v-605c80 111 151 190 250 293c191 195 317 293 338 314l111 -106c-182 -132 -429 -406 -489 -479c120 -117 467 -531 518 -666c-4 -225 -45 -404 -369 -404v134c162 0 222 78 235 194z" />
    <glyph glyph-name="uni03D8" unicode="&#x3d8;" 
d="M284 242c49 -65 118 -105 226 -105c116 0 188 67 233 150c40 64 70 230 71 337v19c0 115 -18 268 -71 371c-58 114 -128 156 -216 156c-95 0 -151 -28 -209 -104c-69 -89 -118 -231 -118 -493c0 -104 28 -258 84 -331zM522 1323c124 0 445 -74 450 -691v-11
c0 -164 -44 -317 -92 -410c-61 -118 -159 -195 -283 -219v-307h-171v306c-94 16 -185 59 -247 136c-90 110 -138 262 -138 442c0 345 77 494 147 589c66 90 178 162 334 165z" />
    <glyph glyph-name="uni03D9" unicode="&#x3d9;" 
d="M654 215c65 61 89 167 89 315v18c-2 184 -66 330 -243 330c-208 0 -270 -165 -270 -409c0 -195 87 -313 254 -313c76 1 120 17 170 59zM394 8c-214 37 -322 208 -322 456c0 292 102 568 394 568c197 0 307 -69 377 -201c41 -79 59 -192 59 -288
c0 -260 -80 -496 -337 -536v-322h-171v323z" />
    <glyph glyph-name="uni03DB" unicode="&#x3db;" 
d="M230 527c0 -377 148 -372 214 -377c262 -21 408 -71 408 -245c0 -96 -50 -248 -314 -256l-22 152c114 14 180 31 180 100c0 66 -163 83 -248 92c-308 31 -377 194 -377 534c0 367 178 491 493 491c106 0 187 -1 263 -1c57 0 110 0 167 3l3 -165c-42 4 -284 10 -444 10
c-221 0 -323 -99 -323 -338z" />
    <glyph glyph-name="uni03DA" unicode="&#x3da;" 
d="M230 700c0 -377 64 -519 214 -550c257 -53 408 -71 408 -245c0 -96 -50 -248 -314 -256l-22 152c114 14 180 31 180 100c0 66 -164 79 -248 92c-364 56 -377 367 -377 707c0 367 115 621 483 621c106 0 188 -1 264 -1c57 0 110 0 167 3l3 -166c-42 4 -285 11 -445 11
c-261 0 -313 -229 -313 -468z" />
    <glyph glyph-name="uni03DC" unicode="&#x3dc;" 
d="M277 -1l-161 4v1295h685c77 -3 125 -18 159 -35l-56 -146c-26 14 -48 27 -146 28h-70c-104 0 -233 -1 -416 -2v-328c120 0 187 3 309 3c88 0 147 -14 148 -14l18 -5l-36 -145c-37 9 -88 14 -133 14c-106 0 -198 0 -306 -3c0 -121 5 -573 5 -666z" />
    <glyph glyph-name="uni03DD" unicode="&#x3dd;" 
d="M384 152c0 123 -4 705 -4 912c0 143 29 354 306 354h46c118 0 135 -5 275 -97l-71 -130c-92 60 -110 75 -242 75c-147 0 -156 -98 -156 -206v-47c68 0 126 -1 199 -1c104 -3 131 -11 161 -20l-29 -146c-21 7 -42 13 -98 13h-233c1 -154 3 -703 3 -707
c0 -236 -66 -460 -405 -460c-30 0 -62 1 -96 5l10 147c28 -4 54 -6 78 -6c208 0 256 156 256 314z" />
    <glyph glyph-name="uni0190" unicode="&#x190;" 
d="M940 161c-69 -53 -190 -161 -439 -161c-175 0 -266 34 -344 106c-89 83 -104 183 -104 284c0 178 62 304 209 340c-108 36 -152 147 -152 255c0 195 146 312 425 312h12c225 0 311 -61 383 -102l-77 -140c-70 42 -177 89 -316 89c-160 0 -276 -62 -276 -159
c0 -165 215 -178 322 -178h4h18v-152c-25 0 -51 1 -76 1c-61 0 -119 -4 -191 -32c-107 -41 -133 -169 -133 -236c0 -147 123 -234 297 -234c184 0 290 84 340 130z" />
    <glyph glyph-name="uni01CD" unicode="&#x1cd;" 
d="M516 1445l-370 318l104 107l267 -218l265 218l106 -107zM716 505l-194 587l-186 -607c60 13 116 13 199 17zM434 1301h171l378 -1129c11 -37 29 -118 31 -172h-164c0 23 -12 95 -20 122l-70 210c-141 -3 -362 -5 -473 -32l-59 -179c-10 -29 -24 -93 -24 -121h-162
c1 28 19 116 32 159z" />
    <glyph glyph-name="uni01CE" unicode="&#x1ce;" 
d="M473 1154l-370 318l104 107l267 -218l265 218l106 -107zM234 311c0 -105 56 -165 149 -165c210 0 315 158 341 199v95c-57 35 -131 64 -235 64c-136 -1 -255 -75 -255 -193zM881 318c0 -35 0 -128 13 -145c13 -18 50 -41 79 -64l-83 -119c-52 40 -112 65 -130 166
c-78 -75 -180 -162 -377 -162c-171 0 -305 141 -305 307c0 76 30 165 89 226c95 97 196 121 314 121c126 0 189 -18 243 -51c0 189 -69 280 -239 280c-138 0 -201 -30 -281 -173l-130 82c96 182 230 242 409 242c242 0 398 -155 398 -380v-330z" />
    <glyph glyph-name="uni01CF" unicode="&#x1cf;" 
d="M505 1331l-370 318l104 107l267 -218l265 218l106 -107zM152 1298c156 4 237 4 333 4c105 0 201 -1 364 -3v-152c-123 0 -171 5 -267 5v-1000c46 0 72 1 123 1c45 0 92 -1 144 -4v-150c-85 5 -147 6 -210 6c-47 0 -96 -1 -155 -1c-74 0 -174 -7 -329 -7v149
c85 4 135 5 192 5h75v1000c-66 -1 -158 -1 -264 -7z" />
    <glyph glyph-name="uni01D0" unicode="&#x1d0;" 
d="M457 1154l-370 318l104 107l267 -218l265 218l106 -107zM417 1013h116c0 -273 1 -803 1 -803c5 -82 49 -86 141 -86c93 0 217 21 286 73l68 -114c-86 -71 -229 -101 -353 -101c-85 0 -161 14 -205 38c-85 47 -93 127 -93 186v651c-49 0 -163 -6 -258 -28l-29 142
c112 26 222 42 326 42z" />
    <glyph glyph-name="uni01D1" unicode="&#x1d1;" 
d="M520.5 1340l-370 318l104 107l267 -218l265 218l106 -107zM504 1326c124 0 445 -74 450 -691v-11c0 -164 -44 -317 -92 -410c-75 -144 -205 -227 -370 -227c-122 0 -249 43 -330 143c-90 110 -138 262 -138 442c0 345 76 494 146 589c66 90 178 162 334 165zM266 245
c49 -65 118 -105 226 -105c116 0 189 67 234 150c40 64 69 230 70 337v19c0 115 -17 268 -70 371c-58 114 -128 156 -216 156c-95 0 -152 -28 -210 -104c-69 -89 -118 -231 -118 -493c0 -104 28 -258 84 -331z" />
    <glyph glyph-name="uni01D2" unicode="&#x1d2;" 
d="M465 1154l-370 318l104 107l267 -218l265 218l106 -107zM654 215c65 61 89 167 89 315v18c-2 184 -66 330 -243 330c-208 0 -270 -165 -270 -409c0 -195 87 -313 254 -313c76 1 120 17 170 59zM482 1c-272 1 -410 183 -410 463c0 292 102 568 394 568
c197 0 307 -69 377 -201c41 -79 59 -192 59 -288c0 -285 -96 -542 -418 -542h-2z" />
    <glyph glyph-name="uni01D3" unicode="&#x1d3;" 
d="M494 1304l-370 318l104 107l267 -218l265 218l106 -107zM777 1313l157 -13c-9 -60 -9 -103 -9 -157c0 -145 2 -272 2 -383v-58c0 -232 -4 -454 -116 -583c-82 -95 -190 -124 -319 -129c-308 0 -406 166 -424 457c-5 75 -7 197 -7 332c0 172 3 365 9 523h158
c-4 -165 -8 -389 -8 -574c0 -123 2 -229 7 -289c18 -210 100 -298 252 -298c106 5 158 28 212 84c67 74 78 280 78 477c0 123 -5 269 -5 439c0 71 3 110 13 172z" />
    <glyph glyph-name="uni01D4" unicode="&#x1d4;" 
d="M511 1085l-370 318l104 107l267 -218l265 218l106 -107zM906 -10c-57 41 -111 82 -133 168c-84 -86 -181 -153 -331 -156h-9c-62 0 -147 1 -207 42c-45 31 -112 88 -112 170c-3 268 4 697 -23 780l160 27c22 -92 17 -405 19 -771c6 -34 28 -60 50 -76
c14 -10 65 -18 106 -18c67 3 108 11 159 42c47 28 116 58 154 146v676h158v-781c2 -52 51 -100 91 -132z" />
    <glyph glyph-name="uni01D5" unicode="&#x1d5;" 
d="M714 1864v-152h-17c-58 -2 -128 -2 -202 -2s-149 0 -217 2l-18 1v155l19 -2c65 -2 162 -2 254 -2h164h17zM183 1652l235 -3v-225l-235 3v225zM589 1649l235 -3v-225l-235 3v225zM777 1313l157 -13c-9 -60 -9 -103 -9 -157c0 -145 2 -272 2 -383v-58
c0 -232 -4 -454 -116 -583c-82 -95 -190 -124 -319 -129c-308 0 -406 166 -424 457c-5 75 -7 197 -7 332c0 172 3 365 9 523h158c-4 -165 -8 -389 -8 -574c0 -123 2 -229 7 -289c18 -210 100 -298 252 -298c106 5 158 28 212 84c67 74 78 280 78 477c0 123 -5 269 -5 439
c0 71 3 110 13 172z" />
    <glyph glyph-name="uni01D6" unicode="&#x1d6;" 
d="M733 1642v-152h-17c-58 -2 -128 -2 -202 -2s-149 0 -217 2l-18 1v155l19 -2c65 -2 162 -2 254 -2h164h17zM197 1409l235 -3v-225l-235 3v225zM603 1406l235 -3v-225l-235 3v225zM906 -10c-57 41 -111 82 -133 168c-84 -86 -181 -153 -331 -156h-9c-62 0 -147 1 -207 42
c-45 31 -112 88 -112 170c-3 268 4 697 -23 780l160 27c22 -92 17 -405 19 -771c6 -34 28 -60 50 -76c14 -10 65 -18 106 -18c67 3 108 11 159 42c47 28 116 58 154 146v676h158v-781c2 -52 51 -100 91 -132z" />
    <glyph glyph-name="uni01D7" unicode="&#x1d7;" 
d="M271 1830c143 48 352 205 467 313l123 -146c-111 -112 -379 -268 -522 -315zM183 1652l235 -3v-225l-235 3v225zM589 1649l235 -3v-225l-235 3v225zM777 1313l157 -13c-9 -60 -9 -103 -9 -157c0 -145 2 -272 2 -383v-58c0 -232 -4 -454 -116 -583
c-82 -95 -190 -124 -319 -129c-308 0 -406 166 -424 457c-5 75 -7 197 -7 332c0 172 3 365 9 523h158c-4 -165 -8 -389 -8 -574c0 -123 2 -229 7 -289c18 -210 100 -298 252 -298c106 5 158 28 212 84c67 74 78 280 78 477c0 123 -5 269 -5 439c0 71 3 110 13 172z" />
    <glyph glyph-name="uni01D8" unicode="&#x1d8;" 
d="M246 1586c143 48 352 205 467 313l123 -146c-111 -112 -379 -268 -522 -315zM197 1409l235 -3v-225l-235 3v225zM603 1406l235 -3v-225l-235 3v225zM906 -10c-57 41 -111 82 -133 168c-84 -86 -181 -153 -331 -156h-9c-62 0 -147 1 -207 42c-45 31 -112 88 -112 170
c-3 268 4 697 -23 780l160 27c22 -92 17 -405 19 -771c6 -34 28 -60 50 -76c14 -10 65 -18 106 -18c67 3 108 11 159 42c47 28 116 58 154 146v676h158v-781c2 -52 51 -100 91 -132z" />
    <glyph glyph-name="uni01D9" unicode="&#x1d9;" 
d="M502 1650l-370 318l104 107l267 -218l265 218l106 -107zM183 1652l235 -3v-225l-235 3v225zM589 1649l235 -3v-225l-235 3v225zM777 1313l157 -13c-9 -60 -9 -103 -9 -157c0 -145 2 -272 2 -383v-58c0 -232 -4 -454 -116 -583c-82 -95 -190 -124 -319 -129
c-308 0 -406 166 -424 457c-5 75 -7 197 -7 332c0 172 3 365 9 523h158c-4 -165 -8 -389 -8 -574c0 -123 2 -229 7 -289c18 -210 100 -298 252 -298c106 5 158 28 212 84c67 74 78 280 78 477c0 123 -5 269 -5 439c0 71 3 110 13 172z" />
    <glyph glyph-name="uni01DA" unicode="&#x1da;" 
d="M517 1423l-370 318l104 107l267 -218l265 218l106 -107zM197 1409l235 -3v-225l-235 3v225zM603 1406l235 -3v-225l-235 3v225zM906 -10c-57 41 -111 82 -133 168c-84 -86 -181 -153 -331 -156h-9c-62 0 -147 1 -207 42c-45 31 -112 88 -112 170c-3 268 4 697 -23 780
l160 27c22 -92 17 -405 19 -771c6 -34 28 -60 50 -76c14 -10 65 -18 106 -18c67 3 108 11 159 42c47 28 116 58 154 146v676h158v-781c2 -52 51 -100 91 -132z" />
    <glyph glyph-name="uni01DB" unicode="&#x1db;" 
d="M731 1830l-68 -148c-143 47 -411 203 -522 315l123 146c115 -108 324 -265 467 -313zM183 1652l235 -3v-225l-235 3v225zM589 1649l235 -3v-225l-235 3v225zM777 1313l157 -13c-9 -60 -9 -103 -9 -157c0 -145 2 -272 2 -383v-58c0 -232 -4 -454 -116 -583
c-82 -95 -190 -124 -319 -129c-308 0 -406 166 -424 457c-5 75 -7 197 -7 332c0 172 3 365 9 523h158c-4 -165 -8 -389 -8 -574c0 -123 2 -229 7 -289c18 -210 100 -298 252 -298c106 5 158 28 212 84c67 74 78 280 78 477c0 123 -5 269 -5 439c0 71 3 110 13 172z" />
    <glyph glyph-name="uni01DC" unicode="&#x1dc;" 
d="M727 1571l-68 -148c-143 47 -411 203 -522 315l123 146c115 -108 324 -265 467 -313zM197 1409l235 -3v-225l-235 3v225zM603 1406l235 -3v-225l-235 3v225zM906 -10c-57 41 -111 82 -133 168c-84 -86 -181 -153 -331 -156h-9c-62 0 -147 1 -207 42
c-45 31 -112 88 -112 170c-3 268 4 697 -23 780l160 27c22 -92 17 -405 19 -771c6 -34 28 -60 50 -76c14 -10 65 -18 106 -18c67 3 108 11 159 42c47 28 116 58 154 146v676h158v-781c2 -52 51 -100 91 -132z" />
    <glyph glyph-name="uni01DE" unicode="&#x1de;" 
d="M728 1827v-152h-17c-58 -2 -128 -2 -202 -2s-149 0 -217 2l-18 1v155l19 -2c65 -2 162 -2 254 -2h164h17zM197 1607l235 -3v-225l-235 3v225zM603 1604l235 -3v-225l-235 3v225zM716 505l-194 587l-186 -607c60 13 116 13 199 17zM434 1301h171l378 -1129
c11 -37 29 -118 31 -172h-164c0 23 -12 95 -20 122l-70 210c-141 -3 -362 -5 -473 -32l-59 -179c-10 -29 -24 -93 -24 -121h-162c1 28 19 116 32 159z" />
    <glyph glyph-name="uni01DF" unicode="&#x1df;" 
d="M695 1640v-152h-17c-58 -2 -128 -2 -202 -2s-149 0 -217 2l-18 1v155l19 -2c65 -2 162 -2 254 -2h164h17zM153 1406l235 -3v-225l-235 3v225zM559 1403l235 -3v-225l-235 3v225zM234 311c0 -105 56 -165 149 -165c210 0 315 158 341 199v95c-57 35 -131 64 -235 64
c-136 -1 -255 -75 -255 -193zM881 318c0 -35 0 -128 13 -145c13 -18 50 -41 79 -64l-83 -119c-52 40 -112 65 -130 166c-78 -75 -180 -162 -377 -162c-171 0 -305 141 -305 307c0 76 30 165 89 226c95 97 196 121 314 121c126 0 189 -18 243 -51c0 189 -69 280 -239 280
c-138 0 -201 -30 -281 -173l-130 82c96 182 230 242 409 242c242 0 398 -155 398 -380v-330z" />
    <glyph glyph-name="uni01E2" unicode="&#x1e2;" 
d="M702 1560v-152h-17c-58 -2 -128 -2 -202 -2s-149 0 -217 2l-18 1v155l19 -2c65 -2 162 -2 254 -2h164h17zM470 490l-51 604l-143 -619s69 13 194 15zM481 347c-161 -5 -239 -25 -239 -25l-51 -201c-7 -30 -24 -93 -24 -121h-162c1 28 20 116 32 159l313 1134
c62 2 172 2 269 2c157 0 239 -1 336 -1v-150h-405l26 -328h300v-150h-281l42 -519l244 2c56 0 117 26 117 26l44 -148c-47 -13 -81 -30 -153 -30h-6l-379 3z" />
    <glyph glyph-name="uni01E3" unicode="&#x1e3;" 
d="M748 1342.1v-152h-17c-58 -2 -128 -2 -202 -2s-149 0 -217 2l-18 1v155l19 -2c65 -2 162 -2 254 -2h164h17zM177 324c0 -108 41 -162 124 -162c90 0 128 92 140 165v147c-43 25 -85 34 -139 34c-78 0 -125 -83 -125 -184zM594 615c89 6 147 8 231 8
c0 106 -22 246 -92 246c-128 0 -139 -92 -139 -254zM505 97c-30 -34 -90 -93 -193 -93c-63 0 -128 15 -182 53c-81 57 -107 154 -107 252c0 167 64 352 268 352c77 0 112 -16 150 -32c0 97 -22 241 -141 241h-9c-52 0 -82 -3 -148 -103l-10 -14l-117 74l11 18
c85 134 150 178 273 178c56 0 102 -8 163 -55c19 -16 38 -40 50 -59c41 61 89 114 211 114c244 0 252 -349 252 -548l-382 -10v-245c25 -29 76 -59 139 -59c59 0 110 56 148 109l107 -100c-93 -126 -197 -165 -274 -165c-81 0 -153 33 -209 92z" />
    <glyph glyph-name="Gcaron" unicode="&#x1e6;" 
d="M539 1325l-370 318l104 107l267 -218l265 218l106 -107zM861 733c46 0 89 3 131 7v-135c0 -435 -123 -556 -301 -602c-45 -10 -109 -11 -151 -11c-364 0 -520 288 -520 636c0 237 53 431 184 558c100 88 214 116 329 116h20c214 -5 348 -113 423 -276l-143 -69
c-52 114 -136 193 -291 193c-84 0 -145 -6 -223 -73c-111 -95 -137 -288 -137 -460c0 -259 78 -470 368 -470c29 0 57 2 83 9c123 28 193 108 193 431c-26 -2 -50 -2 -73 -2c-31 0 -60 1 -89 1c-71 0 -140 -5 -230 -38l-40 145c96 36 200 42 301 42c56 0 112 -2 166 -2z" />
    <glyph glyph-name="gcaron" unicode="&#x1e7;" 
d="M513 1116l-370 318l104 107l267 -218l265 218l106 -107zM237 -76c0 -126 75 -156 207 -156h105c115 0 254 41 254 207c0 85 -149 96 -270 96c-9 0 -66 0 -212 -2c-56 -22 -84 -82 -84 -145zM476 557c129 0 228 52 228 149c0 129 -85 168 -212 168
c-136 0 -239 -73 -239 -165c0 -116 93 -152 223 -152zM95 699c0 210 151 327 397 327c115 0 189 -20 254 -60c56 52 109 62 219 62v-164c-12 2 -34 5 -44 5c-35 0 -74 -5 -91 -22c26 -47 30 -89 30 -137c0 -189 -154 -303 -379 -303c-71 0 -134 7 -199 32
c-19 -22 -43 -57 -43 -98c0 -76 54 -118 180 -118c26 0 154 2 181 2c188 0 361 -59 361 -249c0 -259 -174 -364 -418 -364h-103c-211 0 -360 97 -360 306c0 100 32 171 87 219c-57 42 -85 113 -85 191c0 91 32 151 74 199c-34 38 -61 100 -61 172z" />
    <glyph glyph-name="uni01E8" unicode="&#x1e8;" 
d="M516 1304l-370 318l104 107l267 -218l265 218l106 -107zM484 725c120 -117 467 -531 518 -666l-134 -76c-46 109 -350 491 -480 617c0 0 -84 -98 -114 -169v-436h-158v1313h158v-605c80 111 151 190 250 293c191 195 317 293 338 314l111 -106
c-182 -132 -429 -406 -489 -479z" />
    <glyph glyph-name="uni01E9" unicode="&#x1e9;" 
d="M210 1437l-370 318l104 107l267 -218l265 218l106 -107zM586 566c101 0 156 91 156 179c0 18 -2 35 -7 50c-10 33 -42 77 -105 77c-24 0 -52 -6 -85 -22c-99 -47 -178 -92 -252 -142v-90c84 -13 149 -28 198 -39c37 -8 68 -13 95 -13zM293 880c72 49 222 136 328 136
c136 0 259 -83 273 -202c3 -23 5 -53 5 -82c0 -33 -3 -67 -8 -93c-6 -34 -58 -136 -161 -185c98 -73 96 -193 149 -281c24 -39 50 -60 83 -84l-84 -108c-123 60 -158 178 -185 257c-50 145 -275 217 -399 231c0 0 -2 -190 -2 -340c0 -50 1 -96 1 -129h-157v1228
c0 61 -10 114 -23 155l153 44c9 -23 27 -68 27 -134v-413z" />
    <glyph glyph-name="uni01F0" unicode="&#x1f0;" 
d="M680 1090l-370 318l104 107l267 -218l265 218l106 -107zM627 -114l-1 978h-16c-98 0 -150 -8 -240 -29l-28 142c112 26 220 42 324 42h117v-1137c0 -145 -61 -269 -299 -269c-123 0 -267 22 -393 227l126 98c99 -162 183 -169 246 -169h17c112 0 145 82 147 117z" />
    <glyph glyph-name="uni01F4" unicode="&#x1f4;" 
d="M289 1450c143 48 352 205 467 313l123 -146c-111 -112 -379 -268 -522 -315zM861 733c46 0 89 3 131 7v-135c0 -435 -123 -556 -301 -602c-45 -10 -109 -11 -151 -11c-364 0 -520 288 -520 636c0 237 53 431 184 558c100 88 214 116 329 116h20c214 -5 348 -113 423 -276
l-143 -69c-52 114 -136 193 -291 193c-84 0 -145 -6 -223 -73c-111 -95 -137 -288 -137 -460c0 -259 78 -470 368 -470c29 0 57 2 83 9c123 28 193 108 193 431c-26 -2 -50 -2 -73 -2c-31 0 -60 1 -89 1c-71 0 -140 -5 -230 -38l-40 145c96 36 200 42 301 42
c56 0 112 -2 166 -2z" />
    <glyph glyph-name="uni01F5" unicode="&#x1f5;" 
d="M305 1213c143 48 352 205 467 313l123 -146c-111 -112 -379 -268 -522 -315zM237 -76c0 -126 75 -156 207 -156h105c115 0 254 41 254 207c0 85 -149 96 -270 96c-9 0 -66 0 -212 -2c-56 -22 -84 -82 -84 -145zM476 557c129 0 228 52 228 149c0 129 -85 168 -212 168
c-136 0 -239 -73 -239 -165c0 -116 93 -152 223 -152zM95 699c0 210 151 327 397 327c115 0 189 -20 254 -60c56 52 109 62 219 62v-164c-12 2 -34 5 -44 5c-35 0 -74 -5 -91 -22c26 -47 30 -89 30 -137c0 -189 -154 -303 -379 -303c-71 0 -134 7 -199 32
c-19 -22 -43 -57 -43 -98c0 -76 54 -118 180 -118c26 0 154 2 181 2c188 0 361 -59 361 -249c0 -259 -174 -364 -418 -364h-103c-211 0 -360 97 -360 306c0 100 32 171 87 219c-57 42 -85 113 -85 191c0 91 32 151 74 199c-34 38 -61 100 -61 172z" />
    <glyph glyph-name="uni01F8" unicode="&#x1f8;" 
d="M704 1425l-68 -148c-143 47 -411 203 -522 315l123 146c115 -108 324 -265 467 -313zM752 -6c-163 357 -317 654 -519 1007v-204c0 -293 1 -648 1 -800h-159v1301l159 -4c126 -184 402 -689 519 -937c-2 130 -3 266 -3 400c0 186 3 369 12 540h154
c-6 -113 -8 -262 -8 -425c0 -226 4 -480 4 -710c0 -57 -1 -114 -1 -167z" />
    <glyph glyph-name="uni01F9" unicode="&#x1f9;" 
d="M788.5 1226l-68 -148c-143 47 -411 203 -522 315l123 146c115 -108 324 -265 467 -313zM270 927c126 66 218 95 328 95c120 0 299 -77 299 -226v-585c0 -66 50 -88 106 -118l-84 -112c-88 43 -180 94 -180 223v561c0 74 -97 107 -163 107c-64 0 -160 -42 -306 -112v-760
l-158 -1v706c0 178 -8 204 -32 298l160 37c10 -24 22 -64 30 -113z" />
    <glyph glyph-name="Aringacute" unicode="&#x1fa;" 
d="M284 1827c143 48 352 205 467 313l123 -146c-111 -112 -379 -268 -522 -315zM718 495l-194 587l-186 -607c60 13 116 13 199 17zM429 1447c0 -35 36 -72 87 -72s85 37 85 72s-33 69 -85 69s-87 -34 -87 -69zM300 1445c0 111 102 195 217 195s216 -84 216 -195
c0 -77 -49 -142 -118 -174l368 -1099c11 -37 29 -118 31 -172h-164c0 23 -12 95 -20 122l-70 210c-141 -3 -362 -5 -473 -32l-59 -179c-10 -29 -24 -93 -24 -121h-162c1 28 19 116 32 159l350 1110c-72 31 -124 97 -124 176z" />
    <glyph glyph-name="aringacute" unicode="&#x1fb;" 
d="M396 1253c0 -35 36 -72 86 -72c52 0 86 37 86 72s-34 69 -86 69s-86 -34 -86 -69zM266 1251c0 111 102 195 218 195c114 0 216 -84 216 -195s-102 -195 -216 -195c-116 0 -218 84 -218 195zM234 311c0 -105 56 -165 149 -165c210 0 315 158 341 199v95
c-57 35 -131 64 -235 64c-136 -1 -255 -75 -255 -193zM881 318c0 -35 0 -128 13 -145c13 -18 50 -41 79 -64l-83 -119c-52 40 -112 65 -130 166c-78 -75 -180 -162 -377 -162c-171 0 -305 141 -305 307c0 76 30 165 89 226c95 97 196 121 314 121c126 0 189 -18 243 -51
c0 189 -69 280 -239 280c-138 0 -201 -30 -281 -173l-130 82c96 182 230 242 409 242c242 0 398 -155 398 -380v-330zM284 1580c143 48 352 205 467 313l123 -146c-111 -112 -379 -268 -522 -315z" />
    <glyph glyph-name="AEacute" unicode="&#x1fc;" 
d="M353 1494c143 48 352 205 467 313l123 -146c-111 -112 -379 -268 -522 -315zM470 490l-51 604l-143 -619s69 13 194 15zM481 347c-161 -5 -239 -25 -239 -25l-51 -201c-7 -30 -24 -93 -24 -121h-162c1 28 20 116 32 159l313 1134c62 2 172 2 269 2c157 0 239 -1 336 -1
v-150h-405l26 -328h300v-150h-281l42 -519l244 2c56 0 117 26 117 26l44 -148c-47 -13 -81 -30 -153 -30h-6l-379 3z" />
    <glyph glyph-name="aeacute" unicode="&#x1fd;" 
d="M237 1197c143 48 352 205 467 313l123 -146c-111 -112 -379 -268 -522 -315zM177 324c0 -108 41 -162 124 -162c90 0 128 92 140 165v147c-43 25 -85 34 -139 34c-78 0 -125 -83 -125 -184zM594 615c89 6 147 8 231 8c0 106 -22 246 -92 246c-128 0 -139 -92 -139 -254z
M505 97c-30 -34 -90 -93 -193 -93c-63 0 -128 15 -182 53c-81 57 -107 154 -107 252c0 167 64 352 268 352c77 0 112 -16 150 -32c0 97 -22 241 -141 241h-9c-52 0 -82 -3 -148 -103l-10 -14l-117 74l11 18c85 134 150 178 273 178c56 0 102 -8 163 -55
c19 -16 38 -40 50 -59c41 61 89 114 211 114c244 0 252 -349 252 -548l-382 -10v-245c25 -29 76 -59 139 -59c59 0 110 56 148 109l107 -100c-93 -126 -197 -165 -274 -165c-81 0 -153 33 -209 92z" />
    <glyph glyph-name="Oslashacute" unicode="&#x1fe;" 
d="M278 1486c143 48 352 205 467 313l123 -146c-111 -112 -379 -268 -522 -315zM747 1026c-116 -275 -264 -609 -370 -852c36 -17 79 -26 132 -26c116 0 189 64 234 149c40 65 71 231 71 340c0 0 -4 265 -60 376c-2 4 -5 9 -7 13zM258 295c101 231 261 592 372 857
c-28 14 -59 20 -92 20c-95 0 -151 -28 -209 -106c-69 -91 -129 -257 -129 -481c0 -88 19 -209 58 -290zM185 127c-2 2 -4 5 -6 7c-90 112 -138 263 -138 447c0 314 88 482 158 579c66 92 178 165 334 168c39 0 96 -5 156 -31c12 29 22 55 31 79l148 -58
c-14 -36 -30 -76 -48 -119c83 -97 150 -265 152 -554v-11c0 -167 -44 -320 -92 -415c-75 -147 -206 -227 -371 -227c-66 0 -134 12 -195 39c-11 -24 -19 -47 -28 -67l-148 61c6 12 30 61 47 102z" />
    <glyph glyph-name="oslashacute" unicode="&#x1ff;" 
d="M242 1214c143 48 352 205 467 313l123 -146c-111 -112 -379 -268 -522 -315zM241 356l414 465c-37 36 -88 57 -155 57c-208 0 -270 -165 -270 -409c0 -41 3 -79 11 -113zM855 804c33 -77 47 -175 47 -261c0 -285 -96 -542 -418 -542h-2c-114 1 -204 32 -270 90l-91 -100
l-111 104l109 123c-31 69 -47 152 -47 246c0 292 102 568 394 568c132 0 226 -31 294 -92l113 127l120 -111zM654 215c65 61 89 167 89 315v18c0 42 -3 82 -11 119l-412 -455c41 -36 96 -56 164 -56c76 1 120 17 170 59z" />
    <glyph glyph-name="uni0200" unicode="&#x200;" 
d="M804 1389.23l-125 -90.8477c-108 91.7217 -259 263.808 -310 393.965l164 72.5029c56 -128.409 164 -283.025 271 -375.62zM478 1363.9l-125 -90.8477c-108 91.7207 -259 263.808 -310 393.964l164 72.5039c56 -128.41 164 -283.025 271 -375.62zM716 505l-194 587
l-186 -607c60 13 116 13 199 17zM434 1301h171l378 -1129c11 -37 29 -118 31 -172h-164c0 23 -12 95 -20 122l-70 210c-141 -3 -362 -5 -473 -32l-59 -179c-10 -29 -24 -93 -24 -121h-162c1 28 19 116 32 159z" />
    <glyph glyph-name="uni0201" unicode="&#x201;" 
d="M868 1188l-125 -104c-108 105 -259 302 -310 451l164 83c56 -147 164 -324 271 -430zM542 1159l-125 -104c-108 105 -259 302 -310 451l164 83c56 -147 164 -324 271 -430zM234 311c0 -105 56 -165 149 -165c210 0 315 158 341 199v95c-57 35 -131 64 -235 64
c-136 -1 -255 -75 -255 -193zM881 318c0 -35 0 -128 13 -145c13 -18 50 -41 79 -64l-83 -119c-52 40 -112 65 -130 166c-78 -75 -180 -162 -377 -162c-171 0 -305 141 -305 307c0 76 30 165 89 226c95 97 196 121 314 121c126 0 189 -18 243 -51c0 189 -69 280 -239 280
c-138 0 -201 -30 -281 -173l-130 82c96 182 230 242 409 242c242 0 398 -155 398 -380v-330z" />
    <glyph glyph-name="uni0204" unicode="&#x204;" 
d="M869 1408.35l-125 -84.0312c-108 84.8398 -259 244.015 -310 364.405l164 67.0635c56 -118.775 164 -261.79 271 -347.438zM543 1384.92l-125 -84.0312c-108 84.8398 -259 244.014 -310 364.405l164 67.0635c56 -118.775 164 -261.79 271 -347.438zM102 1293
c56 4 126 4 204 4h98h110c149 0 285 -3 359 -3h16v-150h-629v-328h438v-150h-438v-30c0 -203 -3 -412 -3 -489l525 2c56 0 117 26 117 26l44 -148c-48 -13 -83 -30 -159 -30h-682v1296z" />
    <glyph glyph-name="uni0205" unicode="&#x205;" 
d="M900 1161l-125 -104c-108 105 -259 302 -310 451l164 83c56 -147 164 -324 271 -430zM574 1132l-125 -104c-108 105 -259 302 -310 451l164 83c56 -147 164 -324 271 -430zM236 580c129 1 386 10 528 26c-16 161 -118 263 -254 263c-170 0 -273 -135 -274 -289zM509 1021
c377 0 414 -380 414 -518c0 -20 0 -35 -1 -43c-280 -19 -508 -31 -686 -33c0 -153 86 -284 290 -284c143 0 227 79 266 133l123 -109c-41 -45 -155 -177 -393 -177c-298 0 -444 213 -444 526c0 286 148 505 431 505z" />
    <glyph glyph-name="uni0208" unicode="&#x208;" 
d="M844 1418.14l-125 -75.9033c-108 76.6338 -259 220.412 -310 329.158l164 60.5762c56 -107.286 164 -236.468 271 -313.831zM518 1396.98l-125 -75.9033c-108 76.6328 -259 220.411 -310 329.157l164 60.5771c56 -107.286 164 -236.468 271 -313.831zM152 1298
c156 4 237 4 333 4c105 0 201 -1 364 -3v-152c-123 0 -171 5 -267 5v-1000c46 0 72 1 123 1c45 0 92 -1 144 -4v-150c-85 5 -147 6 -210 6c-47 0 -96 -1 -155 -1c-74 0 -174 -7 -329 -7v149c85 4 135 5 192 5h75v1000c-66 -1 -158 -1 -264 -7z" />
    <glyph glyph-name="uni0209" unicode="&#x209;" 
d="M768 1170l-125 -104c-108 105 -259 302 -310 451l164 83c56 -147 164 -324 271 -430zM442 1141l-125 -104c-108 105 -259 302 -310 451l164 83c56 -147 164 -324 271 -430zM417 1013h116c0 -273 1 -803 1 -803c5 -82 49 -86 141 -86c93 0 217 21 286 73l68 -114
c-86 -71 -229 -101 -353 -101c-85 0 -161 14 -205 38c-85 47 -93 127 -93 186v651c-49 0 -163 -6 -258 -28l-29 142c112 26 222 42 326 42z" />
    <glyph glyph-name="uni020C" unicode="&#x20c;" 
d="M836.5 1423.45l-125 -74.001c-108 74.7119 -259 214.887 -310 320.906l164 59.0586c56 -104.597 164 -230.54 271 -305.964zM510.5 1402.82l-125 -74.001c-108 74.7119 -259 214.887 -310 320.906l164 59.0586c56 -104.597 164 -230.541 271 -305.964zM504 1326
c124 0 445 -74 450 -691v-11c0 -164 -44 -317 -92 -410c-75 -144 -205 -227 -370 -227c-122 0 -249 43 -330 143c-90 110 -138 262 -138 442c0 345 76 494 146 589c66 90 178 162 334 165zM266 245c49 -65 118 -105 226 -105c116 0 189 67 234 150c40 64 69 230 70 337v19
c0 115 -17 268 -70 371c-58 114 -128 156 -216 156c-95 0 -152 -28 -210 -104c-69 -89 -118 -231 -118 -493c0 -104 28 -258 84 -331z" />
    <glyph glyph-name="uni020D" unicode="&#x20d;" 
d="M788 1176l-125 -104c-108 105 -259 302 -310 451l164 83c56 -147 164 -324 271 -430zM462 1147l-125 -104c-108 105 -259 302 -310 451l164 83c56 -147 164 -324 271 -430zM654 215c65 61 89 167 89 315v18c-2 184 -66 330 -243 330c-208 0 -270 -165 -270 -409
c0 -195 87 -313 254 -313c76 1 120 17 170 59zM482 1c-272 1 -410 183 -410 463c0 292 102 568 394 568c197 0 307 -69 377 -201c41 -79 59 -192 59 -288c0 -285 -96 -542 -418 -542h-2z" />
    <glyph glyph-name="uni0210" unicode="&#x210;" 
d="M794 1412.87l-125 -74.998c-108 75.7197 -259 217.783 -310 325.233l164 59.8535c56 -106.007 164 -233.648 271 -310.089zM468 1391.96l-125 -74.998c-108 75.7197 -259 217.783 -310 325.233l164 59.8545c56 -106.008 164 -233.648 271 -310.09zM652 540
c78 -122 190 -302 246 -367c18 -16 49 -50 91 -61l-59 -134c-58 9 -112 47 -146 89c-97 107 -255 373 -311 467c-82 8 -150 20 -226 33l1 -567h-158v1113c0 67 -1 114 -5 175c42 4 157 15 218 15c250 0 419 -14 541 -164c48 -59 83 -146 83 -230c0 -220 -99 -340 -275 -369z
M772 895c0 55 -15 105 -57 153c-67 78 -183 102 -407 102c-26 0 -34 0 -63 -1l2 -430c99 -18 178 -41 260 -41c16 0 33 1 49 3c140 18 216 52 216 214z" />
    <glyph glyph-name="uni0211" unicode="&#x211;" 
d="M921 1186l-125 -104c-108 105 -259 302 -310 451l164 83c56 -147 164 -324 271 -430zM595 1157l-125 -104c-108 105 -259 302 -310 451l164 83c56 -147 164 -324 271 -430zM370 875c93 114 197 150 352 150c167 0 212 -114 212 -296v-6h-156c-4 81 8 142 -84 142
c-101 0 -228 -36 -328 -259v-606l-156 1v763c0 57 -40 86 -102 141l104 141c61 -49 121 -87 158 -171z" />
    <glyph glyph-name="uni0214" unicode="&#x214;" 
d="M812 1377.83l-125 -75.959c-108 76.6895 -259 220.573 -310 329.398l164 60.6211c56 -107.365 164 -236.641 271 -314.061zM486 1356.65l-125 -75.959c-108 76.6895 -259 220.572 -310 329.398l164 60.6211c56 -107.365 164 -236.642 271 -314.061zM777 1313l157 -13
c-9 -60 -9 -103 -9 -157c0 -145 2 -272 2 -383v-58c0 -232 -4 -454 -116 -583c-82 -95 -190 -124 -319 -129c-308 0 -406 166 -424 457c-5 75 -7 197 -7 332c0 172 3 365 9 523h158c-4 -165 -8 -389 -8 -574c0 -123 2 -229 7 -289c18 -210 100 -298 252 -298
c106 5 158 28 212 84c67 74 78 280 78 477c0 123 -5 269 -5 439c0 71 3 110 13 172z" />
    <glyph glyph-name="uni0215" unicode="&#x215;" 
d="M870 1161l-125 -104c-108 105 -259 302 -310 451l164 83c56 -147 164 -324 271 -430zM544 1132l-125 -104c-108 105 -259 302 -310 451l164 83c56 -147 164 -324 271 -430zM906 -10c-57 41 -111 82 -133 168c-84 -86 -181 -153 -331 -156h-9c-62 0 -147 1 -207 42
c-45 31 -112 88 -112 170c-3 268 4 697 -23 780l160 27c22 -92 17 -405 19 -771c6 -34 28 -60 50 -76c14 -10 65 -18 106 -18c67 3 108 11 159 42c47 28 116 58 154 146v676h158v-781c2 -52 51 -100 91 -132z" />
    <glyph glyph-name="Scommaaccent" unicode="&#x218;" 
d="M416 -131h220v-215c0 -151 -67 -227 -196 -283l-54 127c60 28 86 51 86 150h-56v221zM247 709c-91 43 -175 134 -175 280c0 216 187 313 398 313h9c223 -3 393 -79 431 -286l-159 -29c-38 127 -122 161 -276 161c-102 0 -163 -21 -209 -66c-24 -25 -35 -54 -35 -88
c0 -82 46 -120 102 -147c88 -42 274 -55 406 -115c108 -52 210 -170 210 -344c0 -269 -188 -397 -428 -397h-19c-353 9 -459 199 -459 422h158c0 -159 83 -271 307 -271c205 0 281 95 281 238c0 107 -59 175 -138 209c-116 50 -271 60 -404 120z" />
    <glyph glyph-name="scommaaccent" unicode="&#x219;" 
d="M405 -142h220v-215c0 -151 -67 -227 -196 -283l-54 127c60 28 86 51 86 150h-56v221zM268 569c-65 35 -116 103 -116 214c1 173 163 246 338 246c122 0 298 -40 380 -141l-113 -111c-53 62 -167 104 -253 104c-106 0 -195 -29 -195 -94c0 -48 20 -71 60 -89
c271 -113 527 -133 527 -417c0 -162 -114 -253 -221 -281c-56 -13 -116 -20 -173 -20c-256 0 -384 135 -384 350l157 -1c0 -134 69 -206 224 -206c123 0 242 53 242 163c0 63 -31 93 -86 134c-77 55 -282 94 -387 149z" />
    <glyph glyph-name="uni021A" unicode="&#x21a;" 
d="M388 -131h220v-215c0 -151 -67 -227 -196 -283l-54 127c60 28 86 51 86 150h-56v221zM403 -9v1153c-198 0 -288 -1 -364 -1v155c122 0 576 1 764 1c73 0 122 -12 140 -15l-33 -152s-62 12 -112 12h-235v-1153h-160z" />
    <glyph glyph-name="uni021B" unicode="&#x21b;" 
d="M521 -128h220v-215c0 -151 -67 -227 -196 -283l-54 127c60 28 86 51 86 150h-56v221zM359 437v-40c0 -133 36 -234 147 -245c18 -2 95 -3 108 -3c65 0 129 10 154 24c57 30 75 85 82 104l126 -56c-10 -28 -33 -119 -145 -184c-58 -34 -130 -43 -215 -43
c-184 0 -306 19 -377 167c-35 72 -39 147 -39 233v43c4 104 6 235 12 428h-14c-28 0 -56 -4 -82 -11l-20 146c24 9 69 12 102 12h15c0 70 1 164 1 234l158 -1c0 -66 -1 -160 -2 -228h122c145 1 299 2 299 2h18v-147h-317c-46 0 -73 -3 -119 -3c-9 -204 -10 -332 -14 -432z
" />
    <glyph glyph-name="uni021E" unicode="&#x21e;" 
d="M499 1319l-370 318l104 107l267 -218l265 218l106 -107zM220 1296l-1 -547c92 21 187 28 307 28h228c0 274 -1 352 -1 514h159v-1291h-158v625h-129c-146 0 -288 -3 -406 -28c0 -343 2 -416 2 -597h-161v1294z" />
    <glyph glyph-name="uni021F" unicode="&#x21f;" 
d="M203 1468l-370 318l104 107l267 -218l265 218l106 -107zM739 576c0 227 -36 291 -237 291c-101 0 -202 -74 -233 -136v-533c0 -79 -5 -152 -10 -198l-158 8c8 72 11 119 11 196c0 504 -1 1198 -1 1198h159v-462c65 41 137 80 239 80c121 0 231 -9 310 -105
c72 -85 77 -163 77 -273v-66c0 -164 -1 -241 -1 -353c0 -55 26 -84 86 -123l-88 -117c-80 45 -154 98 -154 225v368z" />
    <glyph glyph-name="uni0226" unicode="&#x226;" 
d="M399 1673l236 -3v-225l-236 3v225zM716 505l-194 587l-186 -607c60 13 116 13 199 17zM434 1301h171l378 -1129c11 -37 29 -118 31 -172h-164c0 23 -12 95 -20 122l-70 210c-141 -3 -362 -5 -473 -32l-59 -179c-10 -29 -24 -93 -24 -121h-162c1 28 19 116 32 159z" />
    <glyph glyph-name="uni0227" unicode="&#x227;" 
d="M355 1403h235v-225h-235v225zM234 311c0 -105 56 -165 149 -165c210 0 315 158 341 199v95c-57 35 -131 64 -235 64c-136 -1 -255 -75 -255 -193zM881 318c0 -35 0 -128 13 -145c13 -18 50 -41 79 -64l-83 -119c-52 40 -112 65 -130 166c-78 -75 -180 -162 -377 -162
c-171 0 -305 141 -305 307c0 76 30 165 89 226c95 97 196 121 314 121c126 0 189 -18 243 -51c0 189 -69 280 -239 280c-138 0 -201 -30 -281 -173l-130 82c96 182 230 242 409 242c242 0 398 -155 398 -380v-330z" />
    <glyph glyph-name="uni0228" unicode="&#x228;" 
d="M102 1293c56 4 126 4 204 4h98h110c149 0 285 -3 359 -3h16v-150h-629v-328h438v-150h-438v-30c0 -203 -3 -412 -3 -489l525 2c56 0 117 26 117 26l44 -148c-48 -13 -83 -30 -159 -30h-269v-61c97 -5 155 -67 155 -171c0 -101 -100 -168 -184 -168c-66 0 -138 25 -194 61
l38 106c33 -18 73 -42 124 -42c36 0 77 20 80 58v2c0 29 -38 54 -86 54s-50 -7 -78 -17v178h-268v1296z" />
    <glyph glyph-name="uni0229" unicode="&#x229;" 
d="M236 580c108 11 350 26 493 30l35 1c-6 156 -118 258 -254 258c-170 0 -273 -135 -274 -289zM509 1021c377 0 414 -380 414 -518c0 -20 0 -35 -1 -43c-285 -4 -521 -21 -686 -33c0 -153 83 -284 269 -284c157 0 245 87 280 143l121 -103c-12 -20 -105 -163 -332 -189
c-1 -20 -1 -63 -1 -65c97 -5 155 -67 155 -171c0 -101 -100 -168 -184 -168c-66 0 -138 25 -194 61l38 106c33 -18 73 -42 124 -42c36 0 77 20 80 58v2c0 29 -38 54 -86 54s-50 -7 -78 -17v183c-236 34 -350 236 -350 521c0 286 148 505 431 505z" />
    <glyph glyph-name="uni022A" unicode="&#x22a;" 
d="M718.5 1880v-152h-17c-58 -2 -128 -2 -202 -2s-149 0 -217 2l-18 1v155l19 -2c65 -2 162 -2 254 -2h164h17zM188.5 1637l235 -3v-225l-235 3v225zM594.5 1634l235 -3v-225l-235 3v225zM504 1326c124 0 445 -74 450 -691v-11c0 -164 -44 -317 -92 -410
c-75 -144 -205 -227 -370 -227c-122 0 -249 43 -330 143c-90 110 -138 262 -138 442c0 345 76 494 146 589c66 90 178 162 334 165zM266 245c49 -65 118 -105 226 -105c116 0 189 67 234 150c40 64 69 230 70 337v19c0 115 -17 268 -70 371c-58 114 -128 156 -216 156
c-95 0 -152 -28 -210 -104c-69 -89 -118 -231 -118 -493c0 -104 28 -258 84 -331z" />
    <glyph glyph-name="uni022B" unicode="&#x22b;" 
d="M718 1607v-152h-17c-58 -2 -128 -2 -202 -2s-149 0 -217 2l-18 1v155l19 -2c65 -2 162 -2 254 -2h164h17zM185 1403l235 -3v-225l-235 3v225zM591 1400l235 -3v-225l-235 3v225zM654 215c65 61 89 167 89 315v18c-2 184 -66 330 -243 330c-208 0 -270 -165 -270 -409
c0 -195 87 -313 254 -313c76 1 120 17 170 59zM482 1c-272 1 -410 183 -410 463c0 292 102 568 394 568c197 0 307 -69 377 -201c41 -79 59 -192 59 -288c0 -285 -96 -542 -418 -542h-2z" />
    <glyph glyph-name="uni022C" unicode="&#x22c;" 
d="M734.5 1922v-152h-17c-58 -2 -128 -2 -202 -2s-149 0 -217 2l-18 1v155l19 -2c65 -2 162 -2 254 -2h164h17zM367.5 1673c148 0 206 -121 296 -121c64 0 133 39 147 127l148 -52c-32 -120 -149 -228 -281 -228c-140 0 -197 121 -298 121c-59 0 -117 -9 -155 -115l-138 74
c74 164 171 194 281 194zM504 1326c124 0 445 -74 450 -691v-11c0 -164 -44 -317 -92 -410c-75 -144 -205 -227 -370 -227c-122 0 -249 43 -330 143c-90 110 -138 262 -138 442c0 345 76 494 146 589c66 90 178 162 334 165zM266 245c49 -65 118 -105 226 -105
c116 0 189 67 234 150c40 64 69 230 70 337v19c0 115 -17 268 -70 371c-58 114 -128 156 -216 156c-95 0 -152 -28 -210 -104c-69 -89 -118 -231 -118 -493c0 -104 28 -258 84 -331z" />
    <glyph glyph-name="uni022D" unicode="&#x22d;" 
d="M740 1623v-152h-17c-58 -2 -128 -2 -202 -2s-149 0 -217 2l-18 1v155l19 -2c65 -2 162 -2 254 -2h164h17zM348 1373c148 0 206 -121 296 -121c64 0 133 39 147 127l148 -52c-32 -120 -149 -228 -281 -228c-140 0 -197 121 -298 121c-59 0 -117 -9 -155 -115l-138 74
c74 164 171 194 281 194zM654 215c65 61 89 167 89 315v18c-2 184 -66 330 -243 330c-208 0 -270 -165 -270 -409c0 -195 87 -313 254 -313c76 1 120 17 170 59zM482 1c-272 1 -410 183 -410 463c0 292 102 568 394 568c197 0 307 -69 377 -201c41 -79 59 -192 59 -288
c0 -285 -96 -542 -418 -542h-2z" />
    <glyph glyph-name="uni022E" unicode="&#x22e;" 
d="M421.5 1634l236 -3v-225l-236 3v225zM504 1326c124 0 445 -74 450 -691v-11c0 -164 -44 -317 -92 -410c-75 -144 -205 -227 -370 -227c-122 0 -249 43 -330 143c-90 110 -138 262 -138 442c0 345 76 494 146 589c66 90 178 162 334 165zM266 245
c49 -65 118 -105 226 -105c116 0 189 67 234 150c40 64 69 230 70 337v19c0 115 -17 268 -70 371c-58 114 -128 156 -216 156c-95 0 -152 -28 -210 -104c-69 -89 -118 -231 -118 -493c0 -104 28 -258 84 -331z" />
    <glyph glyph-name="uni022F" unicode="&#x22f;" 
d="M351 1403h235v-225h-235v225zM654 215c65 61 89 167 89 315v18c-2 184 -66 330 -243 330c-208 0 -270 -165 -270 -409c0 -195 87 -313 254 -313c76 1 120 17 170 59zM482 1c-272 1 -410 183 -410 463c0 292 102 568 394 568c197 0 307 -69 377 -201
c41 -79 59 -192 59 -288c0 -285 -96 -542 -418 -542h-2z" />
    <glyph glyph-name="uni0230" unicode="&#x230;" 
d="M762.5 1893v-152h-17c-58 -2 -128 -2 -202 -2s-149 0 -217 2l-18 1v155l19 -2c65 -2 162 -2 254 -2h164h17zM421.5 1634l236 -3v-225l-236 3v225zM504 1326c124 0 445 -74 450 -691v-11c0 -164 -44 -317 -92 -410c-75 -144 -205 -227 -370 -227c-122 0 -249 43 -330 143
c-90 110 -138 262 -138 442c0 345 76 494 146 589c66 90 178 162 334 165zM266 245c49 -65 118 -105 226 -105c116 0 189 67 234 150c40 64 69 230 70 337v19c0 115 -17 268 -70 371c-58 114 -128 156 -216 156c-95 0 -152 -28 -210 -104c-69 -89 -118 -231 -118 -493
c0 -104 28 -258 84 -331z" />
    <glyph glyph-name="uni0231" unicode="&#x231;" 
d="M698 1625v-152h-17c-58 -2 -128 -2 -202 -2s-149 0 -217 2l-18 1v155l19 -2c65 -2 162 -2 254 -2h164h17zM351 1403h235v-225h-235v225zM654 215c65 61 89 167 89 315v18c-2 184 -66 330 -243 330c-208 0 -270 -165 -270 -409c0 -195 87 -313 254 -313
c76 1 120 17 170 59zM482 1c-272 1 -410 183 -410 463c0 292 102 568 394 568c197 0 307 -69 377 -201c41 -79 59 -192 59 -288c0 -285 -96 -542 -418 -542h-2z" />
    <glyph glyph-name="uni0311" unicode="&#x311;" 
d="M510 1510c-93 0 -173 -33 -200 -150l-156 30c48 225 230 273 356 273c165 0 338 -87 362 -264l-166 -30c-6 78 -88 141 -196 141z" />
    <glyph glyph-name="uni0310" unicode="&#x310;" 
 />
    <glyph glyph-name="uni0312" unicode="&#x312;" 
d="M277 1283c38 112 64 221 109 372l152 -34c-18 -142 -46 -283 -67 -386z" />
    <glyph glyph-name="uni0313" unicode="&#x313;" 
d="M428 1597h220v-215c0 -151 -67 -227 -196 -283l-53 127c60 28 86 51 86 150h-57v221z" />
    <glyph glyph-name="uni0314" unicode="&#x314;" 
d="M631 1597v-221h-57c0 -99 26 -122 86 -150l-53 -127c-129 56 -196 132 -196 283v215h220z" />
    <glyph glyph-name="uni0202" unicode="&#x202;" 
d="M505 1441c-93 0 -173 -33 -200 -150l-156 30c48 225 230 273 356 273c165 0 338 -87 362 -264l-166 -30c-6 78 -88 141 -196 141zM716 505l-194 587l-186 -607c60 13 116 13 199 17zM434 1301h171l378 -1129c11 -37 29 -118 31 -172h-164c0 23 -12 95 -20 122l-70 210
c-141 -3 -362 -5 -473 -32l-59 -179c-10 -29 -24 -93 -24 -121h-162c1 28 19 116 32 159z" />
    <glyph glyph-name="uni0203" unicode="&#x203;" 
d="M471 1304c-93 0 -173 -33 -200 -150l-156 30c48 225 230 273 356 273c165 0 338 -87 362 -264l-166 -30c-6 78 -88 141 -196 141zM234 311c0 -105 56 -165 149 -165c210 0 315 158 341 199v95c-57 35 -131 64 -235 64c-136 -1 -255 -75 -255 -193zM881 318
c0 -35 0 -128 13 -145c13 -18 50 -41 79 -64l-83 -119c-52 40 -112 65 -130 166c-78 -75 -180 -162 -377 -162c-171 0 -305 141 -305 307c0 76 30 165 89 226c95 97 196 121 314 121c126 0 189 -18 243 -51c0 189 -69 280 -239 280c-138 0 -201 -30 -281 -173l-130 82
c96 182 230 242 409 242c242 0 398 -155 398 -380v-330z" />
    <glyph glyph-name="uni0206" unicode="&#x206;" 
d="M476 1487c-93 0 -173 -33 -200 -150l-156 30c48 225 230 273 356 273c165 0 338 -87 362 -264l-166 -30c-6 78 -88 141 -196 141zM102 1293c56 4 126 4 204 4h98h110c149 0 285 -3 359 -3h16v-150h-629v-328h438v-150h-438v-30c0 -203 -3 -412 -3 -489l525 2
c56 0 117 26 117 26l44 -148c-48 -13 -83 -30 -159 -30h-682v1296z" />
    <glyph glyph-name="uni0207" unicode="&#x207;" 
d="M506 1304c-93 0 -173 -33 -200 -150l-156 30c48 225 230 273 356 273c165 0 338 -87 362 -264l-166 -30c-6 78 -88 141 -196 141zM236 580c129 1 386 10 528 26c-16 161 -118 263 -254 263c-170 0 -273 -135 -274 -289zM509 1021c377 0 414 -380 414 -518
c0 -20 0 -35 -1 -43c-280 -19 -508 -31 -686 -33c0 -153 86 -284 290 -284c143 0 227 79 266 133l123 -109c-41 -45 -155 -177 -393 -177c-298 0 -444 213 -444 526c0 286 148 505 431 505z" />
    <glyph glyph-name="uni020A" unicode="&#x20a;" 
d="M488 1487c-93 0 -173 -33 -200 -150l-156 30c48 225 230 273 356 273c165 0 338 -87 362 -264l-166 -30c-6 78 -88 141 -196 141zM152 1298c156 4 237 4 333 4c105 0 201 -1 364 -3v-152c-123 0 -171 5 -267 5v-1000c46 0 72 1 123 1c45 0 92 -1 144 -4v-150
c-85 5 -147 6 -210 6c-47 0 -96 -1 -155 -1c-74 0 -174 -7 -329 -7v149c85 4 135 5 192 5h75v1000c-66 -1 -158 -1 -264 -7z" />
    <glyph glyph-name="uni020B" unicode="&#x20b;" 
d="M455 1304c-93 0 -173 -33 -200 -150l-156 30c48 225 230 273 356 273c165 0 338 -87 362 -264l-166 -30c-6 78 -88 141 -196 141zM417 1013h116c0 -273 1 -803 1 -803c5 -82 49 -86 141 -86c93 0 217 21 286 73l68 -114c-86 -71 -229 -101 -353 -101
c-85 0 -161 14 -205 38c-85 47 -93 127 -93 186v651c-49 0 -163 -6 -258 -28l-29 142c112 26 222 42 326 42z" />
    <glyph glyph-name="uni020E" unicode="&#x20e;" 
d="M500.5 1487c-93 0 -173 -33 -200 -150l-156 30c48 225 230 273 356 273c165 0 338 -87 362 -264l-166 -30c-6 78 -88 141 -196 141zM504 1326c124 0 445 -74 450 -691v-11c0 -164 -44 -317 -92 -410c-75 -144 -205 -227 -370 -227c-122 0 -249 43 -330 143
c-90 110 -138 262 -138 442c0 345 76 494 146 589c66 90 178 162 334 165zM266 245c49 -65 118 -105 226 -105c116 0 189 67 234 150c40 64 69 230 70 337v19c0 115 -17 268 -70 371c-58 114 -128 156 -216 156c-95 0 -152 -28 -210 -104c-69 -89 -118 -231 -118 -493
c0 -104 28 -258 84 -331z" />
    <glyph glyph-name="uni020F" unicode="&#x20f;" 
d="M463 1304c-93 0 -173 -33 -200 -150l-156 30c48 225 230 273 356 273c165 0 338 -87 362 -264l-166 -30c-6 78 -88 141 -196 141zM654 215c65 61 89 167 89 315v18c-2 184 -66 330 -243 330c-208 0 -270 -165 -270 -409c0 -195 87 -313 254 -313c76 1 120 17 170 59z
M482 1c-272 1 -410 183 -410 463c0 292 102 568 394 568c197 0 307 -69 377 -201c41 -79 59 -192 59 -288c0 -285 -96 -542 -418 -542h-2z" />
    <glyph glyph-name="uni0212" unicode="&#x212;" 
d="M447 1502c-93 0 -173 -33 -200 -150l-156 30c48 225 230 273 356 273c165 0 338 -87 362 -264l-166 -30c-6 78 -88 141 -196 141zM652 540c78 -122 190 -302 246 -367c18 -16 49 -50 91 -61l-59 -134c-58 9 -112 47 -146 89c-97 107 -255 373 -311 467
c-82 8 -150 20 -226 33l1 -567h-158v1113c0 67 -1 114 -5 175c42 4 157 15 218 15c250 0 419 -14 541 -164c48 -59 83 -146 83 -230c0 -220 -99 -340 -275 -369zM772 895c0 55 -15 105 -57 153c-67 78 -183 102 -407 102c-26 0 -34 0 -63 -1l2 -430c99 -18 178 -41 260 -41
c16 0 33 1 49 3c140 18 216 52 216 214z" />
    </font>
</defs>
</svg>
